<?xml version="1.0" encoding="UTF-8"?>
<!-- Created with Inkscape (http://www.inkscape.org/) -->
<svg width="381mm" height="187.51mm" version="1.1" viewBox="0 0 381 187.51" xmlns="http://www.w3.org/2000/svg" xmlns:cc="http://creativecommons.org/ns#" xmlns:dc="http://purl.org/dc/elements/1.1/" xmlns:rdf="http://www.w3.org/1999/02/22-rdf-syntax-ns#" xmlns:xlink="http://www.w3.org/1999/xlink">
 <defs>
  <linearGradient id="linearGradient856" x1="47.901" x2="47.901" y1="120.17" y2="130.53" gradientTransform="matrix(7.5364 0 0 7.5364 -314.27 -819.28)" gradientUnits="userSpaceOnUse">
   <stop stop-color="gray" stop-opacity=".25" offset="0"/>
   <stop stop-color="gray" stop-opacity=".12" offset=".54"/>
   <stop stop-color="gray" stop-opacity=".1" offset="1"/>
  </linearGradient>
 </defs>
 <metadata>
  <rdf:RDF>
   <cc:Work rdf:about="">
    <dc:format>image/svg+xml</dc:format>
    <dc:type rdf:resource="http://purl.org/dc/dcmitype/StillImage"/>
   </cc:Work>
  </rdf:RDF>
 </metadata>
 <g transform="translate(96.49 -8.9806)">
  <g transform="matrix(1.3177 0 0 1.3177 30.655 -62.426)" stroke-width=".7589">
   <g fill="#3f3d56">
    <path d="m20.138 130.04 19.111-75.066 55.453 54.084z"/>
    <path d="m150.85 196.49-83.515-22.378 61.137-61.137z"/>
    <path d="m192.65 133.76-68.908-39.784 68.908-39.784z"/>
    <path d="m5.8205 168.28-102.31-27.414 74.896-74.896z"/>
   </g>
   <g fill="url(#linearGradient856)" stroke-width=".20079px" aria-label="2019">
    <path d="m-15.784 149.44v13.508h-52.744v-14.794q0-5.8962 1.7152-10.077 1.8225-4.1809 5.0385-7.0754 3.3233-2.8945 7.933-4.7169 4.6097-1.9297 10.399-3.2161 4.2881-0.96483 6.9682-2.1441 2.7873-1.2864 4.3953-2.7873 1.608-1.608 2.1441-3.4305 0.64322-1.9296 0.64322-4.2881 0-4.5025-3.3233-7.5042-3.2161-3.0017-9.0051-3.0017-6.1106 0-9.7555 3.7521-3.6449 3.6449-3.6449 10.184v4.7169h-14.151v-6.0034q0-5.2529 1.8225-9.9699 1.9297-4.8241 5.3602-8.3618 3.5377-3.6449 8.5762-5.6818 5.0385-2.1441 11.364-2.1441 6.7538 0 11.792 2.0369 5.0385 1.9297 8.3618 5.1457 3.4305 3.2161 5.0385 7.5042 1.7152 4.1809 1.7152 8.6834v1.2864q0 9.4339-5.3602 15.652-5.2529 6.2178-17.26 9.005-5.0385 1.1792-8.3618 2.4657-3.2161 1.1792-5.0385 2.6801-1.8225 1.5008-2.5729 3.3233-0.64322 1.7152-0.64322 3.9665v1.2864z"/>
    <path d="m13.911 125.43q0-3.6449 2.6801-6.325 2.6801-2.6801 6.325-2.6801t6.325 2.6801q2.6801 2.6801 2.6801 6.325 0 3.6449-2.6801 6.325-2.6801 2.6801-6.325 2.6801t-6.325-2.6801q-2.6801-2.6801-2.6801-6.325zm-18.653-8.3618q0-14.58 7.2898-22.62 7.397-8.0402 20.369-8.0402 12.972 0 20.261 8.0402 7.397 8.0402 7.397 22.62v16.724q0 15.008-7.397 22.834-7.2898 7.8258-20.261 7.8258-12.972 0-20.369-7.8258-7.2898-7.8258-7.2898-22.834zm27.658 34.519q3.8593 0 6.4322-1.1792 2.5729-1.2864 4.1809-3.5377 1.608-2.2513 2.2513-5.3602 0.64322-3.1089 0.64322-6.861v-18.439q0-3.5377-0.75042-6.6466t-2.3585-5.3602-4.1809-3.5377q-2.5729-1.3936-6.2178-1.3936t-6.2178 1.3936q-2.5729 1.2864-4.1809 3.5377t-2.3585 5.3602q-0.75042 3.1089-0.75042 6.6466v18.439q0 3.7521 0.64322 6.861 0.64322 3.1089 2.2513 5.3602 1.608 2.2513 4.1809 3.5377 2.5729 1.1792 6.4322 1.1792z"/>
    <path d="m84.022 149.44v-54.459h-1.9297l-7.0754 25.729h-13.508v-1.2864l9.0051-31.518h27.658v61.535h18.653v13.508h-54.03v-13.508z"/>
    <path d="m142.88 141.72q0 3.7521 2.6801 6.5394 2.7873 2.6801 8.5762 2.6801 5.789 0 9.1123-3.3233 3.4305-3.4305 3.4305-8.8978v-9.6483h-1.9296q-1.5008 3.7521-4.9313 6.1106-3.4305 2.2513-9.7555 2.2513-4.8241 0-9.005-1.7152-4.0737-1.8224-7.1826-5.0385-3.0017-3.2161-4.7169-7.7186-1.7152-4.5025-1.7152-9.9699v-1.2864q0-5.3602 1.9296-9.9699 1.9296-4.7169 5.3602-8.0402 3.5377-3.4305 8.469-5.3602 5.0385-1.9297 11.149-1.9297 5.5746 0 10.399 1.8225 4.9313 1.8225 8.469 5.1457 3.5377 3.2161 5.5746 7.8258 2.0369 4.5025 2.0369 9.9699v27.337q0 6.1106-2.0369 10.935-2.0368 4.8241-5.5746 8.1474-3.5377 3.3233-8.3618 5.1457-4.7169 1.7152-10.291 1.7152-5.4674 0-10.184-1.5008-4.7169-1.608-8.2546-4.5025-3.4305-3.0017-5.4674-7.1826-1.9297-4.1809-1.9297-9.5411zm11.256-41.809q-5.4674 0-9.005 3.3233-3.5377 3.2161-3.5377 8.6834 0 5.4674 3.5377 8.7906 3.5377 3.2161 9.005 3.2161 5.4674 0 9.0051-3.2161 3.5377-3.3233 3.5377-8.7906 0-5.4674-3.5377-8.6834-3.5377-3.3233-9.0051-3.3233z"/>
   </g>
   <g fill="#38bc24" stroke-width=".20079px" aria-label="2019">
    <path d="m-19.772 153.43v13.508h-52.744v-14.794q0-5.8962 1.7152-10.077 1.8225-4.1809 5.0385-7.0754 3.3233-2.8945 7.933-4.7169 4.6097-1.9296 10.399-3.2161 4.2881-0.96483 6.9682-2.1441 2.7873-1.2864 4.3953-2.7873 1.608-1.608 2.1441-3.4305 0.64322-1.9297 0.64322-4.2881 0-4.5025-3.3233-7.5042-3.2161-3.0017-9.0051-3.0017-6.1106 0-9.7555 3.7521-3.6449 3.6449-3.6449 10.184v4.7169h-14.151v-6.0034q0-5.253 1.8225-9.9699 1.9297-4.8241 5.3602-8.3618 3.5377-3.6449 8.5762-5.6818 5.0385-2.1441 11.364-2.1441 6.7538 0 11.792 2.0369 5.0385 1.9297 8.3618 5.1457 3.4305 3.2161 5.0385 7.5042 1.7152 4.1809 1.7152 8.6834v1.2864q0 9.4339-5.3602 15.652-5.2529 6.2178-17.26 9.005-5.0385 1.1792-8.3618 2.4657-3.2161 1.1792-5.0385 2.6801t-2.5729 3.3233q-0.64322 1.7152-0.64322 3.9665v1.2864z"/>
    <path d="m9.9232 129.42q0-3.6449 2.6801-6.325 2.6801-2.6801 6.325-2.6801t6.325 2.6801q2.6801 2.6801 2.6801 6.325 0 3.6449-2.6801 6.325-2.6801 2.6801-6.325 2.6801t-6.325-2.6801q-2.6801-2.6801-2.6801-6.325zm-18.653-8.3618q0-14.58 7.2898-22.62 7.397-8.0402 20.369-8.0402 12.972 0 20.261 8.0402 7.397 8.0402 7.397 22.62v16.724q0 15.008-7.397 22.834-7.2898 7.8258-20.261 7.8258-12.972 0-20.369-7.8258-7.2898-7.8258-7.2898-22.834zm27.658 34.519q3.8593 0 6.4322-1.1792 2.5729-1.2864 4.1809-3.5377 1.608-2.2513 2.2513-5.3602 0.64322-3.1089 0.64322-6.861v-18.439q0-3.5377-0.75042-6.6466-0.75042-3.1089-2.3585-5.3602t-4.1809-3.5377q-2.5729-1.3936-6.2178-1.3936t-6.2178 1.3936q-2.5729 1.2864-4.1809 3.5377t-2.3585 5.3602-0.75042 6.6466v18.439q0 3.7521 0.64322 6.861 0.64322 3.1089 2.2513 5.3602 1.608 2.2513 4.1809 3.5377 2.5729 1.1792 6.4322 1.1792z"/>
    <path d="m80.034 153.43v-54.459h-1.9297l-7.0754 25.729h-13.508v-1.2864l9.0051-31.518h27.658v61.535h18.653v13.508h-54.03v-13.508z"/>
    <path d="m138.89 145.71q0 3.7521 2.6801 6.5394 2.7873 2.6801 8.5762 2.6801t9.1122-3.3233q3.4305-3.4305 3.4305-8.8978v-9.6483h-1.9296q-1.5008 3.7521-4.9313 6.1106-3.4305 2.2513-9.7555 2.2513-4.8241 0-9.005-1.7152-4.0737-1.8224-7.1826-5.0385-3.0017-3.2161-4.7169-7.7186-1.7152-4.5025-1.7152-9.9699v-1.2864q0-5.3602 1.9297-9.9699 1.9296-4.7169 5.3602-8.0402 3.5377-3.4305 8.469-5.3602 5.0385-1.9297 11.149-1.9297 5.5746 0 10.399 1.8225 4.9313 1.8225 8.469 5.1457 3.5377 3.2161 5.5746 7.8258 2.0369 4.5025 2.0369 9.9699v27.337q0 6.1106-2.0369 10.935-2.0369 4.8241-5.5746 8.1474-3.5377 3.3233-8.3618 5.1457-4.7169 1.7152-10.291 1.7152-5.4674 0-10.184-1.5008-4.7169-1.608-8.2546-4.5025-3.4305-3.0017-5.4674-7.1826-1.9296-4.1809-1.9296-9.5411zm11.256-41.809q-5.4674 0-9.005 3.3233-3.5377 3.2161-3.5377 8.6834 0 5.4674 3.5377 8.7906 3.5377 3.2161 9.005 3.2161t9.005-3.2161q3.5377-3.3233 3.5377-8.7906 0-5.4674-3.5377-8.6834-3.5377-3.3233-9.005-3.3233z"/>
   </g>
  </g>
 </g>
</svg>
