<?xml version="1.0" encoding="UTF-8"?>
<svg width="381mm" height="187.51mm" version="1.1" viewBox="0 0 381 187.51" xmlns="http://www.w3.org/2000/svg" xmlns:cc="http://creativecommons.org/ns#" xmlns:dc="http://purl.org/dc/elements/1.1/" xmlns:rdf="http://www.w3.org/1999/02/22-rdf-syntax-ns#">
 <defs>
  <linearGradient id="linearGradient856" x1="47.901" x2="47.901" y1="120.17" y2="130.53" gradientTransform="matrix(9.9307 0 0 9.9307 -286.97 -1151)" gradientUnits="userSpaceOnUse">
   <stop stop-color="gray" stop-opacity=".25" offset="0"/>
   <stop stop-color="gray" stop-opacity=".12" offset=".54"/>
   <stop stop-color="gray" stop-opacity=".1" offset="1"/>
  </linearGradient>
 </defs>
 <metadata>
  <rdf:RDF>
   <cc:Work rdf:about="">
    <dc:format>image/svg+xml</dc:format>
    <dc:type rdf:resource="http://purl.org/dc/dcmitype/StillImage"/>
   </cc:Work>
  </rdf:RDF>
 </metadata>
 <g fill="#3f3d56">
  <path d="m378.96 145.66c-0.67228-0.31501-1.8517 0.7114-2.907 2.4235l-3.2203-1.509c8e-3 -0.0166 7e-3 -0.0371 0.015-0.0537 0.10344-0.28556 0.19028-0.5789 0.29372-0.86446 0.11796-0.35973 0.24421-0.71557 0.34168-1.0748 0.0601-0.21474 0.10367-0.43727 0.1677-0.66032 0.11535-0.46218 0.21851-0.91994 0.30506-1.3855 0.0246-0.16054 0.0531-0.32938 0.0777-0.48992 0.0884-0.55579 0.15234-1.1028 0.19973-1.6575 0.0106-0.0659 0.0213-0.13176 0.0197-0.19322l2.8531 0.13239c0.24519 0.77282 0.94473 1.3537 1.8068 1.3932 1.1002 0.0499 2.0379-0.80634 2.0878-1.9065 0.0499-1.1002-0.80634-2.0378-1.9065-2.0878-0.86208-0.0396-1.6115 0.47976-1.9328 1.2301l-2.8531-0.13239c-2e-3 -0.0615-7e-3 -0.11463-4e-3 -0.16391 5e-3 -0.59468-0.0137-1.1806-0.0532-1.7659-0.012-0.14731-0.0195-0.28243-0.0315-0.42974-0.0418-0.51558-0.11244-1.0345-0.19083-1.5369-0.0291-0.17557-0.0498-0.34726-0.0789-0.52283-0.0945-0.48964-0.20113-0.97487-0.31998-1.4557-0.0451-0.16287-0.0698-0.32626-0.11495-0.48912-0.0132-0.0366-0.0143-0.0775-0.0275-0.11411l3.3397-1.2085c0.90253 1.7894 1.9772 2.9306 2.6758 2.6709 0.88978-0.32198 0.82824-2.7396-0.13769-5.409-0.96593-2.6694-2.4658-4.5665-3.3555-4.2446-0.69476 0.25141-0.79854 1.8122-0.347 3.7648l-3.3397 1.2085c-0.0348-0.077-0.0778-0.15793-0.12089-0.23884-0.0911-0.1945-0.19041-0.39289-0.28977-0.59128-0.19872-0.39677-0.40132-0.78525-0.61612-1.1693-0.10272-0.1696-0.19715-0.33531-0.29988-0.50491-0.2441-0.40792-0.50428-0.80313-0.77665-1.1939-0.0895-0.13303-0.18729-0.26996-0.28067-0.39469-0.30998-0.41855-0.63215-0.83268-0.9704-1.2341-0.0508-0.0643-0.10168-0.12862-0.15252-0.19293l2.1038-1.9192c0.72312 0.37933 1.6352 0.2905 2.2724-0.29156 0.81348-0.74237 0.87139-2.0109 0.12902-2.8243-0.74236-0.81348-2.0108-0.87139-2.8243-0.12902-0.63714 0.58206-0.803 1.4761-0.49686 2.2268l-2.1038 1.9192c-0.063-0.0599-0.12606-0.1198-0.18909-0.1797-0.34498-0.34385-0.69385-0.6794-1.0588-1.0022-0.14266-0.12758-0.28532-0.25516-0.44016-0.37833-0.32682-0.2746-0.66972-0.53649-1.0043-0.7945-0.20076-0.1548-0.40541-0.30131-0.61005-0.44781-0.28817-0.20588-0.588-0.38687-0.88395-0.57615-0.27493-0.16932-0.54597-0.34693-0.8248-0.50795-0.0542-0.0355-0.10011-0.0672-0.15821-0.0944l1.509-3.2203c1.9022 0.62814 3.4697 0.67434 3.7847 2e-3 0.40057-0.85487-1.356-2.5282-3.9206-3.7299-2.5646-1.2017-4.9745-1.4807-5.3751-0.62584-0.31502 0.67228 0.71139 1.8516 2.4235 2.907l-1.509 3.2203c-0.0166-8e-3 -0.0371-7e-3 -0.0537-0.015-0.28556-0.10344-0.57889-0.19028-0.86445-0.29372-0.35973-0.11796-0.71558-0.24421-1.0748-0.34168-0.21475-0.0601-0.43728-0.10368-0.66032-0.1677-0.46218-0.11535-0.92825-0.2224-1.3855-0.30506-0.16054-0.0246-0.32938-0.0531-0.48992-0.0777-0.5558-0.0884-1.1028-0.15234-1.6575-0.19973-0.0659-0.0106-0.12345-0.0174-0.19321-0.0197l0.13239-2.8531c0.77282-0.24519 1.3537-0.94473 1.3932-1.8068 0.0499-1.1002-0.80634-2.0378-1.9065-2.0878-1.1002-0.0499-2.0378 0.80634-2.0878 1.9065-0.0396 0.86208 0.47976 1.6115 1.2301 1.9328l-0.13239 2.8531c-0.0615 2e-3 -0.11463 7e-3 -0.16391 4e-3 -0.59469-5e-3 -1.1806 0.0136-1.7659 0.0532-0.14731 0.0119-0.28242 0.0195-0.42973 0.0314-0.51558 0.0418-1.0345 0.11244-1.5369 0.19083-0.17557 0.0291-0.34726 0.0499-0.52283 0.0789-0.48964 0.0945-0.97487 0.20113-1.4557 0.31998-0.16286 0.0452-0.32625 0.0698-0.48911 0.11496-0.0366 0.0132-0.0775 0.0143-0.11411 0.0275l-1.2085-3.3397c1.7894-0.90253 2.9306-1.9772 2.6709-2.6758-0.32198-0.88978-2.7396-0.82824-5.409 0.13769-2.6694 0.96593-4.5665 2.4658-4.2446 3.3555 0.25141 0.69476 1.8122 0.79854 3.7648 0.347l1.2085 3.3397c-0.077 0.0348-0.15793 0.0778-0.23884 0.12089-0.1945 0.0911-0.39289 0.19042-0.58298 0.29366-0.39677 0.19872-0.78525 0.40133-1.1732 0.62442-0.1696 0.10273-0.33531 0.19715-0.50491 0.29988-0.40792 0.2441-0.80313 0.50429-1.1978 0.78496-0.13303 0.0895-0.25777 0.18287-0.39469 0.28067-0.41855 0.30998-0.83268 0.63215-1.2341 0.97039-0.0643 0.0508-0.12862 0.10169-0.19293 0.15253l-1.9192-2.1038c0.37933-0.72312 0.29051-1.6352-0.29156-2.2724-0.74237-0.81347-2.0108-0.87139-2.8243-0.12902-0.81347 0.74237-0.87139 2.0108-0.12902 2.8243 0.58207 0.63714 1.4761 0.803 2.2268 0.49686l1.9192 2.1038c-0.0599 0.063-0.1115 0.12995-0.17581 0.18079-0.34385 0.34498-0.68329 0.70215-1.0061 1.0671-0.12757 0.14266-0.25515 0.28532-0.37443 0.43187-0.27461 0.32682-0.5448 0.66583-0.7984 1.0126-0.1548 0.20076-0.30131 0.4054-0.44781 0.61005-0.20588 0.28817-0.39906 0.59241-0.58004 0.89224-0.16932 0.27494-0.34304 0.53768-0.50406 0.8165-0.0355 0.0542-0.0711 0.10842-0.0944 0.15822l-3.2203-1.509c0.62814-1.9022 0.67435-3.4697 2e-3 -3.7847-0.85487-0.40058-2.5282 1.356-3.7299 3.9206-1.2017 2.5646-1.4807 4.9745-0.62584 5.3751 0.67228 0.31502 1.8516-0.71139 2.907-2.4235l3.2203 1.509c-8e-3 0.0166-7e-3 0.0371-0.015 0.0537-0.10344 0.28556-0.19858 0.575-0.28984 0.85615-0.11795 0.35973-0.2442 0.71558-0.34556 1.0831-0.0601 0.21475-0.10368 0.43728-0.16381 0.65203-0.11535 0.46217-0.2224 0.92824-0.30895 1.3938-0.0246 0.16054-0.0531 0.32938-0.0777 0.48992-0.0884 0.5558-0.15623 1.1111-0.19973 1.6575-0.0106 0.0659-0.0174 0.12345-0.0197 0.19321l-2.8531-0.13238c-0.24519-0.77283-0.94473-1.3537-1.8068-1.3932-1.1002-0.0499-2.0378 0.80634-2.0878 1.9065-0.0499 1.1002 0.80634 2.0378 1.9065 2.0878 0.86208 0.0396 1.6115-0.47976 1.9328-1.2301l2.8531 0.13239c-7e-3 0.0576 7e-3 0.11463 4e-3 0.16391-5e-3 0.59469 0.0137 1.1806 0.0532 1.7659 0.012 0.14731 0.0195 0.28243 0.0353 0.42144 0.0501 0.51946 0.11244 1.0345 0.19525 1.5491 0.0291 0.17557 0.0498 0.34726 0.0828 0.51454 0.0906 0.49793 0.19724 0.98316 0.32439 1.4679 0.0369 0.15897 0.0698 0.32625 0.11885 0.48081 0.0132 0.0366 0.0143 0.0776 0.0275 0.11411l-3.3397 1.2085c-0.90252-1.7894-1.9772-2.9306-2.6758-2.6709-0.88978 0.32198-0.82824 2.7396 0.13769 5.409 0.96592 2.6693 2.4657 4.5665 3.3555 4.2446 0.69476-0.2514 0.79855-1.8122 0.34701-3.7648l3.3397-1.2085c0.0348 0.077 0.0778 0.15793 0.12089 0.23885 0.0911 0.19449 0.19431 0.38458 0.28537 0.57908 0.19871 0.39678 0.40132 0.78525 0.62441 1.1732 0.0944 0.16571 0.19716 0.33531 0.29988 0.50491 0.24411 0.40792 0.51259 0.80702 0.78496 1.1978 0.0895 0.13304 0.18287 0.25777 0.28067 0.39469 0.30998 0.41855 0.63215 0.83268 0.97039 1.2341 0.0508 0.0643 0.0934 0.12473 0.14423 0.18904l-2.1038 1.9192c-0.72312-0.37933-1.6352-0.2905-2.2724 0.29157-0.81347 0.74237-0.87139 2.0108-0.12902 2.8243 0.74237 0.81348 2.0108 0.8714 2.8243 0.12903 0.63714-0.58207 0.803-1.4761 0.49686-2.2268l2.1038-1.9192c0.063 0.0599 0.12995 0.1115 0.18079 0.17581 0.34498 0.34385 0.70215 0.68329 1.0671 1.0061 0.14266 0.12758 0.28532 0.25516 0.43187 0.37444 0.32682 0.2746 0.66582 0.5448 1.0126 0.79839 0.20076 0.15481 0.4054 0.30131 0.61005 0.44781 0.28817 0.20589 0.59241 0.39906 0.89224 0.58004 0.27493 0.16932 0.53768 0.34305 0.8165 0.50406 0.0542 0.0355 0.10842 0.0711 0.15822 0.0944l-1.509 3.2203c-1.9022-0.62814-3.4697-0.67434-3.7847-2e-3 -0.40058 0.85487 1.356 2.5282 3.9206 3.7299 2.5646 1.2017 4.9745 1.4807 5.3751 0.62584 0.31501-0.67227-0.7114-1.8516-2.4235-2.907l1.509-3.2203c0.0166 8e-3 0.0371 7e-3 0.0537 0.015 0.28556 0.10344 0.57501 0.19858 0.86446 0.29372 0.35973 0.11795 0.71557 0.2442 1.0831 0.34556 0.21475 0.0601 0.43728 0.10368 0.65203 0.16382 0.46218 0.11534 0.92824 0.22239 1.3938 0.30895 0.16054 0.0246 0.32938 0.0531 0.48992 0.0777 0.5558 0.0884 1.1028 0.15235 1.6575 0.19973 0.0659 0.0106 0.12345 0.0174 0.19322 0.0197l-0.13239 2.8531c-0.77283 0.24519-1.3537 0.94474-1.3932 1.8068-0.0499 1.1002 0.80634 2.0378 1.9065 2.0878 1.1002 0.0499 2.0378-0.80634 2.0878-1.9065 0.0396-0.86208-0.47976-1.6115-1.2301-1.9328l0.13238-2.8531c0.0615-2e-3 0.11464-7e-3 0.16391-4e-3 0.59469 5e-3 1.1806-0.0137 1.7659-0.0532 0.14731-0.0119 0.28243-0.0195 0.42974-0.0314 0.51558-0.0418 1.0345-0.11245 1.5369-0.19084 0.17558-0.0291 0.34726-0.0498 0.52284-0.0789 0.48964-0.0945 0.97486-0.20113 1.4557-0.31998 0.16287-0.0451 0.32625-0.0698 0.48912-0.11496 0.0366-0.0132 0.0775-0.0143 0.11411-0.0275l1.2085 3.3397c-1.7894 0.90252-2.9306 1.9772-2.6709 2.6758 0.32197 0.88978 2.7396 0.82824 5.409-0.13769 2.6693-0.96593 4.5665-2.4658 4.2446-3.3555-0.2514-0.69476-1.8122-0.79854-3.7648-0.347l-1.2085-3.3397c0.077-0.0348 0.15793-0.0778 0.23884-0.12089 0.1945-0.0911 0.39289-0.19042 0.58297-0.29366 0.39678-0.19872 0.78526-0.40133 1.1732-0.62442 0.1696-0.10273 0.33531-0.19715 0.50491-0.29988 0.40792-0.2441 0.80314-0.50428 1.1939-0.77665 0.13303-0.0895 0.26606-0.17899 0.39469-0.28067 0.41854-0.30999 0.83268-0.63215 1.2341-0.9704 0.0643-0.0508 0.12863-0.10168 0.19294-0.15253l1.9192 2.1038c-0.37933 0.72312-0.2905 1.6352 0.29157 2.2724 0.74237 0.81347 2.0108 0.87139 2.8243 0.12902 0.81348-0.74237 0.8714-2.0108 0.12903-2.8243-0.58207-0.63714-1.4761-0.80299-2.2268-0.49686l-1.9192-2.1038c0.0599-0.063 0.1198-0.12606 0.17971-0.18909 0.34384-0.34498 0.67939-0.69385 1.0061-1.0671 0.12758-0.14266 0.25516-0.28532 0.37833-0.44017 0.2746-0.32682 0.5365-0.66971 0.79839-1.0126 0.15481-0.20076 0.30131-0.4054 0.44781-0.61005 0.20589-0.28816 0.38687-0.588 0.57615-0.88394 0.16932-0.27493 0.34694-0.54598 0.50795-0.8248 0.0355-0.0542 0.0672-0.10012 0.0944-0.15822l3.2203 1.509c-0.62814 1.9022-0.67434 3.4697-2e-3 3.7847 0.85487 0.40058 2.5282-1.356 3.7299-3.9206 1.2017-2.5646 1.4441-4.9613 0.58928-5.3619z"/>
  <path d="m326.78 58.965c-1.0811-0.50657-2.9776 1.144-4.6746 3.8972l-5.1785-2.4265c0.0125-0.02669 0.0117-0.05964 0.0242-0.08633 0.16634-0.4592 0.30599-0.93091 0.47233-1.3901 0.18968-0.57848 0.3927-1.1507 0.54943-1.7284 0.0967-0.34533 0.16673-0.70318 0.26969-1.0619 0.18549-0.74322 0.35137-1.4793 0.49056-2.228 0.0396-0.25816 0.0854-0.52967 0.12501-0.78783 0.14209-0.89377 0.24498-1.7734 0.32118-2.6654 0.0171-0.10593 0.0342-0.21187 0.0317-0.31071l4.588 0.21289c0.39429 1.2428 1.5192 2.1768 2.9055 2.2404 1.7692 0.08024 3.277-1.2967 3.3573-3.0658 0.0802-1.7692-1.2967-3.277-3.0658-3.3573-1.3863-0.06362-2.5915 0.7715-3.108 1.9781l-4.588-0.21289c-3e-3 -0.09884-0.0113-0.18434-7e-3 -0.26358 9e-3 -0.95631-0.022-1.8984-0.0855-2.8397-0.0192-0.23688-0.0313-0.45417-0.0506-0.69105-0.0673-0.82909-0.18081-1.6636-0.30688-2.4714-0.0467-0.28234-0.0802-0.55842-0.1269-0.84076-0.15192-0.78738-0.32343-1.5677-0.51455-2.3409-0.0726-0.2619-0.11226-0.52464-0.18487-0.78654-0.0213-0.0588-0.0229-0.1247-0.0442-0.1835l5.3706-1.9434c1.4513 2.8775 3.1794 4.7127 4.3029 4.2951 1.4308-0.51776 1.3319-4.4055-0.22142-8.6981s-3.9651-7.3434-5.396-6.8256c-1.1172 0.40428-1.2841 2.9141-0.55801 6.054l-5.3706 1.9434c-0.0559-0.12386-0.12515-0.25397-0.1944-0.38408-0.14643-0.31277-0.30621-0.63179-0.46598-0.95082-0.31955-0.63805-0.64536-1.2628-0.99077-1.8804-0.16519-0.27273-0.31703-0.53921-0.48223-0.81194-0.39254-0.65597-0.81093-1.2915-1.2489-1.9199-0.14392-0.21393-0.30118-0.43411-0.45134-0.63469-0.49848-0.67306-1.0166-1.339-1.5605-1.9845-0.0818-0.10342-0.16352-0.20684-0.24527-0.31025l3.3831-3.0863c1.1628 0.60999 2.6296 0.46715 3.6542-0.46886 1.3081-1.1938 1.4013-3.2336 0.20747-4.5418-1.1938-1.3081-3.2336-1.4013-4.5418-0.20748-1.0246 0.93601-1.2913 2.3736-0.79899 3.5809l-3.3831 3.0863c-0.10136-0.09633-0.20272-0.19265-0.30408-0.28898-0.55476-0.55294-1.1158-1.0925-1.7026-1.6117-0.22941-0.20516-0.45881-0.41032-0.70782-0.60838-0.52555-0.44159-1.077-0.86274-1.615-1.2776-0.32283-0.24894-0.65192-0.48453-0.98101-0.72012-0.46339-0.33108-0.94555-0.62211-1.4214-0.9265-0.44211-0.27228-0.87797-0.5579-1.3263-0.81682-0.0872-0.05712-0.161-0.10799-0.25443-0.15177l2.4265-5.1785c3.0588 1.0101 5.5795 1.0844 6.0861 0.0033 0.64416-1.3747-2.1805-4.0656-6.3046-5.998-4.1241-1.9325-7.9994-2.3811-8.6436-1.0064-0.50657 1.0811 1.144 2.9776 3.8972 4.6746l-2.4265 5.1785c-0.0267-0.01251-0.0596-0.01167-0.0863-0.02418-0.4592-0.16634-0.93091-0.30599-1.3901-0.47233-0.57848-0.18968-1.1507-0.3927-1.7284-0.54944-0.34533-0.09671-0.70317-0.16672-1.0619-0.26969-0.74321-0.18548-1.4927-0.35762-2.228-0.49056-0.25816-0.03958-0.52967-0.08542-0.78783-0.12501-0.89377-0.14209-1.7734-0.24498-2.6654-0.32118-0.10593-0.01708-0.19852-0.02792-0.31071-0.03165l0.21289-4.588c1.2428-0.39429 2.1768-1.5192 2.2404-2.9055 0.0802-1.7692-1.2967-3.277-3.0658-3.3573-1.7692-0.080245-3.277 1.2967-3.3573 3.0658-0.0636 1.3863 0.77149 2.5915 1.9781 3.108l-0.21289 4.588c-0.0988 0.0025-0.18434 0.01129-0.26358 0.0067-0.95631-0.0086-1.8984 0.02195-2.8397 0.08548-0.23688 0.01922-0.45417 0.03134-0.69105 0.05056-0.8291 0.06726-1.6636 0.18082-2.4714 0.30688-0.28234 0.04675-0.55843 0.08015-0.84077 0.1269-0.78738 0.15192-1.5677 0.32344-2.3408 0.51455-0.2619 0.0726-0.52464 0.11226-0.78654 0.18486-0.0588 0.02128-0.1247 0.02296-0.1835 0.04423l-1.9432-5.3705c2.8775-1.4513 4.7127-3.1794 4.2951-4.3029-0.51777-1.4308-4.4055-1.3319-8.6981 0.22142-4.2925 1.5533-7.3434 3.9651-6.8256 5.396 0.40428 1.1172 2.9141 1.2841 6.054 0.55801l1.9434 5.3706c-0.12386 0.0559-0.25397 0.12515-0.38408 0.1944-0.31277 0.14643-0.63179 0.30621-0.93747 0.47224-0.63805 0.31955-1.2628 0.64536-1.8866 1.0041-0.27273 0.16519-0.5392 0.31704-0.81193 0.48223-0.65598 0.39254-1.2915 0.81093-1.9262 1.2623-0.21393 0.14391-0.41451 0.29408-0.6347 0.45134-0.67305 0.49847-1.339 1.0165-1.9845 1.5605-0.10342 0.08176-0.20684 0.16351-0.31025 0.24527l-3.0863-3.3831c0.60999-1.1628 0.46715-2.6296-0.46886-3.6542-1.1938-1.3081-3.2336-1.4013-4.5418-0.20748-1.3081 1.1938-1.4013 3.2336-0.20748 4.5418 0.93601 1.0246 2.3736 1.2913 3.5809 0.79899l3.0863 3.3831c-0.0963 0.10136-0.17931 0.20897-0.28273 0.29073-0.55293 0.55476-1.0988 1.1291-1.6179 1.716-0.20516 0.22941-0.41032 0.45882-0.60213 0.69448-0.44159 0.52555-0.87608 1.0707-1.2839 1.6284-0.24894 0.32284-0.48453 0.65192-0.72012 0.98101-0.33108 0.46339-0.64171 0.95264-0.93275 1.4348-0.27227 0.44212-0.55164 0.86463-0.81057 1.313-0.0571 0.08717-0.11425 0.17434-0.15177 0.25442l-5.1785-2.4265c1.0101-3.0588 1.0844-5.5795 3e-3 -6.0861-1.3747-0.64416-4.0656 2.1805-5.998 6.3046-1.9325 4.1241-2.3811 7.9994-1.0064 8.6436 1.0811 0.50657 2.9776-1.144 4.6746-3.8972l5.1785 2.4265c-0.0125 0.02669-0.0117 0.05964-0.0242 0.08633-0.16634 0.4592-0.31934 0.92466-0.46608 1.3768-0.18968 0.57848-0.3927 1.1507-0.55569 1.7417-0.0967 0.34533-0.16672 0.70318-0.26343 1.0485-0.18549 0.74322-0.35763 1.4927-0.49682 2.2413-0.0396 0.25816-0.0854 0.52967-0.12501 0.78783-0.14209 0.89377-0.25123 1.7867-0.32117 2.6654-0.0171 0.10593-0.0279 0.19852-0.0317 0.31071l-4.588-0.21289c-0.39429-1.2428-1.5192-2.1768-2.9055-2.2404-1.7692-0.08024-3.277 1.2967-3.3573 3.0658-0.0803 1.7692 1.2967 3.277 3.0658 3.3573 1.3863 0.06362 2.5915-0.7715 3.108-1.9781l4.588 0.21289c-0.0108 0.09259 0.0113 0.18434 7e-3 0.26358-9e-3 0.95631 0.022 1.8984 0.0855 2.8397 0.0192 0.23688 0.0314 0.45417 0.0568 0.6777 0.0806 0.83535 0.18081 1.6636 0.31397 2.491 0.0468 0.28234 0.0802 0.55842 0.13315 0.82742 0.14567 0.80072 0.31719 1.581 0.52165 2.3605 0.0593 0.25565 0.11226 0.52464 0.19112 0.77319 0.0213 0.0588 0.023 0.1247 0.0442 0.1835l-5.3706 1.9434c-1.4513-2.8775-3.1794-4.7127-4.3029-4.2951-1.4308 0.51776-1.3319 4.4055 0.22141 8.6981 1.5533 4.2925 3.9651 7.3434 5.396 6.8256 1.1172-0.40428 1.2841-2.9141 0.55801-6.054l5.3706-1.9434c0.0559 0.12386 0.12515 0.25397 0.1944 0.38408 0.14643 0.31277 0.31246 0.61845 0.45889 0.93122 0.31955 0.63805 0.64536 1.2628 1.0041 1.8866 0.15185 0.26648 0.31704 0.53921 0.48223 0.81194 0.39254 0.65597 0.82428 1.2978 1.2623 1.9262 0.14391 0.21393 0.29408 0.41451 0.45134 0.63469 0.49847 0.67306 1.0166 1.339 1.5605 1.9845 0.0818 0.10342 0.15017 0.20058 0.23193 0.304l-3.3831 3.0863c-1.1628-0.60999-2.6296-0.46715-3.6542 0.46886-1.3081 1.1938-1.4013 3.2336-0.20748 4.5418s3.2336 1.4013 4.5418 0.20748c1.0246-0.93601 1.2913-2.3736 0.799-3.5809l3.3831-3.0863c0.10136 0.09633 0.20897 0.1793 0.29073 0.28272 0.55476 0.55294 1.1291 1.0988 1.716 1.6179 0.22941 0.20516 0.45882 0.41032 0.69448 0.60213 0.52555 0.44159 1.0707 0.87608 1.6284 1.2839 0.32284 0.24894 0.65193 0.48453 0.98101 0.72012 0.4634 0.33108 0.95265 0.64171 1.4348 0.93275 0.44212 0.27228 0.86463 0.55164 1.313 0.81057 0.0872 0.05712 0.17434 0.11425 0.25442 0.15177l-2.4265 5.1785c-3.0588-1.0101-5.5795-1.0844-6.0861-0.0033-0.64415 1.3747 2.1805 4.0656 6.3046 5.998 4.1241 1.9325 7.9994 2.3811 8.6436 1.0064 0.50657-1.0811-1.144-2.9776-3.8972-4.6746l2.4265-5.1785c0.0267 0.01251 0.0596 0.01167 0.0863 0.02418 0.4592 0.16634 0.92465 0.31933 1.3901 0.47233 0.57849 0.18968 1.1507 0.3927 1.7417 0.55569 0.34534 0.09671 0.70318 0.16672 1.0485 0.26343 0.74322 0.18548 1.4927 0.35762 2.2413 0.49682 0.25816 0.03958 0.52967 0.08542 0.78783 0.12501 0.89377 0.14209 1.7734 0.24498 2.6654 0.32118 0.10594 0.01708 0.19853 0.02791 0.31071 0.03165l-0.21289 4.588c-1.2428 0.39429-2.1768 1.5192-2.2404 2.9055-0.0802 1.7692 1.2967 3.277 3.0658 3.3573 1.7692 0.08025 3.277-1.2967 3.3573-3.0658 0.0636-1.3863-0.7715-2.5915-1.9781-3.108l0.21289-4.588c0.0989-0.0025 0.18434-0.01129 0.26358-0.0067 0.95631 0.0086 1.8984-0.02195 2.8397-0.08548 0.23689-0.01922 0.45417-0.03134 0.69106-0.05056 0.82909-0.06726 1.6636-0.18082 2.4714-0.30688 0.28234-0.04675 0.55842-0.08015 0.84076-0.1269 0.78738-0.15192 1.5677-0.32344 2.3409-0.51455 0.2619-0.0726 0.52463-0.11226 0.78653-0.18486 0.0588-0.02128 0.1247-0.02296 0.1835-0.04423l1.9434 5.3706c-2.8775 1.4513-4.7127 3.1794-4.2951 4.3029 0.51776 1.4308 4.4055 1.3319 8.698-0.22142 4.2925-1.5533 7.3434-3.9651 6.8256-5.396-0.40428-1.1172-2.9141-1.2841-6.054-0.55801l-1.9434-5.3706c0.12386-0.0559 0.25397-0.12515 0.38408-0.1944 0.31277-0.14643 0.6318-0.30621 0.93747-0.47224 0.63805-0.31955 1.2628-0.64536 1.8866-1.0041 0.27273-0.16519 0.53921-0.31704 0.81194-0.48223 0.65597-0.39254 1.2915-0.81093 1.9199-1.2489 0.21393-0.14391 0.42786-0.28783 0.63469-0.45134 0.67306-0.49847 1.339-1.0165 1.9846-1.5605 0.10342-0.08176 0.20684-0.16351 0.31025-0.24527l3.0863 3.3831c-0.60999 1.1628-0.46715 2.6296 0.46886 3.6542 1.1938 1.3081 3.2336 1.4013 4.5418 0.20748s1.4013-3.2336 0.20748-4.5418c-0.93601-1.0246-2.3736-1.2913-3.5809-0.79899l-3.0863-3.3831c0.0963-0.10136 0.19265-0.20272 0.28898-0.30407 0.55294-0.55476 1.0925-1.1158 1.6179-1.716 0.20516-0.22941 0.41032-0.45882 0.60839-0.70783 0.44158-0.52555 0.86273-1.077 1.2839-1.6284 0.24894-0.32284 0.48453-0.65192 0.72012-0.98101 0.33107-0.46339 0.62211-0.94555 0.92649-1.4215 0.27228-0.44212 0.5579-0.87798 0.81683-1.3263 0.0571-0.08717 0.10799-0.161 0.15177-0.25442l5.1785 2.4265c-1.0101 3.0588-1.0844 5.5795-3e-3 6.0861 1.3747 0.64416 4.0656-2.1805 5.998-6.3046 1.9325-4.1241 2.3223-7.9782 0.9476-8.6223z"/>
  <path d="m133.62 63.02c-1.7079-0.1737-3.4973 2.9676-4.4919 7.5104l-8.1809-0.83205c4e-3 -0.04217-0.0125-0.08648-8e-3 -0.12865 8e-3 -0.70223-0.0271-1.4088-0.0196-2.111-0.0175-0.8752-0.0139-1.7483-0.0757-2.6067-0.0329-0.51461-0.10791-1.0335-0.13864-1.5692-0.10148-1.0968-0.22619-2.1746-0.39307-3.2567-0.069-0.36916-0.13579-0.75941-0.20476-1.1286-0.23192-1.2805-0.5103-2.523-0.83085-3.7699-0.0271-0.15188-0.0543-0.30377-0.1047-0.43671l6.3276-1.8915c1.1257 1.4992 3.0962 2.2322 5.0078 1.6597 2.4391-0.73187 3.831-3.3171 3.0992-5.7561s-3.3171-3.831-5.7561-3.0992c-1.9116 0.57249-3.1502 2.2786-3.2778 4.1615l-6.3276 1.8915c-0.0504-0.13294-0.10292-0.2448-0.13436-0.35451-0.44277-1.3019-0.932-2.5659-1.4655-3.8132-0.13865-0.31234-0.25837-0.60146-0.39702-0.9138-0.4853-1.0932-1.036-2.1718-1.591-3.2081-0.19762-0.36095-0.37416-0.71975-0.57178-1.0807-0.58036-0.99636-1.184-1.9738-1.8108-2.9322-0.22299-0.32092-0.40167-0.65864-0.62467-0.97956-0.0568-0.06969-0.0904-0.15832-0.14723-0.228l6.3648-5.1897c3.3371 3.2153 6.5545 4.8846 7.8807 3.7839 1.6957-1.3826-0.28618-6.6117-4.4341-11.699-4.148-5.0872-8.8709-8.0813-10.567-6.6987-1.3241 1.0796-0.35777 4.565 2.1198 8.4811l-6.3648 5.1897c-0.13473-0.14152-0.29054-0.28518-0.44635-0.42885-0.34736-0.35487-0.71581-0.71189-1.0842-1.0689-0.73689-0.71403-1.4759-1.407-2.2382-2.081-0.35379-0.29162-0.6865-0.58109-1.0403-0.87271-0.84446-0.70367-1.7143-1.3673-2.6074-2.012-0.29697-0.22193-0.61503-0.446-0.91415-0.64685-0.99634-0.67651-2.0159-1.3341-3.0609-1.9516-0.1601-0.10149-0.3202-0.20299-0.4803-0.30448l3.1246-5.7962c1.868 0.2752 3.7906-0.61571 4.7363-2.3729 1.2079-2.2418 0.36493-5.0543-1.8768-6.2622-2.2418-1.2079-5.0543-0.36493-6.2622 1.8768-0.94562 1.7572-0.62437 3.8349 0.61748 5.2394l-3.1246 5.7962c-0.18333-0.08255-0.36666-0.16511-0.54999-0.24766-1.0156-0.48675-2.0334-0.95241-3.0766-1.3781-0.40883-0.1694-0.81766-0.3388-1.2497-0.48925-0.92308-0.34952-1.8715-0.65901-2.7989-0.96636-0.55642-0.18441-1.115-0.34773-1.6736-0.51106-0.78621-0.22908-1.5789-0.39491-2.3694-0.58182-0.72939-0.1594-1.4566-0.33988-2.1882-0.47818-0.14545-0.0361-0.26981-0.07005-0.41741-0.08506l0.83176-8.1809c4.6312-0.08286 8.0873-1.1799 8.261-2.8878 0.22088-2.1717-4.8913-4.4811-11.406-5.1438-6.5152-0.66264-11.988 0.57023-12.209 2.742-0.1737 1.7079 2.9676 3.4973 7.5104 4.4919l-0.83205 8.1809c-0.04217-0.0043-0.08648 0.01251-0.12865 0.0082-0.70223-0.0075-1.4088 0.02715-2.111 0.01963-0.8752 0.0175-1.7483 0.01392-2.6067 0.07573-0.51461 0.03287-1.0335 0.10792-1.5692 0.13864-1.0968 0.10148-2.1957 0.22405-3.2567 0.39307-0.36916 0.06897-0.75941 0.13579-1.1286 0.20476-1.2805 0.23192-2.523 0.5103-3.7699 0.83084-0.15188 0.02716-0.28268 0.05646-0.43671 0.1047l-1.8915-6.3276c1.4992-1.1257 2.2322-3.0962 1.6597-5.0078-0.73187-2.4391-3.3171-3.831-5.7561-3.0992-2.4391 0.73187-3.831 3.3171-3.0992 5.7561 0.57249 1.9116 2.2786 3.1502 4.1615 3.2778l1.8915 6.3276c-0.13294 0.05039-0.2448 0.10292-0.35451 0.13437-1.3019 0.44277-2.5659 0.932-3.8132 1.4655-0.31234 0.13866-0.60146 0.25837-0.9138 0.39703-1.0932 0.4853-2.1718 1.036-3.2081 1.591-0.36095 0.19762-0.71975 0.37416-1.0807 0.57178-0.99636 0.58036-1.9738 1.1839-2.9322 1.8108-0.32092 0.223-0.65864 0.40168-0.97956 0.62467-0.06969 0.05682-0.15832 0.09041-0.228 0.14723l-5.1897-6.3648c3.2153-3.3371 4.8846-6.5545 3.7839-7.8807-1.3826-1.6957-6.6117 0.28618-11.699 4.4341s-8.0813 8.8709-6.6987 10.567c1.0796 1.3241 4.565 0.35778 8.4811-2.1198l5.1897 6.3648c-0.14152 0.13473-0.28518 0.29054-0.42885 0.44635-0.35487 0.34736-0.71189 0.7158-1.0478 1.0864-0.71403 0.73689-1.407 1.4759-2.0831 2.2593-0.29162 0.35379-0.58109 0.6865-0.87271 1.0403-0.70367 0.84446-1.3673 1.7143-2.0142 2.6284-0.22193 0.29697-0.42278 0.59609-0.64685 0.91415-0.67651 0.99634-1.3341 2.0159-1.9516 3.0609l-0.30448 0.4803-5.7962-3.1246c0.2752-1.868-0.61571-3.7906-2.3729-4.7363-2.2418-1.2079-5.0543-0.36493-6.2622 1.8768-1.2079 2.2418-0.36493 5.0543 1.8768 6.2622 1.7572 0.94562 3.8349 0.62437 5.2394-0.61748l5.7962 3.1246c-0.08255 0.18333-0.14402 0.3688-0.24552 0.52891-0.48675 1.0156-0.95456 2.0545-1.3802 3.0977-0.1694 0.40883-0.3388 0.81766-0.48711 1.2286-0.34952 0.92308-0.6801 1.8694-0.9685 2.82-0.18441 0.55642-0.34773 1.115-0.51106 1.6736-0.22908 0.78621-0.41814 1.5978-0.58397 2.3904-0.1594 0.72939-0.33773 1.4356-0.47604 2.1671-0.0361 0.14545-0.07219 0.2909-0.08506 0.41741l-8.1809-0.83205c-0.082859-4.6312-1.1799-8.0873-2.8878-8.261-2.1717-0.22088-4.4811 4.8913-5.1438 11.406s0.57023 11.988 2.742 12.209c1.7079 0.1737 3.4973-2.9676 4.4919-7.5104l8.1809 0.83205c-0.0043 0.04217 0.01251 0.08648 0.0082 0.12865-0.0075 0.70223 0.0061 1.4066 0.02178 2.0899 0.0175 0.8752 0.01392 1.7483 0.07359 2.6277 0.03287 0.51461 0.10792 1.0335 0.14079 1.5481 0.10148 1.0968 0.22405 2.1957 0.39093 3.2778 0.06897 0.36916 0.13579 0.75941 0.20476 1.1286 0.23192 1.2805 0.50815 2.5441 0.83084 3.7699 0.02716 0.15188 0.05646 0.28268 0.1047 0.43671l-6.3276 1.8915c-1.1257-1.4992-3.0962-2.2322-5.0078-1.6597-2.4391 0.73187-3.831 3.3171-3.0992 5.7561 0.73187 2.4391 3.3171 3.831 5.7561 3.0992 1.9116-0.57249 3.1502-2.2786 3.2778-4.1615l6.3276-1.8915c0.0293 0.1308 0.10292 0.2448 0.13437 0.35451 0.44277 1.3019 0.93199 2.5659 1.4655 3.8132 0.13866 0.31234 0.25837 0.60146 0.39917 0.89272 0.50638 1.0953 1.036 2.1718 1.6099 3.2314 0.19762 0.36095 0.37416 0.71975 0.57392 1.0596 0.57821 1.0174 1.1818 1.9949 1.8297 2.9555 0.20191 0.31878 0.40168 0.65864 0.62682 0.95847 0.05682 0.06969 0.09041 0.15832 0.14723 0.228l-6.3648 5.1897c-3.3371-3.2153-6.5545-4.8846-7.8807-3.7839-1.6957 1.3826 0.28618 6.6117 4.4341 11.699 4.1479 5.0872 8.8709 8.0813 10.567 6.6987 1.3241-1.0796 0.35778-4.565-2.1198-8.4811l6.3648-5.1897c0.13473 0.14152 0.29054 0.28519 0.44635 0.42885 0.34736 0.35488 0.71795 0.69081 1.0653 1.0457 0.73689 0.71403 1.4759 1.407 2.2593 2.0831 0.33271 0.28947 0.6865 0.58109 1.0403 0.87271 0.84446 0.70367 1.7354 1.3695 2.6284 2.0142 0.29697 0.22194 0.59609 0.42278 0.91415 0.64686 0.99634 0.67651 2.0159 1.3341 3.0609 1.9516 0.1601 0.10149 0.29912 0.20084 0.45922 0.30234l-3.1246 5.7962c-1.868-0.2752-3.7906 0.6157-4.7363 2.3729-1.2079 2.2418-0.36493 5.0543 1.8768 6.2622 2.2418 1.2079 5.0543 0.36493 6.2622-1.8768 0.94562-1.7572 0.62437-3.8349-0.61748-5.2394l3.1246-5.7962c0.18333 0.0826 0.3688 0.14403 0.5289 0.24552 1.0156 0.48675 2.0545 0.95456 3.0977 1.3802 0.40883 0.1694 0.81766 0.3388 1.2286 0.48711 0.92308 0.34952 1.8694 0.6801 2.82 0.9685 0.55642 0.18441 1.115 0.34774 1.6736 0.51106 0.78621 0.22909 1.5978 0.41814 2.3904 0.58397 0.72939 0.1594 1.4356 0.33773 2.1671 0.47604 0.14545 0.0361 0.2909 0.0722 0.41741 0.0851l-0.83205 8.1809c-4.6312 0.0829-8.0873 1.18-8.261 2.8878-0.22088 2.1717 4.8913 4.4811 11.406 5.1438 6.5152 0.66264 11.988-0.57023 12.209-2.742 0.1737-1.7079-2.9676-3.4973-7.5104-4.4919l0.83205-8.1809c0.04217 4e-3 0.08648-0.0125 0.12865-8e-3 0.70223 8e-3 1.4066-6e-3 2.111-0.0196 0.8752-0.0175 1.7483-0.0139 2.6277-0.0736 0.51461-0.0329 1.0335-0.10792 1.5481-0.14079 1.0968-0.10148 2.1957-0.22405 3.2778-0.39093 0.36916-0.069 0.75941-0.13579 1.1286-0.20476 1.2805-0.23192 2.523-0.5103 3.7699-0.83084 0.15188-0.0272 0.28268-0.0565 0.43671-0.10471l1.8915 6.3276c-1.4992 1.1257-2.2322 3.0962-1.6597 5.0078 0.73187 2.4391 3.3171 3.831 5.7561 3.0992 2.4391-0.73187 3.831-3.3171 3.0992-5.7561-0.57249-1.9116-2.2786-3.1502-4.1615-3.2778l-1.8915-6.3276c0.13294-0.0504 0.2448-0.10292 0.35451-0.13437 1.3019-0.44277 2.5659-0.932 3.8132-1.4655 0.31234-0.13865 0.60146-0.25837 0.9138-0.39703 1.0932-0.48529 2.1718-1.036 3.2081-1.591 0.36095-0.19763 0.71975-0.37416 1.0807-0.57178 0.99636-0.58036 1.9738-1.184 2.9322-1.8108 0.32092-0.22299 0.65864-0.40168 0.97956-0.62467 0.06969-0.0568 0.15832-0.0904 0.228-0.14724l5.1897 6.3648c-3.2153 3.3371-4.8846 6.5545-3.7839 7.8807 1.3826 1.6957 6.6117-0.28618 11.699-4.4341 5.0872-4.1479 8.0813-8.8709 6.6987-10.567-1.0796-1.3241-4.565-0.35778-8.4811 2.1198l-5.1897-6.3648c0.14152-0.13472 0.28519-0.29054 0.42885-0.44635 0.35487-0.34736 0.71189-0.7158 1.0478-1.0864 0.71404-0.73689 1.407-1.4759 2.0831-2.2593 0.29162-0.35379 0.58109-0.6865 0.87271-1.0403 0.70367-0.84446 1.3673-1.7143 2.012-2.6074 0.22193-0.29697 0.44386-0.59394 0.64685-0.91415 0.67651-0.99634 1.3341-2.0159 1.9516-3.0609 0.1015-0.1601 0.20299-0.3202 0.30449-0.4803l5.7962 3.1246c-0.27519 1.868 0.61571 3.7906 2.3729 4.7363 2.2418 1.2079 5.0543 0.36493 6.2622-1.8768 1.2079-2.2418 0.36493-5.0543-1.8768-6.2622-1.7572-0.94562-3.8349-0.62437-5.2394 0.61748l-5.7962-3.1246c0.0826-0.18333 0.16511-0.36666 0.24767-0.54999 0.48675-1.0156 0.95241-2.0334 1.3802-3.0977 0.16939-0.40883 0.33879-0.81766 0.48925-1.2497 0.34952-0.92308 0.65901-1.8715 0.9685-2.82 0.18441-0.55642 0.34774-1.115 0.51106-1.6736 0.22908-0.78621 0.39491-1.5789 0.58183-2.3694 0.15939-0.72939 0.33987-1.4566 0.47818-2.1882 0.0361-0.14545 0.0701-0.26981 0.0851-0.41741l8.1809 0.83205c0.0829 4.6312 1.18 8.0873 2.8878 8.261 2.1717 0.22088 4.4811-4.8913 5.1438-11.406 0.66263-6.5152-0.63992-11.931-2.8117-12.152z"/>
  <path d="m246.67 156.29c-0.94147-0.44115-2.5931 0.99625-4.071 3.3939l-4.5098-2.1132c0.0109-0.0232 0.0102-0.0519 0.0211-0.0752 0.14486-0.3999 0.26648-0.8107 0.41134-1.2106 0.16518-0.50378 0.34199-1.0021 0.47848-1.5052 0.0842-0.30074 0.1452-0.61237 0.23486-0.92473 0.16154-0.64724 0.306-1.2883 0.42722-1.9403 0.0345-0.22482 0.0744-0.46127 0.10886-0.68609 0.12374-0.77835 0.21335-1.5444 0.2797-2.3212 0.0149-0.0923 0.0298-0.18451 0.0276-0.27059l3.9956 0.1854c0.34337 1.0823 1.323 1.8957 2.5303 1.9511 1.5407 0.0699 2.8539-1.1292 2.9237-2.6699 0.0699-1.5407-1.1292-2.8538-2.6699-2.9237-1.2073-0.0554-2.2568 0.67186-2.7067 1.7227l-3.9956-0.1854c-2e-3 -0.0861-0.01-0.16053-6e-3 -0.22954 8e-3 -0.83282-0.0191-1.6533-0.0744-2.473-0.0167-0.20629-0.0273-0.39552-0.044-0.60181-0.0586-0.72203-0.15747-1.4488-0.26725-2.1523-0.0407-0.24588-0.0698-0.48632-0.11052-0.7322-0.1323-0.68569-0.28166-1.3652-0.4481-2.0386-0.0632-0.22808-0.0978-0.45689-0.161-0.68497-0.0185-0.0512-0.02-0.1086-0.0385-0.1598l4.677-1.6924c1.2639 2.5059 2.7689 4.1041 3.7473 3.7404 1.2461-0.4509 1.1599-3.8366-0.19282-7.5748-1.3527-3.7382-3.4531-6.3951-4.6992-5.9442-0.97295 0.35208-1.1183 2.5378-0.48595 5.2722l-4.677 1.6924c-0.0487-0.10786-0.10899-0.22117-0.16929-0.33448-0.12752-0.27238-0.26667-0.55021-0.40581-0.82803-0.27829-0.55566-0.56202-1.0997-0.86282-1.6375-0.14386-0.23752-0.2761-0.46958-0.41996-0.70709-0.34185-0.57127-0.70621-1.1247-1.0876-1.672-0.12533-0.18631-0.26229-0.37806-0.39306-0.55274-0.4341-0.58614-0.88528-1.1661-1.359-1.7283-0.0712-0.0901-0.14239-0.18012-0.21359-0.27019l2.9462-2.6877c1.0127 0.53122 2.29 0.40683 3.1823-0.40831 1.1392-1.0396 1.2203-2.816 0.18069-3.9553-1.0396-1.1392-2.816-1.2203-3.9552-0.18068-0.89227 0.81514-1.1245 2.0671-0.69582 3.1185l-2.9462 2.6877c-0.0883-0.0839-0.17654-0.16778-0.26481-0.25166-0.48312-0.48153-0.97168-0.95144-1.4828-1.4036-0.19978-0.17866-0.39956-0.35733-0.61642-0.52982-0.45768-0.38456-0.93788-0.75132-1.4064-1.1126-0.28115-0.21679-0.56774-0.42195-0.85433-0.62712-0.40356-0.28832-0.82345-0.54178-1.2379-0.80686-0.38503-0.23711-0.7646-0.48585-1.1551-0.71134-0.0759-0.0498-0.14021-0.094-0.22157-0.13217l2.1132-4.5098c2.6638 0.87965 4.859 0.94436 5.3002 3e-3 0.56097-1.1972-1.8989-3.5406-5.4905-5.2235-3.5915-1.6829-6.9664-2.0736-7.5274-0.87643-0.44116 0.94147 0.99625 2.5931 3.3939 4.071l-2.1132 4.5098c-0.0233-0.0109-0.0519-0.0102-0.0752-0.0211-0.3999-0.14486-0.81069-0.26647-1.2106-0.41133-0.50378-0.16519-1.0021-0.342-1.5052-0.47849-0.30074-0.0842-0.61237-0.14519-0.92474-0.23486-0.64724-0.16153-1.2999-0.31144-1.9403-0.42721-0.22482-0.0345-0.46127-0.0744-0.68609-0.10887-0.77835-0.12374-1.5444-0.21334-2.3212-0.2797-0.0923-0.0149-0.17289-0.0243-0.27059-0.0276l0.1854-3.9956c1.0823-0.34337 1.8957-1.323 1.9511-2.5303 0.0699-1.5407-1.1292-2.8538-2.6699-2.9237-1.5407-0.0699-2.8538 1.1292-2.9237 2.6699-0.0554 1.2073 0.67187 2.2568 1.7227 2.7067l-0.1854 3.9956c-0.0861 2e-3 -0.16053 0.01-0.22954 6e-3 -0.83282-8e-3 -1.6533 0.0191-2.473 0.0744-0.20629 0.0167-0.39552 0.0273-0.60181 0.044-0.72203 0.0586-1.4488 0.15747-2.1523 0.26725-0.24588 0.0407-0.48632 0.0698-0.73219 0.11052-0.6857 0.13229-1.3652 0.28166-2.0386 0.4481-0.22808 0.0632-0.45689 0.0978-0.68497 0.16099-0.0512 0.0185-0.10859 0.02-0.1598 0.0385l-1.6924-4.677c2.5059-1.2639 4.1041-2.7689 3.7404-3.7473-0.4509-1.2461-3.8366-1.1599-7.5748 0.19282s-6.3951 3.4531-5.9442 4.6992c0.35207 0.97296 2.5378 1.1183 5.2722 0.48595l1.6924 4.677c-0.10786 0.0487-0.22117 0.10899-0.33448 0.16929-0.27238 0.12752-0.55021 0.26667-0.81641 0.41126-0.55565 0.27829-1.0997 0.56202-1.643 0.87444-0.23751 0.14386-0.46957 0.2761-0.70708 0.41996-0.57127 0.34185-1.1247 0.70621-1.6775 1.0993-0.1863 0.12533-0.36098 0.25611-0.55273 0.39306-0.58615 0.4341-1.1661 0.88527-1.7283 1.359-0.0901 0.0712-0.18013 0.1424-0.27019 0.2136l-2.6877-2.9462c0.53121-1.0127 0.40682-2.29-0.40832-3.1823-1.0396-1.1392-2.816-1.2203-3.9552-0.18069s-1.2203 2.816-0.18068 3.9552c0.81514 0.89227 2.0671 1.1245 3.1185 0.69582l2.6877 2.9462c-0.0839 0.0883-0.15615 0.18198-0.24621 0.25318-0.48154 0.48312-0.95689 0.98331-1.409 1.4944-0.17867 0.19978-0.35733 0.39956-0.52438 0.60479-0.38456 0.45769-0.76295 0.93244-1.1181 1.4181-0.21679 0.28114-0.42195 0.56773-0.62712 0.85432-0.28832 0.40356-0.55885 0.82963-0.8123 1.2495-0.23711 0.38502-0.48041 0.75298-0.7059 1.1434-0.0497 0.0759-0.0995 0.15184-0.13217 0.22157l-4.5098-2.1132c0.87966-2.6638 0.94437-4.859 3e-3 -5.3002-1.1972-0.56097-3.5406 1.8989-5.2235 5.4905-1.6829 3.5915-2.0736 6.9664-0.87644 7.5274 0.94147 0.44115 2.5931-0.99625 4.071-3.3939l4.5098 2.1132c-0.0109 0.0232-0.0102 0.0519-0.0211 0.0752-0.14486 0.3999-0.2781 0.80525-0.40589 1.199-0.16518 0.50378-0.34199 1.0021-0.48393 1.5168-0.0842 0.30074-0.14519 0.61237-0.22941 0.91311-0.16154 0.64724-0.31145 1.2999-0.43266 1.9519-0.0345 0.22483-0.0744 0.46128-0.10887 0.6861-0.12374 0.77835-0.21879 1.556-0.2797 2.3212-0.0149 0.0923-0.0243 0.17288-0.0276 0.27058l-3.9956-0.1854c-0.34337-1.0823-1.323-1.8957-2.5303-1.9511-1.5407-0.0699-2.8538 1.1292-2.9237 2.6699-0.0699 1.5407 1.1292 2.8538 2.6699 2.9237 1.2073 0.0554 2.2568-0.67187 2.7067-1.7227l3.9956 0.1854c-9e-3 0.0806 0.01 0.16053 6e-3 0.22954-8e-3 0.83281 0.0191 1.6533 0.0744 2.473 0.0167 0.20629 0.0273 0.39551 0.0495 0.59019 0.0702 0.72747 0.15747 1.4488 0.27343 2.1693 0.0407 0.24588 0.0698 0.48631 0.11596 0.72057 0.12685 0.69732 0.27622 1.3768 0.45428 2.0556 0.0516 0.22263 0.0978 0.45689 0.16644 0.67334 0.0185 0.0512 0.02 0.10859 0.0385 0.1598l-4.677 1.6924c-1.2639-2.5059-2.7689-4.1041-3.7473-3.7404-1.2461 0.45091-1.1599 3.8366 0.19282 7.5748 1.3527 3.7382 3.4531 6.3951 4.6992 5.9442 0.97296-0.35208 1.1183-2.5378 0.48596-5.2722l4.677-1.6924c0.0487 0.10786 0.10899 0.22117 0.1693 0.33448 0.12752 0.27238 0.27211 0.53858 0.39963 0.81096 0.27829 0.55566 0.56202 1.0997 0.87445 1.643 0.13223 0.23207 0.27609 0.46958 0.41995 0.70709 0.34185 0.57126 0.71784 1.1302 1.0993 1.6775 0.12533 0.1863 0.25611 0.36098 0.39306 0.55273 0.4341 0.58614 0.88527 1.1661 1.359 1.7283 0.0712 0.0901 0.13078 0.17468 0.20198 0.26474l-2.9462 2.6877c-1.0127-0.53122-2.29-0.40683-3.1823 0.40831-1.1392 1.0396-1.2203 2.816-0.18068 3.9552s2.816 1.2203 3.9552 0.18069c0.89226-0.81514 1.1245-2.0671 0.69581-3.1185l2.9463-2.6877c0.0883 0.0839 0.18198 0.15615 0.25318 0.24621 0.48312 0.48153 0.98331 0.95689 1.4944 1.409 0.19978 0.17867 0.39957 0.35733 0.6048 0.52437 0.45768 0.38457 0.93243 0.76295 1.4181 1.1181 0.28114 0.21679 0.56774 0.42196 0.85433 0.62713 0.40355 0.28832 0.82962 0.55884 1.2495 0.8123 0.38502 0.23711 0.75298 0.4804 1.1434 0.70589 0.0759 0.0497 0.15183 0.0995 0.22157 0.13218l-2.1132 4.5098c-2.6638-0.87966-4.859-0.94436-5.3002-3e-3 -0.56097 1.1972 1.8989 3.5406 5.4905 5.2235 3.5915 1.6829 6.9664 2.0736 7.5274 0.87644 0.44115-0.94147-0.99625-2.5931-3.3939-4.071l2.1132-4.5098c0.0232 0.0109 0.0519 0.0102 0.0752 0.0211 0.3999 0.14486 0.80525 0.27809 1.2106 0.41133 0.50377 0.16518 1.0021 0.34199 1.5168 0.48393 0.30074 0.0842 0.61237 0.1452 0.91311 0.22942 0.64724 0.16153 1.2999 0.31144 1.9519 0.43266 0.22482 0.0345 0.46127 0.0744 0.68609 0.10886 0.77835 0.12374 1.5444 0.21334 2.3212 0.2797 0.0922 0.0149 0.17288 0.0243 0.27058 0.0276l-0.1854 3.9956c-1.0823 0.34338-1.8957 1.323-1.9511 2.5303-0.0699 1.5407 1.1292 2.8539 2.6699 2.9237 1.5407 0.0699 2.8539-1.1292 2.9237-2.6699 0.0554-1.2073-0.67187-2.2568-1.7227-2.7067l0.1854-3.9956c0.0861-2e-3 0.16053-0.01 0.22954-6e-3 0.83281 8e-3 1.6533-0.0191 2.473-0.0744 0.2063-0.0167 0.39552-0.0273 0.60182-0.044 0.72203-0.0586 1.4488-0.15746 2.1523-0.26725 0.24588-0.0407 0.48631-0.0698 0.73219-0.11051 0.6857-0.1323 1.3652-0.28167 2.0386-0.44811 0.22808-0.0632 0.45689-0.0978 0.68497-0.16099 0.0512-0.0185 0.10859-0.02 0.1598-0.0385l1.6924 4.677c-2.5059 1.2639-4.1041 2.7689-3.7404 3.7473 0.4509 1.2461 3.8366 1.1599 7.5748-0.19283s6.3951-3.4531 5.9442-4.6992c-0.35208-0.97295-2.5378-1.1183-5.2722-0.48595l-1.6924-4.677c0.10787-0.0487 0.22118-0.109 0.33449-0.1693 0.27238-0.12752 0.5502-0.26667 0.81641-0.41126 0.55565-0.27828 1.0997-0.56202 1.643-0.87444 0.23751-0.14386 0.46958-0.2761 0.70709-0.41996 0.57126-0.34185 1.1247-0.70621 1.672-1.0876 0.18631-0.12533 0.37261-0.25065 0.55274-0.39305 0.58614-0.43411 1.1661-0.88528 1.7283-1.359 0.0901-0.0712 0.18013-0.1424 0.27019-0.2136l2.6877 2.9462c-0.53122 1.0127-0.40683 2.29 0.40831 3.1823 1.0396 1.1392 2.816 1.2203 3.9552 0.18068s1.2203-2.816 0.18069-3.9552c-0.81514-0.89226-2.0671-1.1245-3.1185-0.69581l-2.6877-2.9463c0.0839-0.0883 0.16777-0.17653 0.25166-0.2648 0.48153-0.48312 0.95144-0.97169 1.409-1.4944 0.17867-0.19979 0.35733-0.39957 0.52982-0.61643 0.38456-0.45768 0.75133-0.93788 1.1181-1.4181 0.21679-0.28114 0.42196-0.56773 0.62712-0.85433 0.28833-0.40355 0.54178-0.82344 0.80686-1.2379 0.23711-0.38502 0.48585-0.7646 0.71134-1.1551 0.0497-0.0759 0.0941-0.1402 0.13217-0.22157l4.5098 2.1132c-0.87966 2.6638-0.94436 4.859-3e-3 5.3002 1.1972 0.56097 3.5406-1.8989 5.2235-5.4905 1.6829-3.5915 2.0224-6.9479 0.82523-7.5089z"/>
 </g>
 <g fill="url(#linearGradient856)" stroke-width=".26458px" aria-label="2020">
  <path d="m106.34 125.51v17.798h-69.498v-19.493q0-7.7691 2.2601-13.278 2.4014-5.509 6.6391-9.323 4.379-3.8139 10.453-6.2153 6.0741-2.5426 13.702-4.2377 5.6503-1.2713 9.1817-2.8251 3.6727-1.6951 5.7915-3.6727 2.1189-2.1189 2.8251-4.5202 0.84754-2.5426 0.84754-5.6503 0-5.9328-4.379-9.888-4.2377-3.9552-11.866-3.9552-8.0516 0-12.854 4.944-4.8027 4.8027-4.8027 13.419v6.2153h-18.646v-7.9104q0-6.9216 2.4014-13.137 2.5426-6.3566 7.0628-11.018 4.6615-4.8027 11.301-7.4866 6.6391-2.8251 14.973-2.8251 8.8992 0 15.538 2.6839 6.6391 2.5426 11.018 6.7803 4.5202 4.2377 6.6391 9.888 2.2601 5.509 2.2601 11.442v1.6951q0 12.431-7.0628 20.624-6.9216 8.1929-22.742 11.866-6.6391 1.5538-11.018 3.2489-4.2377 1.5538-6.6391 3.5314-2.4014 1.9776-3.3902 4.379-0.84754 2.2601-0.84754 5.2265v1.6951z"/>
  <path d="m145.47 93.871q0-4.8027 3.5314-8.3342 3.5314-3.5314 8.3342-3.5314t8.3342 3.5314q3.5314 3.5314 3.5314 8.3342 0 4.8027-3.5314 8.3342-3.5314 3.5314-8.3342 3.5314t-8.3342-3.5314q-3.5314-3.5314-3.5314-8.3342zm-24.579-11.018q0-19.211 9.6055-29.805 9.7467-10.594 26.839-10.594t26.698 10.594q9.7467 10.594 9.7467 29.805v22.036q0 19.776-9.7467 30.088-9.6055 10.312-26.698 10.312t-26.839-10.312q-9.6055-10.312-9.6055-30.088zm36.444 45.485q5.0852 0 8.4754-1.5538 3.3902-1.6951 5.509-4.6615 2.1189-2.9664 2.9664-7.0628 0.84754-4.0965 0.84754-9.0404v-24.296q0-4.6615-0.9888-8.7579t-3.1076-7.0628q-2.1189-2.9664-5.509-4.6615-3.3902-1.8363-8.1929-1.8363t-8.1929 1.8363q-3.3902 1.6951-5.509 4.6615-2.1188 2.9664-3.1076 7.0628t-0.9888 8.7579v24.296q0 4.944 0.84754 9.0404 0.84754 4.0964 2.9664 7.0628 2.1188 2.9664 5.509 4.6615 3.3902 1.5538 8.4754 1.5538z"/>
  <path d="m279.24 125.51v17.798h-69.498v-19.493q0-7.7691 2.2601-13.278 2.4014-5.509 6.6391-9.323 4.379-3.8139 10.453-6.2153 6.074-2.5426 13.702-4.2377 5.6503-1.2713 9.1817-2.8251 3.6727-1.6951 5.7915-3.6727 2.1189-2.1189 2.8251-4.5202 0.84754-2.5426 0.84754-5.6503 0-5.9328-4.379-9.888-4.2377-3.9552-11.866-3.9552-8.0516 0-12.854 4.944-4.8027 4.8027-4.8027 13.419v6.2153h-18.646v-7.9104q0-6.9216 2.4014-13.137 2.5426-6.3566 7.0628-11.018 4.6615-4.8027 11.301-7.4866 6.6391-2.8251 14.973-2.8251 8.8992 0 15.538 2.6839 6.6391 2.5426 11.018 6.7803 4.5202 4.2377 6.6391 9.888 2.2601 5.509 2.2601 11.442v1.6951q0 12.431-7.0628 20.624-6.9216 8.1929-22.742 11.866-6.6391 1.5538-11.018 3.2489-4.2377 1.5538-6.6391 3.5314-2.4014 1.9776-3.3902 4.379-0.84754 2.2601-0.84754 5.2265v1.6951z"/>
  <path d="m318.37 93.871q0-4.8027 3.5314-8.3342 3.5314-3.5314 8.3342-3.5314t8.3342 3.5314q3.5314 3.5314 3.5314 8.3342 0 4.8027-3.5314 8.3342-3.5314 3.5314-8.3342 3.5314t-8.3342-3.5314q-3.5314-3.5314-3.5314-8.3342zm-24.579-11.018q0-19.211 9.6055-29.805 9.7467-10.594 26.839-10.594 17.092 0 26.698 10.594 9.7467 10.594 9.7467 29.805v22.036q0 19.776-9.7467 30.088-9.6055 10.312-26.698 10.312-17.092 0-26.839-10.312-9.6055-10.312-9.6055-30.088zm36.444 45.485q5.0852 0 8.4754-1.5538 3.3902-1.6951 5.509-4.6615 2.1189-2.9664 2.9664-7.0628 0.84754-4.0965 0.84754-9.0404v-24.296q0-4.6615-0.9888-8.7579t-3.1076-7.0628q-2.1189-2.9664-5.509-4.6615-3.3902-1.8363-8.1929-1.8363t-8.1929 1.8363q-3.3902 1.6951-5.509 4.6615-2.1189 2.9664-3.1077 7.0628t-0.9888 8.7579v24.296q0 4.944 0.84755 9.0404 0.84754 4.0964 2.9664 7.0628 2.1189 2.9664 5.509 4.6615 3.3902 1.5538 8.4754 1.5538z"/>
 </g>
 <g fill="#38bc24" stroke-width=".26458px" aria-label="2020">
  <path d="m101.09 130.77v17.798h-69.498v-19.493q0-7.7691 2.2601-13.278 2.4014-5.509 6.6391-9.323 4.379-3.8139 10.453-6.2153 6.0741-2.5426 13.702-4.2377 5.6503-1.2713 9.1817-2.8251 3.6727-1.6951 5.7915-3.6727 2.1189-2.1189 2.8251-4.5202 0.84754-2.5426 0.84754-5.6503 0-5.9328-4.379-9.888-4.2377-3.9552-11.866-3.9552-8.0516 0-12.854 4.944-4.8027 4.8027-4.8027 13.419v6.2153h-18.646v-7.9104q0-6.9216 2.4014-13.137 2.5426-6.3566 7.0629-11.018 4.6615-4.8027 11.301-7.4866 6.6391-2.8251 14.973-2.8251 8.8992 0 15.538 2.6839 6.6391 2.5426 11.018 6.7803 4.5202 4.2377 6.6391 9.888 2.2601 5.509 2.2601 11.442v1.6951q0 12.431-7.0628 20.624-6.9216 8.1929-22.742 11.866-6.6391 1.5538-11.018 3.2489-4.2377 1.5538-6.6391 3.5314t-3.3902 4.379q-0.84754 2.2601-0.84754 5.2265v1.6951z"/>
  <path d="m140.22 99.126q0-4.8027 3.5314-8.3342 3.5314-3.5314 8.3342-3.5314t8.3342 3.5314q3.5314 3.5314 3.5314 8.3342 0 4.8027-3.5314 8.3342-3.5314 3.5314-8.3342 3.5314t-8.3342-3.5314q-3.5314-3.5314-3.5314-8.3342zm-24.579-11.018q0-19.211 9.6055-29.805 9.7467-10.594 26.839-10.594 17.092 0 26.698 10.594 9.7467 10.594 9.7467 29.805v22.036q0 19.776-9.7467 30.088-9.6055 10.312-26.698 10.312-17.092 0-26.839-10.312-9.6055-10.312-9.6055-30.088zm36.444 45.485q5.0853 0 8.4754-1.5538 3.3902-1.6951 5.509-4.6615 2.1188-2.9664 2.9664-7.0628 0.84755-4.0964 0.84755-9.0404v-24.296q0-4.6615-0.9888-8.7579t-3.1077-7.0628q-2.1188-2.9664-5.509-4.6615-3.3902-1.8363-8.1929-1.8363t-8.1929 1.8363q-3.3902 1.6951-5.509 4.6615-2.1188 2.9664-3.1076 7.0628t-0.9888 8.7579v24.296q0 4.944 0.84754 9.0404t2.9664 7.0628q2.1188 2.9664 5.509 4.6615 3.3902 1.5538 8.4754 1.5538z"/>
  <path d="m273.99 130.77v17.798h-69.498v-19.493q0-7.7691 2.2601-13.278 2.4014-5.509 6.6391-9.323 4.379-3.8139 10.453-6.2153 6.074-2.5426 13.702-4.2377 5.6503-1.2713 9.1817-2.8251 3.6727-1.6951 5.7915-3.6727 2.1188-2.1189 2.8251-4.5202 0.84754-2.5426 0.84754-5.6503 0-5.9328-4.379-9.888-4.2377-3.9552-11.866-3.9552-8.0516 0-12.854 4.944-4.8027 4.8027-4.8027 13.419v6.2153h-18.646v-7.9104q0-6.9216 2.4014-13.137 2.5426-6.3566 7.0628-11.018 4.6615-4.8027 11.301-7.4866 6.6391-2.8251 14.973-2.8251 8.8992 0 15.538 2.6839 6.6391 2.5426 11.018 6.7803 4.5202 4.2377 6.6391 9.888 2.2601 5.509 2.2601 11.442v1.6951q0 12.431-7.0628 20.624-6.9216 8.1929-22.742 11.866-6.6391 1.5538-11.018 3.2489-4.2377 1.5538-6.6391 3.5314t-3.3902 4.379q-0.84754 2.2601-0.84754 5.2265v1.6951z"/>
  <path d="m313.12 99.126q0-4.8027 3.5314-8.3342 3.5314-3.5314 8.3342-3.5314t8.3342 3.5314q3.5314 3.5314 3.5314 8.3342 0 4.8027-3.5314 8.3342-3.5314 3.5314-8.3342 3.5314t-8.3342-3.5314q-3.5314-3.5314-3.5314-8.3342zm-24.579-11.018q0-19.211 9.6055-29.805 9.7467-10.594 26.839-10.594t26.698 10.594q9.7467 10.594 9.7467 29.805v22.036q0 19.776-9.7467 30.088-9.6055 10.312-26.698 10.312t-26.839-10.312q-9.6055-10.312-9.6055-30.088zm36.444 45.485q5.0852 0 8.4754-1.5538 3.3902-1.6951 5.509-4.6615 2.1189-2.9664 2.9664-7.0628t0.84754-9.0404v-24.296q0-4.6615-0.9888-8.7579t-3.1076-7.0628q-2.1189-2.9664-5.509-4.6615-3.3902-1.8363-8.1929-1.8363t-8.1929 1.8363q-3.3902 1.6951-5.509 4.6615-2.1188 2.9664-3.1076 7.0628t-0.9888 8.7579v24.296q0 4.944 0.84754 9.0404t2.9664 7.0628q2.1188 2.9664 5.509 4.6615 3.3902 1.5538 8.4754 1.5538z"/>
 </g>
</svg>
