<?xml version="1.0" encoding="UTF-8"?>
<svg width="381mm" height="187.51mm" version="1.1" viewBox="0 0 381 187.51" xmlns="http://www.w3.org/2000/svg" xmlns:cc="http://creativecommons.org/ns#" xmlns:dc="http://purl.org/dc/elements/1.1/" xmlns:rdf="http://www.w3.org/1999/02/22-rdf-syntax-ns#">
 <defs>
  <linearGradient id="linearGradient856" x1="47.901" x2="47.901" y1="120.17" y2="130.53" gradientTransform="matrix(9.9307 0 0 9.9307 -286.97 -1151)" gradientUnits="userSpaceOnUse">
   <stop stop-color="gray" stop-opacity=".25" offset="0"/>
   <stop stop-color="gray" stop-opacity=".12" offset=".54"/>
   <stop stop-color="gray" stop-opacity=".1" offset="1"/>
  </linearGradient>
 </defs>
 <metadata>
  <rdf:RDF>
   <cc:Work rdf:about="">
    <dc:format>image/svg+xml</dc:format>
    <dc:type rdf:resource="http://purl.org/dc/dcmitype/StillImage"/>
   </cc:Work>
  </rdf:RDF>
 </metadata>
 <g fill="#3f3d56" stroke-linecap="round" stroke-linejoin="round">
  <ellipse transform="rotate(-17.146)" cx="48.335" cy="66.809" rx="67.368" ry="47.552" stroke-dasharray="1.85208, 0.926042" stroke-width=".92604"/>
  <ellipse transform="rotate(21.805)" cx="162.75" cy="85.105" rx="30.268" ry="41.469" stroke-dasharray="1.85208, 0.926041" stroke-width=".92604"/>
  <ellipse transform="rotate(9.3183)" cx="273.73" cy="3.4236" rx="67.368" ry="35.418" stroke-dasharray="1.85208, 0.926042" stroke-width=".92604"/>
  <ellipse cx="298.38" cy="144.64" rx="39.368" ry="37.848" stroke-dasharray="1.85208, 0.92604" stroke-width=".92604"/>
 </g>
 <g fill="url(#linearGradient856)" stroke-width=".26458px" aria-label="2021">
  <path d="m106.34 125.51v17.798h-69.498v-19.493q0-7.7691 2.2601-13.278 2.4014-5.509 6.6391-9.323 4.379-3.8139 10.453-6.2153 6.0741-2.5426 13.702-4.2377 5.6503-1.2713 9.1817-2.8251 3.6727-1.6951 5.7915-3.6727 2.1189-2.1189 2.8251-4.5202 0.84754-2.5426 0.84754-5.6503 0-5.9328-4.379-9.888-4.2377-3.9552-11.866-3.9552-8.0516 0-12.854 4.944-4.8027 4.8027-4.8027 13.419v6.2153h-18.646v-7.9104q0-6.9216 2.4014-13.137 2.5426-6.3566 7.0628-11.018 4.6615-4.8027 11.301-7.4866 6.6391-2.8251 14.973-2.8251 8.8992 0 15.538 2.6839 6.6391 2.5426 11.018 6.7803 4.5202 4.2377 6.6391 9.888 2.2601 5.509 2.2601 11.442v1.6951q0 12.431-7.0628 20.624-6.9216 8.1929-22.742 11.866-6.6391 1.5538-11.018 3.2489-4.2377 1.5538-6.6391 3.5314-2.4014 1.9776-3.3902 4.379-0.84754 2.2601-0.84754 5.2265v1.6951z"/>
  <path d="m145.47 93.871q0-4.8027 3.5314-8.3342 3.5314-3.5314 8.3342-3.5314t8.3342 3.5314q3.5314 3.5314 3.5314 8.3342 0 4.8027-3.5314 8.3342-3.5314 3.5314-8.3342 3.5314t-8.3342-3.5314q-3.5314-3.5314-3.5314-8.3342zm-24.579-11.018q0-19.211 9.6055-29.805 9.7467-10.594 26.839-10.594t26.698 10.594q9.7467 10.594 9.7467 29.805v22.036q0 19.776-9.7467 30.088-9.6055 10.312-26.698 10.312t-26.839-10.312q-9.6055-10.312-9.6055-30.088zm36.444 45.485q5.0852 0 8.4754-1.5538 3.3902-1.6951 5.509-4.6615 2.1189-2.9664 2.9664-7.0628 0.84754-4.0965 0.84754-9.0404v-24.296q0-4.6615-0.9888-8.7579t-3.1076-7.0628q-2.1189-2.9664-5.509-4.6615-3.3902-1.8363-8.1929-1.8363t-8.1929 1.8363q-3.3902 1.6951-5.509 4.6615-2.1188 2.9664-3.1076 7.0628t-0.9888 8.7579v24.296q0 4.944 0.84754 9.0404 0.84754 4.0964 2.9664 7.0628 2.1188 2.9664 5.509 4.6615 3.3902 1.5538 8.4754 1.5538z"/>
  <path d="m279.24 125.51v17.798h-69.498v-19.493q0-7.7691 2.2601-13.278 2.4014-5.509 6.6391-9.323 4.379-3.8139 10.453-6.2153 6.074-2.5426 13.702-4.2377 5.6503-1.2713 9.1817-2.8251 3.6727-1.6951 5.7915-3.6727 2.1189-2.1189 2.8251-4.5202 0.84754-2.5426 0.84754-5.6503 0-5.9328-4.379-9.888-4.2377-3.9552-11.866-3.9552-8.0516 0-12.854 4.944-4.8027 4.8027-4.8027 13.419v6.2153h-18.646v-7.9104q0-6.9216 2.4014-13.137 2.5426-6.3566 7.0628-11.018 4.6615-4.8027 11.301-7.4866 6.6391-2.8251 14.973-2.8251 8.8992 0 15.538 2.6839 6.6391 2.5426 11.018 6.7803 4.5202 4.2377 6.6391 9.888 2.2601 5.509 2.2601 11.442v1.6951q0 12.431-7.0628 20.624-6.9216 8.1929-22.742 11.866-6.6391 1.5538-11.018 3.2489-4.2377 1.5538-6.6391 3.5314-2.4014 1.9776-3.3902 4.379-0.84754 2.2601-0.84754 5.2265v1.6951z"/>
  <path d="m324.3 125.51v-71.759h-2.5426l-9.323 33.902h-17.798v-1.6951l11.866-41.53h36.444v81.082h24.579v17.798h-71.194v-17.798z"/>
 </g>
 <g fill="#38bc24" stroke-width=".26458px" aria-label="2021">
  <path d="m101.09 130.77v17.798h-69.498v-19.493q0-7.7691 2.2601-13.278 2.4014-5.509 6.6391-9.323 4.379-3.8139 10.453-6.2153 6.0741-2.5426 13.702-4.2377 5.6503-1.2713 9.1817-2.8251 3.6727-1.6951 5.7915-3.6727 2.1189-2.1189 2.8251-4.5202 0.84754-2.5426 0.84754-5.6503 0-5.9328-4.379-9.888-4.2377-3.9552-11.866-3.9552-8.0516 0-12.854 4.944-4.8027 4.8027-4.8027 13.419v6.2153h-18.646v-7.9104q0-6.9216 2.4014-13.137 2.5426-6.3566 7.0629-11.018 4.6615-4.8027 11.301-7.4866 6.6391-2.8251 14.973-2.8251 8.8992 0 15.538 2.6839 6.6391 2.5426 11.018 6.7803 4.5202 4.2377 6.6391 9.888 2.2601 5.509 2.2601 11.442v1.6951q0 12.431-7.0628 20.624-6.9216 8.1929-22.742 11.866-6.6391 1.5538-11.018 3.2489-4.2377 1.5538-6.6391 3.5314t-3.3902 4.379q-0.84754 2.2601-0.84754 5.2265v1.6951z"/>
  <path d="m140.22 99.126q0-4.8027 3.5314-8.3342 3.5314-3.5314 8.3342-3.5314t8.3342 3.5314q3.5314 3.5314 3.5314 8.3342 0 4.8027-3.5314 8.3342-3.5314 3.5314-8.3342 3.5314t-8.3342-3.5314q-3.5314-3.5314-3.5314-8.3342zm-24.579-11.018q0-19.211 9.6055-29.805 9.7467-10.594 26.839-10.594 17.092 0 26.698 10.594 9.7467 10.594 9.7467 29.805v22.036q0 19.776-9.7467 30.088-9.6055 10.312-26.698 10.312-17.092 0-26.839-10.312-9.6055-10.312-9.6055-30.088zm36.444 45.485q5.0853 0 8.4754-1.5538 3.3902-1.6951 5.509-4.6615 2.1188-2.9664 2.9664-7.0628 0.84755-4.0964 0.84755-9.0404v-24.296q0-4.6615-0.9888-8.7579t-3.1077-7.0628q-2.1188-2.9664-5.509-4.6615-3.3902-1.8363-8.1929-1.8363t-8.1929 1.8363q-3.3902 1.6951-5.509 4.6615-2.1188 2.9664-3.1076 7.0628t-0.9888 8.7579v24.296q0 4.944 0.84754 9.0404t2.9664 7.0628q2.1188 2.9664 5.509 4.6615 3.3902 1.5538 8.4754 1.5538z"/>
  <path d="m273.99 130.77v17.798h-69.498v-19.493q0-7.7691 2.2601-13.278 2.4014-5.509 6.6391-9.323 4.379-3.8139 10.453-6.2153 6.074-2.5426 13.702-4.2377 5.6503-1.2713 9.1817-2.8251 3.6727-1.6951 5.7915-3.6727 2.1188-2.1189 2.8251-4.5202 0.84754-2.5426 0.84754-5.6503 0-5.9328-4.379-9.888-4.2377-3.9552-11.866-3.9552-8.0516 0-12.854 4.944-4.8027 4.8027-4.8027 13.419v6.2153h-18.646v-7.9104q0-6.9216 2.4014-13.137 2.5426-6.3566 7.0628-11.018 4.6615-4.8027 11.301-7.4866 6.6391-2.8251 14.973-2.8251 8.8992 0 15.538 2.6839 6.6391 2.5426 11.018 6.7803 4.5202 4.2377 6.6391 9.888 2.2601 5.509 2.2601 11.442v1.6951q0 12.431-7.0628 20.624-6.9216 8.1929-22.742 11.866-6.6391 1.5538-11.018 3.2489-4.2377 1.5538-6.6391 3.5314t-3.3902 4.379q-0.84754 2.2601-0.84754 5.2265v1.6951z"/>
  <path d="m319.05 130.77v-71.759h-2.5426l-9.323 33.902h-17.798v-1.6951l11.866-41.53h36.444v81.082h24.579v17.798h-71.194v-17.798z"/>
 </g>
</svg>
