<?xml version="1.0" standalone="no"?>
<!DOCTYPE svg PUBLIC "-//W3C//DTD SVG 20010904//EN"
 "http://www.w3.org/TR/2001/REC-SVG-20010904/DTD/svg10.dtd">
<svg version="1.0" xmlns="http://www.w3.org/2000/svg"
 width="700.000000pt" height="700.000000pt" viewBox="0 0 700.000000 700.000000"
 preserveAspectRatio="xMidYMid meet">
<metadata>
Created by potrace 1.11, written by Peter Selinger 2001-2013
</metadata>
<g transform="translate(0.000000,700.000000) scale(0.100000,-0.100000)"
fill="#000000" stroke="none">
<path d="M1462 6555 c-9 -12 -8 -2162 1 -2171 7 -8 855 -9 862 -2 3 3 5 298 5
657 l0 651 803 0 802 0 30 -45 c91 -137 282 -161 412 -51 17 15 45 53 61 86
26 50 30 69 27 123 -3 79 -31 144 -81 193 -127 122 -341 95 -430 -55 l-18 -31
-912 0 -911 0 0 -651 c0 -446 -3 -653 -11 -657 -13 -9 -404 -8 -418 0 -7 5
-12 1668 -5 1734 1 7 545 10 1858 10 l1857 -1 1 -2109 c0 -1488 -3 -2113 -11
-2120 -6 -6 -26 -22 -46 -35 -67 -46 -107 -128 -108 -223 -1 -200 213 -333
393 -244 60 29 95 64 130 130 32 61 31 174 -3 239 -23 46 -72 98 -116 123 -19
11 -19 53 -21 2215 -1 1212 -2 2213 -2 2224 l-1 21 -2071 0 c-1408 0 -2072 -4
-2077 -11z m2771 -666 c36 -19 57 -52 57 -92 0 -99 -140 -135 -185 -47 -26 50
-10 111 34 135 32 17 65 19 94 4z m1349 -3966 c36 -40 24 -113 -24 -147 -56
-40 -144 3 -153 73 -12 100 108 151 177 74z"/>
<path d="M4777 6065 c-92 -23 -172 -104 -198 -200 -27 -100 18 -222 108 -288
l52 -39 -1 -1679 0 -1680 -25 -27 c-13 -15 -84 -90 -157 -167 -73 -77 -150
-158 -171 -180 -20 -22 -99 -106 -176 -186 l-139 -146 -82 3 c-72 3 -90 -1
-135 -22 -103 -49 -164 -153 -158 -265 4 -68 22 -114 65 -163 71 -81 183 -114
286 -86 137 39 226 193 190 330 l-12 47 90 95 c50 52 152 159 226 238 74 79
174 184 221 234 48 50 111 117 141 148 l54 57 0 1722 c-1 1766 -1 1749 33
1749 22 0 98 93 115 140 77 213 -109 420 -327 365z m124 -182 c30 -18 50 -61
47 -102 -4 -39 -53 -81 -97 -81 -103 0 -145 128 -58 181 39 23 70 24 108 2z
m-883 -4592 c57 -31 69 -102 25 -151 -51 -57 -138 -42 -166 28 -13 32 -13 41
-1 71 8 19 16 36 17 36 1 1 12 9 25 17 25 17 67 17 100 -1z"/>
<path d="M2810 5411 c-131 -40 -211 -148 -205 -276 14 -277 360 -368 510 -135
l22 35 466 -1 c257 0 469 -3 473 -6 3 -3 5 -585 6 -1292 l0 -1286 -240 -240
-240 -240 -394 0 -393 0 -485 485 c-267 267 -488 484 -493 482 -4 -1 -145
-139 -312 -307 l-305 -305 615 -615 615 -615 301 1 300 1 30 -43 c58 -85 152
-130 253 -122 234 19 338 299 174 467 -119 121 -328 102 -423 -39 l-30 -45
-258 0 -257 0 -505 505 -505 505 155 155 155 155 442 -442 443 -441 484 0 483
1 304 303 304 304 0 1445 0 1445 -27 1 c-16 0 -279 0 -585 0 -538 -1 -557 0
-563 18 -9 31 -80 98 -127 122 -45 23 -143 33 -188 20z m130 -190 c63 -45 44
-150 -31 -173 -68 -20 -129 22 -129 90 0 44 14 69 52 92 35 21 71 18 108 -9z
m429 -3932 c57 -36 57 -131 1 -167 -60 -37 -137 -7 -153 58 -22 89 74 157 152
109z"/>
<path d="M4985 1665 c-68 -16 -105 -37 -148 -84 -62 -69 -88 -167 -65 -249
l10 -35 -319 -319 -318 -318 -940 0 -940 0 -219 219 -218 219 7 44 c23 133
-31 252 -141 308 -66 34 -188 35 -250 3 -201 -107 -203 -392 -2 -494 49 -25
153 -36 196 -21 29 10 33 7 283 -244 l254 -254 1030 0 1030 0 350 350 350 350
39 -11 c56 -15 134 -6 193 24 91 47 147 138 146 242 0 177 -161 308 -328 270z
m90 -176 c56 -17 83 -99 49 -147 -38 -55 -111 -61 -156 -12 -43 47 -34 119 19
151 30 19 48 20 88 8z m-3458 -198 c80 -42 55 -168 -37 -186 -57 -11 -130 62
-114 112 26 80 86 110 151 74z"/>
</g>
</svg>
