<?xml version="1.0" encoding="UTF-8" standalone="no"?>
<svg
   xmlns:dc="http://purl.org/dc/elements/1.1/"
   xmlns:cc="http://creativecommons.org/ns#"
   xmlns:rdf="http://www.w3.org/1999/02/22-rdf-syntax-ns#"
   xmlns:svg="http://www.w3.org/2000/svg"
   xmlns="http://www.w3.org/2000/svg"
   xmlns:sodipodi="http://sodipodi.sourceforge.net/DTD/sodipodi-0.dtd"
   xmlns:inkscape="http://www.inkscape.org/namespaces/inkscape"
   id="b3df86d2-2022-47c6-a781-bb5144daf06b"
   data-name="Layer 1"
   width="802.02697"
   height="590.91632"
   viewBox="0 0 802.02697 590.91632"
   version="1.1"
   sodipodi:docname="undraw_researching_22gp.svg"
   inkscape:version="1.0.1 (1.0.1+r74)">
  <metadata
     id="metadata155">
    <rdf:RDF>
      <cc:Work
         rdf:about="">
        <dc:format>image/svg+xml</dc:format>
        <dc:type
           rdf:resource="http://purl.org/dc/dcmitype/StillImage" />
      </cc:Work>
    </rdf:RDF>
  </metadata>
  <defs
     id="defs153" />
  <sodipodi:namedview
     pagecolor="#ffffff"
     bordercolor="#666666"
     borderopacity="1"
     objecttolerance="10"
     gridtolerance="10"
     guidetolerance="10"
     inkscape:pageopacity="0"
     inkscape:pageshadow="2"
     inkscape:window-width="1699"
     inkscape:window-height="1398"
     id="namedview151"
     showgrid="false"
     inkscape:zoom="1.0949097"
     inkscape:cx="500.56501"
     inkscape:cy="407.02516"
     inkscape:window-x="1741"
     inkscape:window-y="42"
     inkscape:window-maximized="0"
     inkscape:current-layer="b3df86d2-2022-47c6-a781-bb5144daf06b" />
  <title
     id="title2">researching</title>
  <rect
     x="464.90551"
     y="218.80786"
     width="337.12145"
     height="9.8889"
     fill="#e6e6e6"
     id="rect4" />
  <rect
     x="492.77422"
     y="136.10073"
     width="85.4041"
     height="85.4041"
     fill="#e6e6e6"
     id="rect6" />
  <rect
     x="509.85504"
     y="153.18155"
     width="51.24246"
     height="51.24246"
     fill="#ccc"
     id="rect8" />
  <rect
     x="684.2592"
     y="136.10073"
     width="21.57577"
     height="85.4041"
     fill="#e6e6e6"
     id="rect10" />
  <rect
     x="684.2592"
     y="149.58559"
     width="21.57577"
     height="9.8889"
     fill="#ccc"
     id="rect12" />
  <rect
     x="684.2592"
     y="192.73713"
     width="21.57577"
     height="9.8889"
     fill="#ccc"
     id="rect14" />
  <rect
     x="650.99655"
     y="136.10073"
     width="21.57577"
     height="85.4041"
     fill="#e6e6e6"
     id="rect16" />
  <rect
     x="650.99655"
     y="149.58559"
     width="21.57577"
     height="9.8889"
     fill="#ccc"
     id="rect18" />
  <rect
     x="650.99655"
     y="192.73713"
     width="21.57577"
     height="9.8889"
     fill="#ccc"
     id="rect20" />
  <rect
     x="921.90231"
     y="290.64257"
     width="21.57577"
     height="85.4041"
     transform="translate(-250.05651 293.89202) rotate(-26.3396)"
     fill="#e6e6e6"
     id="rect22" />
  <rect
     x="911.13272"
     y="306.64743"
     width="21.57577"
     height="9.8889"
     transform="translate(-241.52311 286.85528) rotate(-26.3396)"
     fill="#ccc"
     id="rect24" />
  <rect
     x="930.27866"
     y="345.31898"
     width="21.57577"
     height="9.8889"
     transform="translate(-256.69359 299.36504) rotate(-26.3396)"
     fill="#ccc"
     id="rect26" />
  <polygon
     points="524.688 170.382 535.554 189.201 546.419 208.02 524.688 208.02 502.958 208.02 513.823 189.201 524.688 170.382"
     fill="#e6e6e6"
     id="polygon28" />
  <polygon
     points="543.567 173.978 554.432 192.797 565.298 211.616 543.567 211.616 521.837 211.616 532.702 192.797 543.567 173.978"
     fill="#e6e6e6"
     id="polygon30" />
  <circle
     cx="551.2086"
     cy="162.17145"
     r="6.29293"
     fill="#e6e6e6"
     id="circle32" />
  <rect
     x="663.89203"
     y="237.60213"
     width="337.12145"
     height="9.8889"
     transform="translate(1465.91899 330.55131) rotate(-180)"
     fill="#e6e6e6"
     id="rect34" />
  <rect
     x="887.74067"
     y="154.895"
     width="85.4041"
     height="85.4041"
     transform="translate(1661.89893 240.65226) rotate(-180)"
     fill="#e6e6e6"
     id="rect36" />
  <rect
     x="904.82149"
     y="171.97582"
     width="51.24246"
     height="51.24246"
     transform="translate(1661.89893 240.65226) rotate(-180)"
     fill="#ccc"
     id="rect38" />
  <rect
     x="760.08402"
     y="154.895"
     width="21.57577"
     height="85.4041"
     transform="translate(1342.75729 240.65226) rotate(-180)"
     fill="#e6e6e6"
     id="rect40" />
  <rect
     x="760.08402"
     y="168.37986"
     width="21.57577"
     height="9.8889"
     transform="translate(1342.75729 192.10677) rotate(-180)"
     fill="#ccc"
     id="rect42" />
  <rect
     x="760.08402"
     y="211.5314"
     width="21.57577"
     height="9.8889"
     transform="translate(1342.75729 278.40986) rotate(-180)"
     fill="#ccc"
     id="rect44" />
  <rect
     x="793.34667"
     y="154.895"
     width="21.57577"
     height="85.4041"
     transform="translate(1409.28259 240.65226) rotate(-180)"
     fill="#e6e6e6"
     id="rect46" />
  <rect
     x="793.34667"
     y="168.37986"
     width="21.57577"
     height="9.8889"
     transform="translate(1409.28259 192.10677) rotate(-180)"
     fill="#ccc"
     id="rect48" />
  <rect
     x="793.34667"
     y="211.5314"
     width="21.57577"
     height="9.8889"
     transform="translate(1409.28259 278.40986) rotate(-180)"
     fill="#ccc"
     id="rect50" />
  <rect
     x="721.42742"
     y="154.895"
     width="21.57577"
     height="85.4041"
     transform="translate(1101.7535 545.01488) rotate(-153.6604)"
     fill="#e6e6e6"
     id="rect52" />
  <rect
     x="732.19702"
     y="170.89985"
     width="21.57577"
     height="9.8889"
     transform="translate(1131.82608 508.54612) rotate(-153.6604)"
     fill="#ccc"
     id="rect54" />
  <rect
     x="713.05107"
     y="209.5714"
     width="21.57577"
     height="9.8889"
     transform="translate(1078.36372 573.37946) rotate(-153.6604)"
     fill="#ccc"
     id="rect56" />
  <polygon
     points="742.244 34.634 731.379 53.453 720.514 72.272 742.244 72.272 763.975 72.272 753.109 53.453 742.244 34.634"
     fill="#e6e6e6"
     id="polygon58" />
  <polygon
     points="723.365 38.23 712.5 57.049 701.635 75.868 723.365 75.868 745.096 75.868 734.231 57.049 723.365 38.23"
     fill="#e6e6e6"
     id="polygon60" />
  <circle
     cx="715.72387"
     cy="26.42388"
     r="6.29293"
     fill="#e6e6e6"
     id="circle62" />
  <rect
     x="663.89203"
     y="509.09727"
     width="337.12145"
     height="9.8889"
     transform="translate(1465.91899 873.5416) rotate(-180)"
     fill="#e6e6e6"
     id="rect64" />
  <rect
     x="887.74067"
     y="426.39014"
     width="85.4041"
     height="85.4041"
     transform="translate(1661.89893 783.64254) rotate(-180)"
     fill="#e6e6e6"
     id="rect66" />
  <rect
     x="904.82149"
     y="443.47096"
     width="51.24246"
     height="51.24246"
     transform="translate(1661.89893 783.64254) rotate(-180)"
     fill="#ccc"
     id="rect68" />
  <rect
     x="760.08402"
     y="426.39014"
     width="21.57577"
     height="85.4041"
     transform="translate(1342.75729 783.64254) rotate(-180)"
     fill="#e6e6e6"
     id="rect70" />
  <rect
     x="760.08402"
     y="439.875"
     width="21.57577"
     height="9.8889"
     transform="translate(1342.75729 735.09706) rotate(-180)"
     fill="#ccc"
     id="rect72" />
  <rect
     x="760.08402"
     y="483.02655"
     width="21.57577"
     height="9.8889"
     transform="translate(1342.75729 821.40015) rotate(-180)"
     fill="#ccc"
     id="rect74" />
  <rect
     x="793.34667"
     y="426.39014"
     width="21.57577"
     height="85.4041"
     transform="translate(1409.28259 783.64254) rotate(-180)"
     fill="#e6e6e6"
     id="rect76" />
  <rect
     x="793.34667"
     y="439.875"
     width="21.57577"
     height="9.8889"
     transform="translate(1409.28259 735.09706) rotate(-180)"
     fill="#ccc"
     id="rect78" />
  <rect
     x="793.34667"
     y="483.02655"
     width="21.57577"
     height="9.8889"
     transform="translate(1409.28259 821.40015) rotate(-180)"
     fill="#ccc"
     id="rect80" />
  <rect
     x="721.42742"
     y="426.39014"
     width="21.57577"
     height="85.4041"
     transform="translate(981.29362 1059.81853) rotate(-153.6604)"
     fill="#e6e6e6"
     id="rect82" />
  <rect
     x="732.19702"
     y="442.395"
     width="21.57577"
     height="9.8889"
     transform="translate(1011.3662 1023.34977) rotate(-153.6604)"
     fill="#ccc"
     id="rect84" />
  <rect
     x="713.05107"
     y="481.06655"
     width="21.57577"
     height="9.8889"
     transform="translate(957.90384 1088.18312) rotate(-153.6604)"
     fill="#ccc"
     id="rect86" />
  <polygon
     points="742.244 306.129 731.379 324.948 720.514 343.768 742.244 343.768 763.975 343.768 753.109 324.948 742.244 306.129"
     fill="#e6e6e6"
     id="polygon88" />
  <polygon
     points="723.365 309.725 712.5 328.544 701.635 347.364 723.365 347.364 745.096 347.364 734.231 328.544 723.365 309.725"
     fill="#e6e6e6"
     id="polygon90" />
  <circle
     cx="715.72387"
     cy="297.91903"
     r="6.29293"
     fill="#e6e6e6"
     id="circle92" />
  <ellipse
     cx="397.12944"
     cy="562.7111"
     rx="397.12944"
     ry="28.20522"
     fill="#e6e6e6"
     id="ellipse94" />
  <path
     d="m 707.38681,578.50602 c -64.75515,-11.52541 -135.56743,-9.60949 -209.84681,0 33.85544,-28.5813 63.07462,-57.16255 29.21918,-85.74385 66.03927,13.624 75.28918,12.24508 148.75216,0 -17.0393,28.5813 14.83614,57.16255 31.87547,85.74385 z"
     fill="#03bc25"
     id="path96-5" />
  <path
     d="m 707.38681,578.50602 c -64.75515,-11.52541 -135.56743,-9.60949 -209.84681,0 33.85544,-28.5813 63.07462,-57.16255 29.21918,-85.74385 66.03927,13.624 75.28918,12.24508 148.75216,0 -17.0393,28.5813 14.83614,57.16255 31.87547,85.74385 z"
     opacity="0.2"
     id="path98-3" />
  <path
     d="m 691.59189,566.31232 c -55.00706,-9.19982 -115.15943,-7.6705 -178.257,0 28.75895,-22.81416 53.57959,-45.62832 24.82059,-68.4425 56.09788,10.875 63.95533,9.77428 126.35937,0 -14.47422,22.81418 12.60279,45.62834 27.07704,68.4425 z"
     fill="#03bc25"
     id="path100-5" />
  <polygon
     points="537.591 466.249 557.899 469.634 568.053 498.967 538.72 517.019 504.873 466.249 536.463 466.249 537.591 466.249"
     fill="#a0616a"
     id="polygon104"
     style="fill:#fbbebe;fill-opacity:1" />
  <circle
     cx="595.13005"
     cy="463.99285"
     r="47.38476"
     fill="#a0616a"
     id="circle106"
     style="fill:#fbbebe;fill-opacity:1" />
  <path
     style="fill:#fbbebe;fill-opacity:1;stroke:none;stroke-width:2.26772;stroke-linecap:round;stroke-linejoin:round"
     d="m 165.69714,297.66964 22.90027,5.67526 5.06366,26.26405 -20.78458,3.34016 c -5.19516,-10.76488 -13.75742,-17.09756 -7.17935,-35.27947 z"
     id="path1033"
     sodipodi:nodetypes="ccccc" />
  <path
     d="m 532.37217,445.91877 c 0,0 -115.02478,11.87327 -135.385,10.15388 -9.53426,-0.80515 -15.31829,-1.65839 -15.31829,-1.65839 -1.06065,9.27068 -0.6544,25.73167 7.47896,33.3091 0,0 3.75977,0.0422 6.71116,1.06734 9.10578,3.16288 100.41057,18.05133 116.20549,4.51283 15.79492,-13.5385 20.30768,-47.38476 20.30768,-47.38476 z"
     fill="#2f2e41"
     id="path108"
     transform="translate(-198.98652,-154.54184)"
     style="fill:#2f2e41;fill-opacity:1"
     sodipodi:nodetypes="csccssc" />
  <path
     d="M371.03833,448.17519l-36.10267-12.4103s-33.84626-24.82059-25.9488,0,44.00013,78.9746,54.154,73.33356,22.36551-19.64318,19.64432-21.66778S362.01266,470.73936,371.03833,448.17519Z"
     transform="translate(-198.98652 -154.54184)"
     fill="#2f2e41"
     id="path112" />
  <path
     d="m 410.69012,640.44625 c -1.72977,7.35906 -9.55849,26.07861 -10.84996,31.68453 -1.47035,6.38238 -2.46026,9.36742 -2.46026,9.36742 l -26.34156,-5.42485 2.00813,-8.21371 c 0,0 8.81233,-20.14336 9.94054,-32.55366 z"
     transform="translate(-198.98652,-154.54184)"
     fill="#2f2e41"
     id="path1031"
     style="fill:#fbbebe;fill-opacity:1"
     sodipodi:nodetypes="csccccc" />
  <path
     d="m 540.26963,697.50929 c 0,0 -75.59,-21.436 -89.12848,-116.20549 v -9.02567 c 0,0 -14.95615,26.23828 -20.30776,31.58987 -6.20515,6.20514 -25.07086,55.10374 -23.94264,60.74478 -7.98244,-0.0511 -17.8788,-2.89758 -30.13966,-12.64795 0,0 11.77449,-38.50708 12.9027,-50.91738 1.12821,-12.4103 43.436,-98.71825 43.436,-98.71825 0,0 15.79492,-32.71805 42.87193,0 27.07701,32.71805 29.33342,55.28222 29.33342,55.28222 l 34.97447,67.69252 z"
     transform="translate(-198.98652,-154.54184)"
     fill="#2f2e41"
     id="path110"
     style="fill:#2f2e41;fill-opacity:1"
     sodipodi:nodetypes="cccsccscsccc" />
  <path
     d="M525.60291,623.04752s-14.66671,63.17969,10.15388,76.71819S734.32151,715.56063,747.86,690.74s6.76926-24.82059,6.76926-24.82059l-36.10268-40.61551L747.86,623.04752s0-9.02567-10.15387-10.15387-41.74372-12.4103-68.82073-4.51284-42.87193-15.79492-42.87193-15.79492Z"
     fill="#575a89"
     id="path116"
     transform="translate(-198.98652 -154.54184)"
     style="fill:#3a93f2;fill-opacity:1" />
  <polygon
     points="307.437 271.069 288.257 375.993 420.258 360.198 443.95 265.428 307.437 271.069"
     fill="#3f3d56"
     id="polygon118" />
  <polygon
     points="311.386 275.018 295.591 368.659 415.745 354.557 438.873 269.377 311.386 275.018"
     fill="#fff"
     id="polygon120" />
  <polygon
     points="292.77 377.121 288.257 375.993 286.001 380.505 322.104 480.916 325.499 479.618 326.616 473.019 292.77 377.121"
     fill="#b3b3b3"
     id="polygon122" />
  <polygon
     points="288.257 374.864 324.36 479.788 460.873 459.48 420.258 360.198 288.257 374.864"
     fill="#d0cde1"
     id="polygon124" />
  <polygon
     points="332.822,281.71 328.309,307.736 398.258,305.301 405.027,279.531 "
     fill="#03bc25"
     id="polygon142-6"
     style="fill:#9246f4;fill-opacity:1" />
  <polygon
     points="306.309 371.48 306.309 377.121 406.719 365.839 405.591 360.198 306.309 371.48"
     fill="#3f3d56"
     id="polygon126" />
  <polygon
     points="308.565 382.762 324.36 426.762 427.027 414.352 408.976 372.608 308.565 382.762"
     fill="#3f3d56"
     id="polygon128" />
  <path
     d="M636.16736,599.35514l-3.38463-9.02567s-25.94879-45.12834-39.4873-36.10267,28.20522,53.0258,28.20522,53.0258h13.5385Z"
     transform="translate(-198.98652 -154.54184)"
     fill="#a0616a"
     id="path130"
     style="fill:#fbbebe;fill-opacity:1" />
  <path
     d="M550.4235,606.12439l-3.38462-13.5385s-9.02567-41.74372,6.76925-39.4873,20.30776,41.74372,20.30776,41.74372l-1.12821,9.02567Z"
     transform="translate(-198.98652 -154.54184)"
     fill="#a0616a"
     id="path132"
     style="fill:#fbbebe;fill-opacity:1" />
  <path
     d="M577.50051,600.48335s-29.33342-4.51283-30.46163,2.25642-6.76925,108.308,21.436,111.69265,168.10309,18.05134,153.43638-16.92313-37.23089-30.46163-37.23089-30.46163L588.7826,677.20154Z"
     transform="translate(-198.98652 -154.54184)"
     fill="#575a89"
     id="path134"
     style="fill:#3a93f2;fill-opacity:1" />
  <polygon
     points="467.078 458.916 437.181 438.044 417.437 453.275 442.258 480.352 467.078 458.916"
     fill="#575a89"
     id="polygon136"
     style="fill:#3a93f2;fill-opacity:1" />
  <polygon
     points="386.976 479.224 391.488 522.096 469.335 517.583 401.642 516.455 386.976 479.224"
     opacity="0.2"
     id="polygon138" />
  <polygon
     points="310.258 322.403 416.309 319.018 417.437 314.505 311.386 318.239 310.258 322.403"
     fill="#e6e6e6"
     id="polygon144" />
  <polygon
     points="308.001 333.685 414.053 330.3 415.181 325.787 309.129 329.521 308.001 333.685"
     fill="#e6e6e6"
     id="polygon146" />
  <polygon
     points="306.873 342.71 412.924 339.326 414.053 334.813 308.001 338.546 306.873 342.71"
     fill="#e6e6e6"
     id="polygon148" />
  <path
     d="m 600.47274,443.0089 c 0,0 -8.5665,-26.4703 -2.87757,-30.9081 5.68853,-4.43872 9.71509,-10.3433 10.45822,-8.50571 0.74312,1.83759 5.70892,0.8988 5.70892,0.8988 0,0 1.66194,1.46602 1.11463,2.75627 -0.54714,1.29062 7.17491,-0.76327 7.17491,-0.76327 0,0 3.12795,-0.19589 1.66193,1.46602 -1.46602,1.66193 -0.54724,1.29037 2.58079,1.09461 3.12791,-0.19602 6.82351,3.65493 6.82351,3.65493 0,0 6.14107,17.82915 10.931,19.09943 4.78997,1.27026 14.66716,33.62518 12.67404,41.91448 -1.99315,8.28928 -7.0128,43.46119 -22.65353,44.44024 -15.64052,0.97959 -52.64919,-3.29714 -57.24252,-1.4396 -4.59413,1.85788 -6.27615,-4.94532 -2.42538,-8.64102 3.85106,-3.69535 3.41848,-20.62645 6.17486,-21.74113 2.75641,-1.11469 25.13959,-19.78816 21.44359,-23.63894 -3.69543,-3.85089 -20.62644,-3.41847 -18.61308,-6.37094 2.01326,-2.95231 17.06626,-13.31616 17.06626,-13.31616 z"
     fill="#664447"
     stroke-width="1.1473"
     id="path292" />
  <path
     d="m 174.1689,502.7784 -29.14381,14.233 c 0,0 -35.24366,5.4221 -15.58854,15.58855 19.65512,10.16645 73.87615,21.01064 76.5872,11.522 2.71105,-9.48864 1.63541,-25.2364 -1.21558,-24.81793 -2.85099,0.41847 -22.50612,2.45174 -30.63927,-16.52562 z"
     fill="#2f2e41"
     id="path114" />
  <path
     d="m 539.10413,777.33829 c 0,0 -115.02478,11.87327 -135.385,10.15388 -9.53426,-0.80515 -15.31829,-1.65839 -15.31829,-1.65839 -1.06065,9.27068 -0.6544,25.73167 7.47896,33.3091 0,0 3.75977,0.0422 6.71116,1.06734 9.10578,3.16288 100.41057,18.05133 116.20549,4.51283 15.79492,-13.5385 20.30768,-47.38476 20.30768,-47.38476 z"
     fill="#2f2e41"
     id="path108-2"
     style="fill:#575a89;fill-opacity:1"
     sodipodi:nodetypes="csccssc" />
</svg>
