<?xml version="1.0" encoding="UTF-8" standalone="no"?>
<svg
   xmlns:dc="http://purl.org/dc/elements/1.1/"
   xmlns:cc="http://creativecommons.org/ns#"
   xmlns:rdf="http://www.w3.org/1999/02/22-rdf-syntax-ns#"
   xmlns:svg="http://www.w3.org/2000/svg"
   xmlns="http://www.w3.org/2000/svg"
   xmlns:xlink="http://www.w3.org/1999/xlink"
   xmlns:sodipodi="http://sodipodi.sourceforge.net/DTD/sodipodi-0.dtd"
   xmlns:inkscape="http://www.inkscape.org/namespaces/inkscape"
   id="fd25c83a-acc9-441d-8dce-2bbb37970907"
   data-name="Layer 1"
   width="1076.4"
   height="733.47"
   viewBox="0 0 1076.4 733.47"
   version="1.1"
   sodipodi:docname="undraw_robotics_kep0.svg"
   inkscape:version="0.92.3 (2405546, 2018-03-11)">
  <metadata
     id="metadata309">
    <rdf:RDF>
      <cc:Work
         rdf:about="">
        <dc:format>image/svg+xml</dc:format>
        <dc:type
           rdf:resource="http://purl.org/dc/dcmitype/StillImage" />
      </cc:Work>
    </rdf:RDF>
  </metadata>
  <sodipodi:namedview
     pagecolor="#ffffff"
     bordercolor="#666666"
     borderopacity="1"
     objecttolerance="10"
     gridtolerance="10"
     guidetolerance="10"
     inkscape:pageopacity="0"
     inkscape:pageshadow="2"
     inkscape:window-width="1217"
     inkscape:window-height="929"
     id="namedview307"
     showgrid="false"
     inkscape:zoom="0.83945973"
     inkscape:cx="433.30198"
     inkscape:cy="440.34329"
     inkscape:window-x="0"
     inkscape:window-y="25"
     inkscape:window-maximized="0"
     inkscape:current-layer="g1360" />
  <defs
     id="defs10">
    <linearGradient
       id="bc224463-365b-4973-a542-782a8bb75c72"
       x1="487.42"
       y1="814.54"
       x2="487.42"
       y2="138.95"
       gradientUnits="userSpaceOnUse">
      <stop
         offset="0"
         stop-color="gray"
         stop-opacity="0.25"
         id="stop2" />
      <stop
         offset="0.54"
         stop-color="gray"
         stop-opacity="0.12"
         id="stop4" />
      <stop
         offset="1"
         stop-color="gray"
         stop-opacity="0.1"
         id="stop6" />
    </linearGradient>
    <linearGradient
       id="f10c32a2-f99a-4cbc-971d-c4e860c06767"
       x1="875.73"
       y1="813.03"
       x2="875.73"
       y2="187.56"
       gradientTransform="matrix(-1, 0, 0, 1, 1751.04, 0)"
       xlink:href="#bc224463-365b-4973-a542-782a8bb75c72" />
  </defs>
  <title
     id="title12">robotics</title>
  <path
     d="M1130.38,364.35h-91.94V475.79h85.22c.22,1.15.44,2.3.68,3.45h-85.9v89.85l.43-.14c2.43-.85,4.84-1.75,7.23-2.72l1.55-.62q3.66-1.53,7.23-3.23c.84-.39,1.68-.8,2.51-1.22a150,150,0,0,0,36.17-25c.31-.26.6-.55.89-.82,1.46-1.41,2.9-2.85,4.3-4.32.52-.54,1-1.08,1.54-1.64,1.65-1.79,3.24-3.64,4.79-5.5.23-.28.45-.56.68-.82A115.92,115.92,0,0,0,1121.34,498c.13-.26.24-.55.36-.82,1.26-2.82,2.39-5.68,3.37-8.59.41-1.22.81-2.45,1.16-3.68.13-.37.23-.74.34-1.1,5.09-17.84,5.68-36.4,5.68-54.85q0-3.23,0-6.45c0-7.45-.11-14.95-.24-22.44,0-1.94-.1-3.88-.14-5.83-.13-4.94-.3-9.9-.54-14.84-.06-1.37-.13-2.75-.21-4.11,0-.79-.08-1.58-.14-2.37Q1130.71,368.61,1130.38,364.35Z"
     transform="translate(-61.56 -83.02)"
     fill="#38bc24"
     opacity="0.1"
     id="path14" />
  <path
     d="M1038.44,240.27h50.44a343.41,343.41,0,0,0-26.83-32.84c-7.49-8.18-15.37-16.16-23.61-23.84Z"
     transform="translate(-61.56 -83.02)"
     fill="#38bc24"
     opacity="0.1"
     id="path16" />
  <path
     d="M1038.44,243.72V360.9h91.65c0-.34,0-.69-.09-1-.08-.93-.16-1.85-.25-2.77-.09-1.08-.21-2.17-.32-3.25s-.25-2.35-.39-3.52-.26-2.35-.41-3.52-.29-2.34-.45-3.5-.31-2.33-.48-3.49c-.14-1-.28-1.93-.43-2.89-.21-1.37-.43-2.73-.66-4.09,0-.2-.07-.41-.1-.6a253.15,253.15,0,0,0-6.75-29.42A201.46,201.46,0,0,0,1108.39,273a215,215,0,0,0-17.1-29.29Z"
     transform="translate(-61.56 -83.02)"
     fill="#38bc24"
     opacity="0.1"
     id="path18" />
  <path
     d="M820.1,364.35V475.79h196.38V364.35Zm0,114.88V554.7c22.86-7.31,49-4.35,72.7,1.65,18.35,4.65,36.23,11,54.55,15.55a198.26,198.26,0,0,0,24.87,4.7l2.06.23,3,.27,3,.22a1.67,1.67,0,0,1,.31,0c.44,0,.89,0,1.34.06l.46,0c.54,0,1.08.06,1.62.06h0c.77,0,1.55,0,2.33.07h1c.77,0,1.55,0,2.33,0l1.71,0,1.38,0c.59,0,1.17,0,1.75-.06.94,0,1.88-.08,2.83-.14h0l1.75-.12c.72,0,1.45-.1,2.16-.17,1.53-.12,3-.27,4.55-.46.6-.07,1.21-.14,1.81-.23l.89-.11c1.51-.2,3-.43,4.51-.69,1.11-.17,2.22-.37,3.34-.58V479.23Zm146.06-239v3.44H820.1V360.9h196.38V243.71h-9.85v-3.44h9.85V164.54c-38.2-30.78-82.85-54.88-132.58-66a282.59,282.59,0,0,0-63.8-6.66V240.27Zm-449-.66.69.66H798.13V92.91c-49.9,4.15-98.56,20.91-137.79,48.68-18.85,13.33-35.78,29.14-56.93,39.36a89.15,89.15,0,0,1-35.6,9.2Zm-1.93-60.44v33.35l27.08-26.43C532.24,182.57,524.3,180.2,515.19,179.17Zm-.9,419.56.9,0V671.8q15.33-1.15,30.54-3.14A547.36,547.36,0,0,0,678,634.4h0q6.84-2.76,13.58-5.67,4.49-2,8.93-4,6.66-3.06,13.22-6.29A463.75,463.75,0,0,0,769.62,586c1.11-.76,2.23-1.52,3.33-2.29q3.31-2.3,6.59-4.64c1.09-.79,2.18-1.57,3.26-2.37l2.25-1.66c2.24-1.67,4.47-3.34,6.73-5h0c2.09-1.5,4.2-3,6.34-4.4v-86.4H572.94c.16-.5.31-1,.48-1.53-.18.51-.34,1-.49,1.53H515.19V598.67Zm.9-355V360.9H798.13V243.71Zm0,120.64V475.79H798.13V364.35ZM458.67,182.56l34.56,33.73V179Q475.86,180.08,458.67,182.56ZM218,364.35V475.79H493.23V364.35Zm66.52,275.24a511.15,511.15,0,0,0,129.73,30.78l.19,0q12.58,1.33,25.25,2.06l.31,0h0c17.69,1,35.45,1.23,53.18.57V479.23H218l1,128.32M141.79,475.79h54.28V364.35H174.6c-2.23,3.91-4.39,7.86-6.44,11.85-1.1,2.13-2.17,4.29-3.21,6.45C150.82,412,141.84,444.22,141.79,475.79Zm0,3.44c.44,22.64,5.54,44.87,16.73,65.4,9.3,17,22.22,32,37.51,45V479.23ZM176.61,360.9h19.46v-29A310.66,310.66,0,0,0,176.61,360.9ZM298.5,240.27H486.74l.68-.66-1-1h0L433.49,187A427.49,427.49,0,0,0,387,199.43c-1.44.47-2.88,1-4.31,1.45A422,422,0,0,0,298.5,240.27ZM218,305.64V360.9H459.38l0,0,0,0h33.83v-114l-3.86-3.14H293A378.08,378.08,0,0,0,218,305.64Z"
     transform="translate(-61.56 -83.02)"
     fill="#38bc24"
     opacity="0.1"
     id="path20" />
  <path
     d="M1038.44,302.83V360.9h91.65c0-.34,0-.69-.09-1-.08-.93-.16-1.85-.25-2.77-.09-1.08-.21-2.17-.32-3.25s-.25-2.35-.39-3.52-.26-2.35-.41-3.52-.29-2.34-.45-3.5-.31-2.33-.48-3.49c-.14-1-.28-1.93-.43-2.89-.21-1.37-.43-2.73-.66-4.09,0-.2-.07-.41-.1-.6a253.15,253.15,0,0,0-6.75-29.42Z"
     transform="translate(-61.56 -83.02)"
     fill="#38bc24"
     opacity="0.1"
     id="path22" />
  <path
     d="M1130.38,364.35h-91.94V475.79h85.22c.22,1.15.44,2.3.68,3.45h-85.9v89.85l.43-.14c2.43-.85,4.84-1.75,7.23-2.72l1.55-.62q3.66-1.53,7.23-3.23c.84-.39,1.68-.8,2.51-1.22a150,150,0,0,0,36.17-25c.31-.26.6-.55.89-.82,1.46-1.41,2.9-2.85,4.3-4.32.52-.54,1-1.08,1.54-1.64,1.65-1.79,3.24-3.64,4.79-5.5.23-.28.45-.56.68-.82A115.92,115.92,0,0,0,1121.34,498c.13-.26.24-.55.36-.82,1.26-2.82,2.39-5.68,3.37-8.59.41-1.22.81-2.45,1.16-3.68.13-.37.23-.74.34-1.1,5.09-17.84,5.68-36.4,5.68-54.85q0-3.23,0-6.45c0-7.45-.11-14.95-.24-22.44,0-1.94-.1-3.88-.14-5.83-.13-4.94-.3-9.9-.54-14.84-.06-1.37-.13-2.75-.21-4.11,0-.79-.08-1.58-.14-2.37Q1130.71,368.61,1130.38,364.35Z"
     transform="translate(-61.56 -83.02)"
     fill="#38bc24"
     opacity="0.1"
     id="path24" />
  <polygon
     points="885.8 177.48 885.8 277.89 954.93 277.89 954.93 177.48 945.08 177.48 945.08 143.48 904.61 143.48 904.61 177.48 885.8 177.48"
     fill="#38bc24"
     opacity="0.1"
     id="polygon26" />
  <rect
     x="885.8"
     y="281.33"
     width="69.13"
     height="111.44"
     fill="#38bc24"
     opacity="0.1"
     id="rect28" />
  <path
     d="M1016.49,479.24H947.36V571.9a199.92,199.92,0,0,0,24.86,4.7l2.07.23,3,.27c1,.08,2,.16,3,.22l.31,0c.44,0,.89,0,1.34.06l.46,0c.54,0,1.09.05,1.63.06h0c.78,0,1.55,0,2.33.06h1c.77,0,1.54,0,2.33,0l1.7,0c.46,0,.93,0,1.39,0l1.75-.06c.93,0,1.88-.08,2.82-.14h0l1.74-.12,2.17-.17c1.52-.12,3-.28,4.54-.46l1.81-.23.89-.11c1.51-.2,3-.43,4.51-.69,1.12-.17,2.23-.38,3.35-.58Z"
     transform="translate(-61.56 -83.02)"
     fill="#38bc24"
     opacity="0.1"
     id="path30" />
  <rect
     x="453.64"
     y="165.62"
     width="57.01"
     height="112.26"
     fill="#38bc24"
     opacity="0.1"
     id="rect32" />
  <polygon
     points="453.64 281.33 453.64 392.77 736.58 392.77 736.58 344.71 585.87 344.71 585.87 373.06 510.64 373.06 510.64 281.33 453.64 281.33"
     fill="#38bc24"
     opacity="0.1"
     id="polygon34" />
  <path
     d="M514.29,598.73l.9,0V671.8q15.33-1.15,30.54-3.14a547,547,0,0,0,132.33-34.27q18.23-7.3,35.73-15.94A466.71,466.71,0,0,0,769.63,586q6.68-4.53,13.17-9.29c3-2.2,6-4.46,9-6.64,2.09-1.51,4.2-3,6.35-4.41V479.24H573c.16-.52.31-1,.47-1.54-.17.51-.33,1-.48,1.54H515.19V598.68Z"
     transform="translate(-61.56 -83.02)"
     fill="#38bc24"
     opacity="0.1"
     id="path36" />
  <path
     d="M366.52,240.27h37.14V230H387V199.43c-1.44.48-2.89,1-4.32,1.45V230H366.52Z"
     transform="translate(-61.56 -83.02)"
     fill="#38bc24"
     opacity="0.1"
     id="path38" />
  <path
     d="M277,360.9H459.39l-.06,0,.08,0h33.82V248.64h-9.58v83h-43.8V282.51H403.66V243.72H366.52v38.79H330.35v49.11H277Z"
     transform="translate(-61.56 -83.02)"
     fill="#38bc24"
     opacity="0.1"
     id="path40" />
  <path
     d="M277,364.35V475.79H493.23V364.35Zm7.55,275.24a511.15,511.15,0,0,0,129.73,30.78l.19,0q12.58,1.33,25.25,2.06l.31,0h0c17.69,1,35.45,1.23,53.18.57V479.23H277v39.51H218l.31,88.22"
     transform="translate(-61.56 -83.02)"
     fill="#38bc24"
     opacity="0.1"
     id="path42" />
  <path
     d="M192.26,479.24H141.83c.44,22.63,5.55,44.85,16.74,65.38,9.29,17.06,22.22,32,37.5,45V518.74h-3.81Z"
     transform="translate(-61.56 -83.02)"
     fill="#38bc24"
     opacity="0.1"
     id="path44" />
  <path
     d="M141.8,475.79h50.46V382.65H165C150.83,412,141.84,444.23,141.8,475.79Z"
     transform="translate(-61.56 -83.02)"
     fill="#38bc24"
     opacity="0.1"
     id="path46" />
  <rect
     x="453.64"
     y="196.83"
     width="30.54"
     height="35.2"
     fill="#38bc24"
     opacity="0.1"
     id="rect48" />
  <rect
     x="453.64"
     y="269.78"
     width="30.54"
     height="8.1"
     fill="#38bc24"
     opacity="0.1"
     id="rect50" />
  <rect
     x="453.64"
     y="281.33"
     width="30.54"
     height="23.65"
     fill="#38bc24"
     opacity="0.1"
     id="rect52" />
  <rect
     x="453.64"
     y="342.74"
     width="30.54"
     height="35.2"
     fill="#38bc24"
     opacity="0.1"
     id="rect54" />
  <rect
     x="453.64"
     y="415.7"
     width="30.54"
     height="35.2"
     fill="#38bc24"
     opacity="0.1"
     id="rect56" />
  <path
     d="M515.19,598.68l-.9.05.9,0v8.17h30.54V571.67H515.19Z"
     transform="translate(-61.56 -83.02)"
     fill="#38bc24"
     opacity="0.1"
     id="path58" />
  <path
     d="M515.19,644.61V671.8q15.33-1.15,30.54-3.14v-24Z"
     transform="translate(-61.56 -83.02)"
     fill="#38bc24"
     opacity="0.1"
     id="path60" />
  <rect
     x="605.7"
     y="390.19"
     width="130.88"
     height="2.58"
     fill="#38bc24"
     opacity="0.1"
     id="rect62" />
  <rect
     x="605.7"
     y="396.22"
     width="130.88"
     height="9.91"
     fill="#38bc24"
     opacity="0.1"
     id="rect64" />
  <rect
     x="605.7"
     y="438.61"
     width="130.88"
     height="15.94"
     fill="#38bc24"
     opacity="0.1"
     id="rect66" />
  <path
     d="M667.25,570V586H769.63q6.68-4.53,13.17-9.29c3-2.2,6-4.45,9-6.64Z"
     transform="translate(-61.56 -83.02)"
     fill="#38bc24"
     opacity="0.1"
     id="path68" />
  <path
     d="M667.25,618.45v15.94h10.81q18.24-7.3,35.73-15.94Z"
     transform="translate(-61.56 -83.02)"
     fill="#38bc24"
     opacity="0.1"
     id="path70" />
  <rect
     x="414.29"
     y="375.15"
     width="25.76"
     height="22.91"
     transform="translate(792.78 690.19) rotate(-180)"
     fill="#38bc24"
     opacity="0.1"
     id="rect72" />
  <rect
     x="972.16"
     y="268.39"
     width="25.76"
     height="22.91"
     transform="translate(1908.53 476.68) rotate(-180)"
     fill="#38bc24"
     opacity="0.1"
     id="rect74" />
  <rect
     x="972.16"
     y="321.61"
     width="25.76"
     height="22.91"
     transform="translate(1908.53 583.12) rotate(-180)"
     fill="#38bc24"
     opacity="0.1"
     id="rect76" />
  <rect
     x="972.16"
     y="374.83"
     width="25.76"
     height="22.91"
     transform="translate(1908.53 689.55) rotate(-180)"
     fill="#38bc24"
     opacity="0.1"
     id="rect78" />
  <rect
     x="972.16"
     y="428.05"
     width="25.76"
     height="22.91"
     transform="translate(1908.53 795.99) rotate(-180)"
     fill="#38bc24"
     opacity="0.1"
     id="rect80" />
  <rect
     x="972.16"
     y="481.27"
     width="25.76"
     height="22.91"
     transform="translate(1908.53 902.43) rotate(-180)"
     fill="#38bc24"
     opacity="0.1"
     id="rect82" />
  <rect
     x="972.16"
     y="534.49"
     width="25.76"
     height="22.91"
     transform="translate(1908.53 1008.86) rotate(-180)"
     fill="#38bc24"
     opacity="0.1"
     id="rect84" />
  <rect
     x="315.93"
     y="375.15"
     width="25.76"
     height="22.91"
     transform="translate(596.06 690.19) rotate(-180)"
     fill="#38bc24"
     opacity="0.1"
     id="rect86" />
  <rect
     x="414.29"
     y="431.66"
     width="25.76"
     height="22.91"
     transform="translate(792.78 803.21) rotate(-180)"
     fill="#38bc24"
     opacity="0.1"
     id="rect88" />
  <rect
     x="315.93"
     y="431.66"
     width="25.76"
     height="22.91"
     transform="translate(596.06 803.21) rotate(-180)"
     fill="#38bc24"
     opacity="0.1"
     id="rect90" />
  <rect
     x="414.29"
     y="488.17"
     width="25.76"
     height="22.91"
     transform="translate(792.78 916.23) rotate(-180)"
     fill="#38bc24"
     opacity="0.1"
     id="rect92" />
  <rect
     x="315.93"
     y="488.17"
     width="25.76"
     height="22.91"
     transform="translate(596.06 916.23) rotate(-180)"
     fill="#38bc24"
     opacity="0.1"
     id="rect94" />
  <rect
     x="414.29"
     y="544.68"
     width="25.76"
     height="22.91"
     transform="translate(792.78 1029.26) rotate(-180)"
     fill="#38bc24"
     opacity="0.1"
     id="rect96" />
  <rect
     x="315.93"
     y="544.68"
     width="25.76"
     height="22.91"
     transform="translate(596.06 1029.26) rotate(-180)"
     fill="#38bc24"
     opacity="0.1"
     id="rect98" />
  <rect
     x="414.29"
     y="601.19"
     width="25.76"
     height="22.91"
     transform="translate(792.78 1142.28) rotate(-180)"
     fill="#38bc24"
     opacity="0.1"
     id="rect100" />
  <rect
     x="315.93"
     y="601.19"
     width="25.76"
     height="22.91"
     transform="translate(596.06 1142.28) rotate(-180)"
     fill="#38bc24"
     opacity="0.1"
     id="rect102" />
  <polygon
     points="378.5 589.46 378.5 574.68 352.74 574.68 352.74 587.36 378.5 589.46"
     fill="#38bc24"
     opacity="0.1"
     id="polygon104" />
  <path
     d="M1038.44,332.24v13.11h88.17V332.24Zm79.39.83h7.23v11.46h-7.23Zm-8.78,0h7.23v11.46h-7.23Zm-8.76,0h7.23v11.46h-7.23Zm-8.78,0h7.23v11.46h-7.23Zm-8.77,0H1090v11.46h-7.23Zm-8.78,0h7.23v11.46H1074Zm-8.78,0h7.23v11.46h-7.23Zm-8.77,0h7.23v11.46h-7.23Zm-8.77,0h7.23v11.46h-7.23Zm-8.77,0h7.23v11.46h-7.23Z"
     transform="translate(-61.56 -83.02)"
     fill="#38bc24"
     opacity="0.1"
     id="path106" />
  <path
     d="M1038.44,370.4v13.11h88.17V370.4Zm79.39.83h7.23v11.45h-7.23Zm-8.78,0h7.23v11.45h-7.23Zm-8.76,0h7.23v11.45h-7.23Zm-8.78,0h7.23v11.45h-7.23Zm-8.77,0H1090v11.45h-7.23Zm-8.78,0h7.23v11.45H1074Zm-8.78,0h7.23v11.45h-7.23Zm-8.77,0h7.23v11.45h-7.23Zm-8.77,0h7.23v11.45h-7.23Zm-8.77,0h7.23v11.45h-7.23Z"
     transform="translate(-61.56 -83.02)"
     fill="#38bc24"
     opacity="0.1"
     id="path108" />
  <path
     d="M1038.44,408.56v13.1h88.17v-13.1Zm79.39.82h7.23v11.45h-7.23Zm-8.78,0h7.23v11.45h-7.23Zm-8.76,0h7.23v11.45h-7.23Zm-8.78,0h7.23v11.45h-7.23Zm-8.77,0H1090v11.45h-7.23Zm-8.78,0h7.23v11.45H1074Zm-8.78,0h7.23v11.45h-7.23Zm-8.77,0h7.23v11.45h-7.23Zm-8.77,0h7.23v11.45h-7.23Zm-8.77,0h7.23v11.45h-7.23Z"
     transform="translate(-61.56 -83.02)"
     fill="#38bc24"
     opacity="0.1"
     id="path110" />
  <path
     d="M1038.44,446.71V459.8h88.17V446.71Zm79.39.81h7.23V459h-7.23Zm-8.78,0h7.23V459h-7.23Zm-8.76,0h7.23V459h-7.23Zm-8.78,0h7.23V459h-7.23Zm-8.77,0H1090V459h-7.23Zm-8.78,0h7.23V459H1074Zm-8.78,0h7.23V459h-7.23Zm-8.77,0h7.23V459h-7.23Zm-8.77,0h7.23V459h-7.23Zm-8.77,0h7.23V459h-7.23Z"
     transform="translate(-61.56 -83.02)"
     fill="#38bc24"
     opacity="0.1"
     id="path112" />
  <path
     d="M1038.44,484.85V498h82.9c.12-.26.24-.55.35-.82h-3.86V485.68h7.23v2.86c.42-1.22.82-2.45,1.17-3.69Zm70.61.83h7.23v11.45h-7.23Zm-8.76,0h7.23v11.45h-7.23Zm-8.78,0h7.23v11.45h-7.23Zm-8.77,0H1090v11.45h-7.23Zm-8.78,0h7.23v11.45H1074Zm-8.78,0h7.23v11.45h-7.23Zm-8.77,0h7.23v11.45h-7.23Zm-8.77,0h7.23v11.45h-7.23Zm-8.77,0h7.23v11.45h-7.23Z"
     transform="translate(-61.56 -83.02)"
     fill="#38bc24"
     opacity="0.1"
     id="path114" />
  <path
     d="M1038.44,523v13.1h55.11c.32-.27.6-.55.89-.82h-2.93V523.83h7.23V531l1.55-1.65v-5.5h4.79c.23-.28.45-.56.68-.82Zm44.3.82H1090v11.46h-7.23Zm-8.78,0h7.23v11.46H1074Zm-8.78,0h7.23v11.46h-7.23Zm-8.77,0h7.23v11.46h-7.23Zm-8.77,0h7.23v11.46h-7.23Zm-8.77,0h7.23v11.46h-7.23Z"
     transform="translate(-61.56 -83.02)"
     fill="#38bc24"
     opacity="0.1"
     id="path116" />
  <path
     d="M1038.44,561.16v7.93l.43-.14v-7h7.23v4.26l1.54-.64V562h7.23v.4c.85-.39,1.69-.8,2.52-1.22Z"
     transform="translate(-61.56 -83.02)"
     fill="#38bc24"
     opacity="0.1"
     id="path118" />
  <path
     d="M459.35,360.92l0,0h0Zm54.94,237.81.9,0v0Zm58.64-119.5h0c.16-.5.31-1,.48-1.53C573.24,478.21,573.08,478.73,572.93,479.23ZM459.35,360.92l0,0h0ZM966.16,240.27v3.44h40.47v-3.44ZM514.29,598.73l.9,0v0Zm58.64-119.5h0c.16-.5.31-1,.48-1.53C573.24,478.21,573.08,478.73,572.93,479.23ZM459.35,360.92l0,0h0Zm54.94,237.81.9,0v0Zm58.64-119.5h0c.16-.5.31-1,.48-1.53C573.24,478.21,573.08,478.73,572.93,479.23Z"
     transform="translate(-61.56 -83.02)"
     fill="#38bc24"
     opacity="0.1"
     id="path120" />
  <rect
     x="74.53"
     y="698.04"
     width="1001.87"
     height="35.42"
     fill="#38bc24"
     opacity="0.1"
     id="rect122" />
  <rect
     x="104.76"
     y="472.85"
     width="5.07"
     height="114.02"
     fill="#535461"
     id="rect124" />
  <path
     d="M203.21,669.54l-.32,5.14-.44,7.25-.19,3-.45,7.25-.19,3-.45,7.24-5.11,82.45A14,14,0,0,1,182.13,798H155.58a14,14,0,0,1-13.93-13.1l-5.12-82.45-.44-7.24-.19-3-.46-7.25-.18-3-.45-7.25-.32-5.14a7.23,7.23,0,0,1,7.22-7.67H196A7.21,7.21,0,0,1,203.21,669.54Z"
     transform="translate(-61.56 -83.02)"
     fill="#3f3d56"
     id="path126" />
  <polygon
     points="141.34 591.66 140.89 598.91 73.7 598.91 73.26 591.66 141.34 591.66"
     fill="#9d9cb5"
     id="polygon128" />
  <polygon
     points="140.71 601.93 140.26 609.19 74.34 609.19 73.89 601.93 140.71 601.93"
     fill="#9d9cb5"
     id="polygon130" />
  <polygon
     points="140.06 612.21 139.62 619.46 74.98 619.46 74.53 612.21 140.06 612.21"
     fill="#9d9cb5"
     id="polygon132" />
  <path
     d="M127.08,598.61c29.49,21.33,41.77,54.71,41.77,54.71s-35.54-1.22-65-22.56S62,576.05,62,576.05,97.58,577.27,127.08,598.61Z"
     transform="translate(-61.56 -83.02)"
     fill="#38bc24"
     id="path134" />
  <path
     d="M62,576.05s36.89,20.48,48.72,37.43,58.09,39.84,58.09,39.84"
     transform="translate(-61.56 -83.02)"
     fill="none"
     stroke="#535461"
     stroke-miterlimit="10"
     stroke-width="2"
     id="path136" />
  <path
     d="M146.11,555.62c16.06,11.61,22.74,29.78,22.74,29.78s-19.34-.67-35.4-12.28-22.73-29.78-22.73-29.78S130.06,544,146.11,555.62Z"
     transform="translate(-61.56 -83.02)"
     fill="#38bc24"
     id="path138" />
  <path
     d="M110.72,543.34s20.07,11.15,26.52,20.37,31.61,21.69,31.61,21.69"
     transform="translate(-61.56 -83.02)"
     fill="none"
     stroke="#535461"
     stroke-miterlimit="10"
     stroke-width="2"
     id="path140" />
  <path
     d="M192.18,584.47c-18.44,20.27-22.34,46.75-22.34,46.75s26-6.38,44.44-26.65,22.34-46.74,22.34-46.74S210.62,564.2,192.18,584.47Z"
     transform="translate(-61.56 -83.02)"
     fill="#38bc24"
     id="path142" />
  <path
     d="M236.62,557.83s-24,20.77-30.13,35.09-36.65,38.3-36.65,38.3"
     transform="translate(-61.56 -83.02)"
     fill="none"
     stroke="#535461"
     stroke-miterlimit="10"
     stroke-width="2"
     id="path144" />
  <circle
     cx="406.3"
     cy="56.89"
     r="19.79"
     fill="none"
     stroke="#38bc24"
     stroke-miterlimit="10"
     opacity="0.2"
     id="circle146" />
  <circle
     cx="406.3"
     cy="56.89"
     r="35.77"
     fill="none"
     stroke="#38bc24"
     stroke-miterlimit="10"
     opacity="0.2"
     id="circle148" />
  <circle
     cx="406.3"
     cy="56.89"
     r="56.39"
     fill="none"
     stroke="#38bc24"
     stroke-miterlimit="10"
     opacity="0.2"
     id="circle150" />
  <path
     d="M470.15,142.2v30.33a2.3,2.3,0,0,1-4.6,0V142.2a2.3,2.3,0,0,1,2.3-2.3,2.32,2.32,0,0,1,2.3,2.3Z"
     transform="translate(-61.56 -83.02)"
     fill="#6f758d"
     id="path154" />
  <path
     d="M515.69,223.28v47.13a14.25,14.25,0,0,1-14.21,14.21H481.12a14.25,14.25,0,0,1-14.22-14.21V223.28a14.26,14.26,0,0,1,14.22-14.21h20.36a14.25,14.25,0,0,1,14.21,14.21Z"
     transform="translate(-61.56 -83.02)"
     fill="#6f758d"
     id="path156" />
  <path
     d="M435.63,399.89l-3.89,48s-5.84-5.29-13.4-12.19c-14-12.77-33.9-31.06-33.67-31.54.37-.74,3.52-44.29,3.89-55.22a66.29,66.29,0,0,1,5-22.61c.7-1.41,2.7-10.46,3.61-14.69.29-1.32.46-2.17.46-2.17l6.49-2.6s27.24,30.39,27.24,30.95-1.85,23.9-1.85,23.9l-1.94,1.69-.84.72s-1.3,10.2-2.23,13.25c-.87,2.9.08,8.37.18,8.94v.05a26.39,26.39,0,0,1-.68,4.74,9.68,9.68,0,0,1-.62,1.75,4.3,4.3,0,0,0,.19,3.14,19.06,19.06,0,0,0,2,3.9Z"
     transform="translate(-61.56 -83.02)"
     fill="#3f3d56"
     id="path158" />
  <path
     d="M600.72,404.15c.29.58-28.77,27.1-41.36,38.55l-5.71,5.18-3.89-48h10s3.34-4.82,2.23-7-1.3-6.49-1.3-6.49,1.11-5.93.19-9-2.23-13.25-2.23-13.25L557.38,363l-1.51-1.32S554,338.37,554,337.81s27.24-30.95,27.24-30.95l6.48,2.6s.15.7.38,1.81c.88,4,3,13.6,3.7,15.05a66.12,66.12,0,0,1,5,22.61C597.2,359.86,600.35,403.41,600.72,404.15Z"
     transform="translate(-61.56 -83.02)"
     fill="#3f3d56"
     id="path160" />
  <path
     d="M600.84,811.51c-1.73,3.46-14,1.24-16.48,1s-20.33-9.15-20.58-11.24-6.43-6.43-8.15-6.43-10.13-6.67-10.88-7.66a4.19,4.19,0,0,1-.25-1.54c-.26-4.06.25-14.52.25-14.52l35.83,2L598,799.28s2.62,5,3.14,9A5.79,5.79,0,0,1,600.84,811.51Z"
     transform="translate(-61.56 -83.02)"
     fill="#3f3d56"
     id="path162" />
  <path
     d="M600.84,811.51c-1.73,3.46-14,1.24-16.48,1s-20.33-9.15-20.58-11.24-6.43-6.43-8.15-6.43-10.13-6.67-10.88-7.66a4.19,4.19,0,0,1-.25-1.54c-.26-4.06.25-14.52.25-14.52l35.83,2L598,799.28s2.62,5,3.14,9A5.79,5.79,0,0,1,600.84,811.51Z"
     transform="translate(-61.56 -83.02)"
     opacity="0.1"
     id="path164" />
  <path
     d="M600.84,811.51c-1.73,3.46-14,1.24-16.48,1s-20.33-9.15-20.58-11.24-6.43-6.43-8.15-6.43-10.13-6.67-10.88-7.66a4.19,4.19,0,0,1-.25-1.54L556.12,793s7.41,4.7,9.39,7.54,17.56,8.65,18.85,8.76c1,.1,11.2-1.86,16.78-1A5.79,5.79,0,0,1,600.84,811.51Z"
     transform="translate(-61.56 -83.02)"
     opacity="0.1"
     id="path166" />
  <path
     d="M431.47,789.89s-5.07,6.3-11.86,6.79a7,7,0,0,0-6.92,6.67s1.24,3.84-15.19,9.15c-9.89,3.2-16.11,2.19-19.74,0a8.77,8.77,0,0,1-4.1-5c-1.11-3.95,20.75-34,20.75-34l19.89-1.24,14.21,6.43,2.17,8.13Z"
     transform="translate(-61.56 -83.02)"
     fill="#3f3d56"
     id="path168" />
  <path
     d="M431.47,789.89s-5.07,6.3-11.86,6.79a7,7,0,0,0-6.92,6.67s1.24,3.84-15.19,9.15c-9.89,3.2-16.11,2.19-19.74,0a8.77,8.77,0,0,1-4.1-5c-1.11-3.95,20.75-34,20.75-34l19.89-1.24,14.21,6.43,2.17,8.13Z"
     transform="translate(-61.56 -83.02)"
     opacity="0.1"
     id="path170" />
  <path
     d="M431.47,789.89s-5.07,6.3-11.86,6.79a7,7,0,0,0-6.92,6.67s1.24,3.84-15.19,9.15c-9.89,3.2-16.11,2.19-19.74,0,9.33-1,29.93-6.86,32-8.9,2.47-2.48,5.56-9.27,7.66-9.39,1.45-.09,8.85-4.55,13.29-7.31Z"
     transform="translate(-61.56 -83.02)"
     fill="none"
     id="path172" />
  <path
     d="M431.47,789.89s-5.07,6.3-11.86,6.79a7,7,0,0,0-6.92,6.67s1.24,3.84-15.19,9.15c-9.89,3.2-16.11,2.19-19.74,0,9.33-1,29.93-6.86,32-8.9,2.47-2.48,5.56-9.27,7.66-9.39,1.45-.09,8.85-4.55,13.29-7.31Z"
     transform="translate(-61.56 -83.02)"
     opacity="0.1"
     id="path174" />
  <path
     d="M584,762.34c-2.22,5.19,0,15.81,0,15.81s-33.11,1.74-41.26-3.7-13.84-36.57-13.84-36.57,1.23-36.56,0-38.3-5.68-9.88-4.2-11.6-1.24-10.88-3.21-14.83-1.24-15.32-1.24-15.32l-4.94-30.14-7.66-35.83-6.42-24s-6.67-19.52-8.94-27.68-4.65-.74-4.65-.74c-.24,7.91-18.53,43.49-18.53,43.49s-2.72,21.49-5.69,29.15-6.17,34.35-6.17,34.35-4.69,54.35-8.65,63.49S442,732.69,442,732.69s1,18.78-1.48,20.26-2,12.85-2,12.85,1.48,10.87-4.21,12.61-4.69,5.43-4.69,5.43S398,789,392.8,775.19s2-17.54,2.34-18.53,4.34-2.71.87-6.67,4.45-14.83,4.45-14.83,1.24-15.31,3.46-15.81,1.48-22.73,1.48-22.73l2.47-23.22s3.22-51.89,2.48-53.87-.25-11.86,2.22-16.55S417,555.05,417,555.05s-.5-21.25,1.48-25.2c1.12-2.24,1.68-10.85,2-17.88.2-5.35.26-9.79.26-9.79L448.4,491.8,484,480.44l29.9,14.32,43.73,8.4.55,7.55L566.49,626l4.7,43.49s2,20.5,2.23,24.2,2.71,27.93,2.71,27.93,5.19,11.61,2,15.56-2,7.17-2,7.17S586.26,757.15,584,762.34Z"
     transform="translate(-61.56 -83.02)"
     fill="#3f3d56"
     id="path176" />
  <polygon
     points="470.6 181.72 459.24 384.2 397.46 371.23 385.23 290.06 397.34 181.1 406.46 182.27 422.55 184.32 438.48 185.31 455.74 183.38 470.6 181.72"
     opacity="0.1"
     id="polygon178" />
  <polygon
     points="470.6 183.21 459.24 385.68 397.46 372.71 385.23 291.54 397.34 182.59 406.46 183.75 422.55 185.8 438.48 186.79 455.74 184.86 470.6 183.21"
     fill="#38bc24"
     id="polygon180"
     style="fill:#ffffff;fill-opacity:1" />
  <path
     d="M481.38,271.66l22.24.74-6.25,8.75s.44,17.68,3.41,22.75,2.1,83.39,2.1,83.39L497,398.53l-10.13-12.6.12-103.4Z"
     transform="translate(-61.56 -83.02)"
     fill="#3f3d56"
     id="path182"
     style="fill:#38bc24;fill-opacity:1" />
  <polygon
     points="454.66 165.66 433.91 188.64 445.77 200.99 465.41 181.85 454.66 165.66"
     opacity="0.1"
     id="polygon186" />
  <path
     d="M514.85,248.71l-19.39,21.46,11.86,12.36L527,263.38l-9.61-14.48A1.58,1.58,0,0,0,514.85,248.71Z"
     transform="translate(-61.56 -83.02)"
     fill="#38bc24"
     id="path188"
     style="fill:#ffffff;fill-opacity:1" />
  <polygon
     points="425.14 187.53 404.14 166.53 402.16 177.52 411.8 201.61 425.14 187.53"
     opacity="0.1"
     id="polygon190" />
  <polygon
     points="425.88 186.05 404.88 165.04 402.9 176.04 412.54 200.13 425.88 186.05"
     fill="#38bc24"
     id="polygon192"
     style="fill:#ffffff;fill-opacity:1" />
  <path
     d="M558.15,510.71A102.37,102.37,0,0,1,526.22,520c-20.38,2.6-33.72-23.34-33.72-23.34l-7.78,10.13c-2.47,10.75-40.16,13.46-55.47,9.38a24.27,24.27,0,0,1-8.78-4.16c.2-5.35.26-9.79.26-9.79L448.4,491.8,484,480.44l29.9,14.32,43.73,8.4Z"
     transform="translate(-61.56 -83.02)"
     opacity="0.1"
     id="path194" />
  <path
     d="M532.15,266.22,520.79,468.69l-61.77-13-12.23-81.16,12.11-109,9.12,1.16a110.57,110.57,0,0,1-1.34,11.81c-1.48,6.92,7.66,56.09,7.66,56.09s17.37,55.13,25.2,47.19,18.9-49.91,18.9-49.91c7.54-15.57.13-59.17-.43-60.1a17.65,17.65,0,0,1-.71-4Z"
     transform="translate(-61.56 -83.02)"
     opacity="0.1"
     id="path196" />
  <path
     d="M558.84,422.86l.52,19.84-5.71,5.18-3.89-48h8.52Z"
     transform="translate(-61.56 -83.02)"
     opacity="0.1"
     id="path198" />
  <path
     d="M424.69,386.31v.05a26.39,26.39,0,0,1-.68,4.74c0-.44,0-.69-.08-.72C423.57,390.22,424,388.41,424.69,386.31Z"
     transform="translate(-61.56 -83.02)"
     opacity="0.1"
     id="path200" />
  <path
     d="M435.63,399.89l-3.89,48s-5.84-5.29-13.4-12.19l.9-8.5s3.19-20.9,4.35-31.2a19.06,19.06,0,0,0,2,3.9Z"
     transform="translate(-61.56 -83.02)"
     opacity="0.1"
     id="path202" />
  <path
     d="M469.14,248.8s-3.7-5.43-8.76,5.07c0,0-13.22,7.66-17.79,8.52s-20.75,6.55-20.75,6.55a14.3,14.3,0,0,1-8.41,2.72c-5.06,0-9.26,11.11-8.64,17.17s-.37,10.5-5.07,10.75-2.1,10-2.1,10l31.26,35.83s2,33,1,34-4.58,10.62-3.71,11-4.7,36.82-4.7,36.82L413.93,498s0,11.85,15.32,15.93,53,1.36,55.47-9.39l7.78-10.13s13.34,26,33.72,23.35,33.36-10,33.36-10l-2.23-84.87-1.48-61.15,31.87-52.25s-8.52-16.31-7.78-23.72,2.23-13-15.93-15.57c0,0-15.32-2.28-24.34-8.52a69.38,69.38,0,0,0-17.42-8.77s-4.1-7.4-7.64-4.2c0,0,2.58,11.36,2.27,13.4s.55,11.06,1.11,12,8,44.53.43,60.1c0,0-11.07,42-18.9,49.9s-25.2-47.19-25.2-47.19-9.14-49.16-7.66-56.08S469.14,248.8,469.14,248.8Z"
     transform="translate(-61.56 -83.02)"
     fill="#3f3d56"
     id="path204" />
  <circle
     cx="434.03"
     cy="322.31"
     r="5.44"
     fill="#3f3d56"
     id="circle206" />
  <circle
     cx="434.03"
     cy="347.94"
     r="5.44"
     fill="#3f3d56"
     id="circle208" />
  <circle
     cx="434.03"
     cy="322.31"
     r="5.44"
     opacity="0.1"
     id="circle210" />
  <circle
     cx="434.03"
     cy="347.94"
     r="5.44"
     opacity="0.1"
     id="circle212" />
  <path
     d="M544.43,754.93s22.31,1.73,24.54,3.46S544.43,754.93,544.43,754.93Z"
     transform="translate(-61.56 -83.02)"
     opacity="0.1"
     id="path214" />
  <path
     d="M411.58,737.39s4.7,5.93,2.72,8.65S411.58,737.39,411.58,737.39Z"
     transform="translate(-61.56 -83.02)"
     opacity="0.1"
     id="path216" />
  <path
     d="M417.26,758.74s8.65-5.68,12.11-1.9S417.26,758.74,417.26,758.74Z"
     transform="translate(-61.56 -83.02)"
     opacity="0.1"
     id="path218" />
  <path
     d="M515.69,223.28v14.27a14.1,14.1,0,0,1-5.66,1.19H472.58a14,14,0,0,1-5.68-1.2V223.28a14.26,14.26,0,0,1,14.22-14.21h20.36A14.26,14.26,0,0,1,515.69,223.28Z"
     transform="translate(-61.56 -83.02)"
     opacity="0.1"
     id="path220" />
  <path
     d="M470.15,162v10.54a2.3,2.3,0,0,1-4.6,0v-8.87A13.57,13.57,0,0,1,470.15,162Z"
     transform="translate(-61.56 -83.02)"
     opacity="0.1"
     id="path222" />
  <rect
     x="396.8"
     y="79.94"
     width="65.88"
     height="73.41"
     rx="12"
     fill="#dcdfed"
     id="rect224" />
  <path
     d="M510,212v29.93H472.58V211.94a14.12,14.12,0,0,1,8.54-2.87h20.36A14.18,14.18,0,0,1,510,212Z"
     transform="translate(-61.56 -83.02)"
     opacity="0.1"
     id="path226" />
  <rect
     x="410.27"
     y="79.94"
     width="38.61"
     height="76.55"
     opacity="0.1"
     id="rect228" />
  <rect
     x="411.02"
     y="79.94"
     width="37.45"
     height="76.55"
     fill="#6f758d"
     id="rect230" />
  <rect
     x="413.77"
     y="106.35"
     width="12.11"
     height="2.24"
     fill="#dcdfed"
     id="rect232" />
  <rect
     x="433.91"
     y="106.35"
     width="12.11"
     height="2.24"
     fill="#dcdfed"
     id="rect234" />
  <rect
     x="419.52"
     y="131.09"
     width="20.44"
     height="1.34"
     fill="#dcdfed"
     id="rect236" />
  <g
     id="g1360"
     transform="translate(-498.9213,28.08554)">
    <polygon
       id="polygon46"
       points="927.444,694.442 908.748,695.221 908.748,717.812 920.433,731.833 930.56,727.159 "
       style="fill:#ffb9b9"
       transform="matrix(1.1199021,0,0,1.1199021,229.77326,-152.79449)" />
    <path
       id="path48"
       d="m 1252.7168,649.33932 c 0,0 -3.4896,-12.21348 -9.5963,-3.48962 -6.1067,8.72388 -12.2135,27.91655 -15.7031,28.78894 -3.4895,0.87239 -27.9165,27.91653 -3.4896,27.91653 24.4269,0 32.2786,-11.34109 32.2786,-11.34109 0,0 24.4269,-9.59631 24.4269,-11.3411 0,-1.74478 -3.4896,-34.02328 -5.2344,-34.02328 -1.7447,0 -2.6172,6.10676 -6.9791,6.10676 -4.3619,0 -15.703,-2.61714 -15.703,-2.61714 z"
       style="fill:#2f2e41;stroke-width:1.11990213"
       inkscape:connector-curvature="0" />
    <polygon
       id="polygon50"
       points="978.857,697.558 960.941,699.116 960.162,720.149 978.857,727.938 "
       style="fill:#ffb9b9"
       transform="matrix(1.1199021,0,0,1.1199021,229.77326,-152.79449)" />
    <path
       id="path52"
       d="m 1328.6149,653.70127 c 0,0 -11.341,-12.21348 -17.4479,-9.5963 a 60.263843,60.263843 0 0 0 -8.7239,4.36196 c 0,0 -3.4895,11.34109 -5.2343,20.9374 -1.7448,9.5963 -2.6172,13.95826 -4.3619,17.44783 -1.7448,3.48957 -3.4896,16.57545 13.9582,18.32023 17.4479,1.74479 22.6822,-7.85153 22.6822,-7.85153 l 4.362,-22.68217 c 0,0 -1.7448,-20.93742 -5.2344,-20.93742 z"
       style="fill:#2f2e41;stroke-width:1.11990213"
       inkscape:connector-curvature="0" />
    <path
       id="path54"
       d="m 1258.8236,378.89788 c 0,0 -25.2994,56.70547 -21.8099,108.17658 0,0 -8.7239,20.06501 -3.4895,51.4711 5.2343,31.4061 12.2134,94.21837 12.2134,94.21837 0,0 23.5546,2.61721 25.2994,-1.74481 0,0 1.7448,-43.61957 3.4896,-45.36435 1.7447,-1.74479 -0.8724,-41.87481 -3.4896,-49.72635 -2.6171,-7.85153 24.427,-85.49444 24.427,-85.49444 l -6.9791,-96.83548 z"
       style="fill:#2f2e41;stroke-width:1.11990213"
       inkscape:connector-curvature="0" />
    <path
       id="path56"
       d="m 1258.8236,378.89788 c 0,0 -25.2994,56.70547 -21.8099,108.17658 0,0 -8.7239,20.06501 -3.4895,51.4711 5.2343,31.4061 12.2134,94.21837 12.2134,94.21837 0,0 23.5546,2.61721 25.2994,-1.74481 0,0 1.7448,-43.61957 3.4896,-45.36435 1.7447,-1.74479 -0.8724,-41.87481 -3.4896,-49.72635 -2.6171,-7.85153 24.427,-85.49444 24.427,-85.49444 l -6.9791,-96.83548 z"
       style="opacity:0.1;stroke-width:1.11990213"
       inkscape:connector-curvature="0" />
    <path
       id="path58-3"
       d="m 1251.8444,375.40832 16.5754,35.76806 c 0,0 7.8515,81.13242 12.2135,91.60113 0,0 1.7449,29.66132 9.5964,39.25762 7.8515,9.59632 13.9582,94.21832 13.9582,94.21832 0,0 21.8099,6.10673 23.5546,0 1.7448,-6.10674 6.9792,-47.98155 6.9792,-47.98155 0,0 1.7448,-35.76806 -7.8516,-59.32264 -9.5964,-23.55457 11.3411,-108.17658 11.3411,-108.17658 0,0 21.8098,-41.00241 -9.5963,-74.15329 z"
       style="fill:#2f2e41;stroke-width:1.11990213"
       inkscape:connector-curvature="0" />
    <path
       id="path242-6"
       d="m 1254.9544,212.55832 a 101.23,101.23 0 0 0 -3.41,16.76 c -2,13.71 -4,27.5 -3.62,41.34 a 77.82,77.82 0 0 1 0,9.29 57.86,57.86 0 0 1 -1.64,8.35 1.77,1.77 0 0 1 -0.74,1.26 c -0.47,0.23 -1,0 -1.55,-0.06 -1.78,-0.22 -3.09,1.5 -4.47,2.66 a 8.48,8.48 0 0 1 -9.63,0.71 10.74,10.74 0 0 1 -4.11,11 14.48,14.48 0 0 1 -11.88,2.23 c 2.05,-0.32 4,1.12 5.16,2.87 0.4,0.63 0.72,1.38 1.4,1.69 0.68,0.31 1.87,-0.08 2.67,0.34 a 3.39,3.39 0 0 1 1,1 c 2.48,3.33 7.09,4.15 11.24,4.26 4.15,0.11 8.54,-0.17 12.2,1.8 a 30.83,30.83 0 0 0 2.69,1.51 c 2.88,1.19 6.32,0 8.56,-2.13 2.24,-2.13 3.48,-5.14 4.4,-8.11 3.7,-12 3,-24.91 2.22,-37.47 -1.22,-19.98 -3.76,-40.43 -10.49,-59.3 z"
       style="fill:#454b69"
       inkscape:connector-curvature="0" />
    <path
       id="path244-2"
       d="m 1254.9544,212.55832 a 101.23,101.23 0 0 0 -3.41,16.76 c -2,13.71 -4,27.5 -3.62,41.34 a 77.82,77.82 0 0 1 0,9.29 57.86,57.86 0 0 1 -1.64,8.35 1.77,1.77 0 0 1 -0.74,1.26 c -0.47,0.23 -1,0 -1.55,-0.06 -1.78,-0.22 -3.09,1.5 -4.47,2.66 a 8.48,8.48 0 0 1 -9.63,0.71 10.74,10.74 0 0 1 -4.11,11 14.48,14.48 0 0 1 -11.88,2.23 c 2.05,-0.32 4,1.12 5.16,2.87 0.4,0.63 0.72,1.38 1.4,1.69 0.68,0.31 1.87,-0.08 2.67,0.34 a 3.39,3.39 0 0 1 1,1 c 2.48,3.33 7.09,4.15 11.24,4.26 4.15,0.11 8.54,-0.17 12.2,1.8 a 30.83,30.83 0 0 0 2.69,1.51 c 2.88,1.19 6.32,0 8.56,-2.13 2.24,-2.13 3.48,-5.14 4.4,-8.11 3.7,-12 3,-24.91 2.22,-37.47 -1.22,-19.98 -3.76,-40.43 -10.49,-59.3 z"
       style="opacity:0.1"
       inkscape:connector-curvature="0" />
    <path
       id="path262-9"
       d="m 1279.6844,246.35832 a 28.65,28.65 0 0 0 1.39,7 9.87,9.87 0 0 0 2.85,4.22 c 2.14,-2.89 6,-3.88 8.84,-6 2.51,-1.85 4.28,-4.5 6.15,-7 3.68,-4.92 8,-9.38 12,-14.08 0.6,-0.71 1.19,-1.42 1.77,-2.15 a 63,63 0 0 0 5.51,-7.86 c 3.32,-5.71 5.59,-12.28 10.58,-16.61 2.72,-2.35 6.13,-3.91 8.55,-6.58 -1.64,-2.41 -2.25,-5.33 -2.83,-8.19 a 83.83,83.83 0 0 1 -1.42,-8.36 c -0.09,-0.74 -0.14,-1.49 -0.17,-2.24 0,-0.32 0,-0.64 -0.05,-1 0,-2.29 1.48,-6.23 -0.86,-7.52 -2.16,-1.19 -5.69,-1.2 -8.21,-1.17 h -0.41 a 30.15,30.15 0 0 0 -16.51,5.12 10.34,10.34 0 0 0 -2.86,2.61 c -1.31,2 -1.38,4.4 -1.28,6.79 0,0.55 0.05,1.09 0.09,1.62 0,0.26 0,0.53 0,0.8 0.09,2.66 -0.17,5.51 -2,7.35 -2,2 -5.18,2.09 -7.89,2.94 -0.45,0.14 -0.88,0.3 -1.3,0.47 a 17.48,17.48 0 0 0 -7.35,6.23 30.22,30.22 0 0 0 -4.26,10.25 58,58 0 0 0 -1.42,10 c -0.52,7.73 0.28,15.61 1.09,23.36 z"
       style="fill:#fbbebe"
       inkscape:connector-curvature="0" />
    <path
       id="path264-1"
       d="m 1302.7644,184.95832 c 0,0.26 0,0.53 0,0.8 3.32,1.21 11.4,-2.19 15.14,-2.19 7.42,0 9.71,1.47 15.08,-2.86 -0.12,-1.06 -0.19,-2.13 -0.22,-3.2 0,-2.29 1.48,-6.23 -0.86,-7.52 -2.34,-1.29 -6.09,-1.2 -8.62,-1.17 a 30.15,30.15 0 0 0 -16.51,5.12 10.34,10.34 0 0 0 -2.86,2.61 c -1.57,2.4 -1.32,5.55 -1.15,8.41 z"
       style="opacity:0.1"
       inkscape:connector-curvature="0" />
    <path
       id="path266-2"
       d="m 1282.2144,154.02832 a 31.21,31.21 0 0 0 31.23,31.22 31.24,31.24 0 0 0 31.22,-31.22 31.23,31.23 0 0 0 -62.45,0 z"
       style="fill:#fbbebe"
       inkscape:connector-curvature="0" />
    <path
       id="path268-7"
       d="m 1334.7444,190.92832 a 6.52,6.52 0 0 1 3.46,-1.48 c 1.84,0 3.35,1.51 4.11,3.18 0.76,1.67 1,3.53 1.65,5.25 a 11.48,11.48 0 0 0 4.62,5.62 c 1.47,0.92 3.22,1.56 4.23,3 1.59,2.25 0.62,5.39 -0.72,7.8 -5,9 -14,14.86 -22.71,20.38 l -9.8,6.22 a 131.5,131.5 0 0 1 -12.18,7.15 c -6.8,3.35 -14.15,5.5 -20.91,8.92 -3.11,1.57 -6.16,3.44 -9.6,4 a 31.67,31.67 0 0 1 -1.36,-7.12 c -1.67,-14.91 -3.32,-30.14 0,-44.77 0.62,-2.79 1.49,-5.64 3.45,-7.71 a 16.94,16.94 0 0 1 4.35,-3 123.56,123.56 0 0 1 12.22,-5.73 13.86,13.86 0 0 1 6.28,-1.39 13.19,13.19 0 0 1 -1.43,4.67 l -15.75,35.06 c -1,2.2 -2,4.5 -1.92,6.92 0.12,3.44 2.44,6.79 1.49,10.1 a 235.1,235.1 0 0 1 31.32,-36.9 5,5 0 0 0 1.25,-1.55 6.24,6.24 0 0 0 0.18,-2.89 c -0.11,-1.84 0.27,-4.3 1.81,-5.53 1.07,-0.86 2.65,-1.11 3.83,-1.86 4.14,-2.61 8.1,-5.56 12.13,-8.34 z"
       style="fill:#38bc24"
       inkscape:connector-curvature="0" />
    <path
       id="path270-0"
       d="m 1251.2744,378.15832 c 7.77,4.14 16.53,6.16 25.3,7 8.77,0.84 17.59,0.49 26.39,0.15 6.68,-0.24 13.35,-0.51 20,-0.75 9.08,-0.36 18,-1.09 26.68,-3.83 -0.75,-1.81 -1.61,-3.59 -2.5,-5.33 a 263.17,263.17 0 0 0 -76.3,-6.53 42.23,42.23 0 0 0 -12,2 17.69,17.69 0 0 0 -7,4.54 c -0.14,0.93 -0.36,1.85 -0.57,2.75 z"
       style="opacity:0.1"
       inkscape:connector-curvature="0" />
    <path
       id="path272-9"
       d="m 1252.6844,280.56832 c 3.46,11.69 1.09,24.48 -1.07,36.47 -1.29,0.65 -1.69,2.38 -1.41,3.8 a 24,24 0 0 0 1.66,4 4.76,4.76 0 0 1 0.1,4.19 c -0.31,0.55 -0.8,1 -1.12,1.5 a 6.16,6.16 0 0 0 -0.62,2.79 c -0.29,4.53 -0.56,9.14 0.66,13.5 0.71,2.54 1.92,5.18 1.12,7.68 -0.47,1.51 -1.64,2.79 -1.81,4.37 -0.17,1.58 0.82,3.22 1.4,4.81 1.37,3.74 0.63,8.24 -0.32,12.11 7.77,4.14 16.53,6.16 25.3,7 8.77,0.84 17.59,0.49 26.39,0.16 l 20,-0.76 c 9.15,-0.36 18.15,-1.1 26.88,-3.89 0.84,-6 1.55,-12.65 -1.82,-17.68 a 10,10 0 0 1 -1.57,-2.67 c -0.6,-2.06 0.7,-4.15 1.12,-6.26 0.85,-4.31 -2,-8.36 -4.52,-12 a 5.67,5.67 0 0 1 -0.86,-1.61 c -0.46,-1.66 0.54,-3.49 0.56,-5.16 a 3,3 0 0 0 -0.32,-1.4 c -0.37,-0.7 -1.06,-1.18 -1.44,-1.88 a 5.11,5.11 0 0 1 -0.34,-2.88 q 0.69,-9.37 2.26,-18.65 c 0.1,-0.56 0.2,-1.13 0.33,-1.69 a 9.29,9.29 0 0 1 0.92,-2.45 c 0.58,-1 1.43,-1.81 2,-2.82 a 4.07,4.07 0 0 0 0,-3.63 c -0.57,-1.05 1,-1.95 1.45,-3 a 6.66,6.66 0 0 0 0.14,-2.57 8.31,8.31 0 0 1 1.61,-4 c 1.09,-1.73 2.19,-3.44 3.31,-5.15 q 7.47,-11.57 15.53,-22.73 3.93,-5.37 7.93,-10.64 c 2.15,-2.83 4.36,-5.71 5.44,-9.1 a 13.93,13.93 0 0 0 0.45,-1.8 15.37,15.37 0 0 0 -1.34,-9.58 c -1.28,-2.56 -3.23,-4.69 -4.94,-7 -1.9,-2.56 -3.53,-5.36 -5.71,-7.68 -2.18,-2.32 -5.12,-4.18 -8.31,-4.18 -1.85,0 -4,0.52 -5.29,-0.8 -0.47,-0.48 -0.72,-1.12 -1.2,-1.57 -1.36,-1.29 -3.58,-0.41 -5.21,0.51 l -31.27,17.67 -5.07,2.88 c -0.92,0.55 -1.86,1.09 -2.78,1.65 a 108.14,108.14 0 0 0 -12.53,8.5 c -5.8,4.64 -12.21,8.92 -17.26,14.36 -0.47,0.5 -0.94,1 -1.39,1.55 q -1.37,-9.54 -2.73,-19.11 a 24.09,24.09 0 0 1 -0.36,-5.56 24.47,24.47 0 0 1 1.34,-5.36 c 0.2,-0.61 0.42,-1.24 0.62,-1.86 l 3.37,-10.11 c 1.65,-4.95 3.41,-10.1 7.14,-13.75 a 19.26,19.26 0 0 0 2.48,-2.55 v -0.05 a 3.74,3.74 0 0 0 0.61,-3.29 l -26.34,8.22 c -1.24,0.39 -2.49,0.78 -3.68,1.29 a 17.43,17.43 0 0 0 -4,2.43 14.66,14.66 0 0 0 -5.41,13.41 c 0.26,1.64 0.84,3.22 1.18,4.84 0.6,2.94 1.55,6.34 0.27,9.06 -1.28,2.72 -2.43,5.15 -3.63,7.72 a 38.52,38.52 0 0 0 -2.46,6.1 30.13,30.13 0 0 0 -0.85,8.78 66.14,66.14 0 0 0 3.38,19.38 c 0.63,2.06 1.41,4.08 2.03,6.14 z"
       style="fill:#454b69"
       inkscape:connector-curvature="0" />
    <polygon
       id="polygon274-3"
       points="770.41,294.7 833.75,298.26 771.29,292.38 760.38,291.15 "
       style="fill:#3f3d56"
       transform="translate(472.69445,-2.88168)" />
    <polygon
       id="polygon276-6"
       points="765.72,296.08 835.15,301.28 835.15,296.58 768.94,293.31 "
       style="fill:#3f3d56"
       transform="translate(472.69445,-2.88168)" />
    <path
       id="path278-0"
       d="m 1307.6344,289.43832 c -1.39,-0.37 -2.88,-0.3 -4.29,-0.63 -1.82,-0.44 -3.46,-1.56 -5.32,-1.79 a 12,12 0 0 0 -3.43,0.25 l -8.57,1.5 c -0.66,0.11 -1.44,0.32 -1.67,0.95 a 1.64,1.64 0 0 0 0.53,1.58 c 1.53,1.63 4,1.86 6.22,2 l 6,0.36 a 7,7 0 0 1 3.35,0.76 2.44,2.44 0 0 1 1.13,3 3.15,3.15 0 0 1 -1.37,1.23 12.81,12.81 0 0 1 -7.82,1.48 36.93,36.93 0 0 1 -6.37,-1.82 40.4,40.4 0 0 0 -16.31,-1.72 c -1.42,0.14 -3.09,0.55 -3.6,1.89 a 3,3 0 0 0 0.58,2.75 c 2.13,3 6.38,3.08 10,3.88 a 20.5,20.5 0 0 1 9.12,4.73 c -0.79,1.63 -0.13,3.56 0.66,5.19 a 33.78,33.78 0 0 0 3.21,5.31 6.79,6.79 0 0 0 2.69,2.42 6.88,6.88 0 0 0 2.26,0.39 95.9,95.9 0 0 0 22.19,-1.21 3.59,3.59 0 0 0 2.13,-0.89 3.66,3.66 0 0 0 0.69,-1.74 q 1.14,-5.6 2,-11.26 c 0.36,-2.38 0.51,-4.88 -0.66,-7.07 -0.91,-1.72 -2.35,-2.28 -3.82,-3.44 -3.28,-2.58 -5.32,-6.98 -9.53,-8.1 z"
       style="fill:#fbbebe"
       inkscape:connector-curvature="0" />
    <path
       id="path280-6"
       d="m 1226.9644,211.77832 15.51,76.92 a 3.77,3.77 0 0 1 -4.07,4.49 l -58.46,-5.77 a 3.75,3.75 0 0 1 -3.32,-3 l -14.33,-71.16 a 3.77,3.77 0 0 1 3.69,-4.51 h 57.29 a 3.78,3.78 0 0 1 3.69,3.03 z"
       style="fill:#3f3d56"
       inkscape:connector-curvature="0" />
    <path
       id="path282-2"
       d="m 1197.8744,303.29832 c -3.68,-2.36 -4.78,-7.09 -6.49,-11.11 a 69.05,69.05 0 0 0 -4.69,-8.56 c -1.49,-2.46 -3,-5.45 -1.8,-8.07 a 7.53,7.53 0 0 1 4.3,-3.5 8.52,8.52 0 0 1 5.31,-0.65 c 2,0.55 3.49,2.21 4.85,3.79 l 4.82,5.59 c 2.2,2.56 4.46,5.16 7.36,6.89 a 27.69,27.69 0 0 0 5.55,2.35 q 5.19,1.72 10.5,3 a 28.21,28.21 0 0 1 5.92,1.83 3.05,3.05 0 0 1 1.74,1.62 3.48,3.48 0 0 1 -0.61,2.65 c -1.22,2.28 -2.61,6.91 -5.17,7.72 a 41.74,41.74 0 0 1 -7.33,1.15 c -2.44,0.26 -4.36,-0.74 -6.56,-1.66 a 21.47,21.47 0 0 0 -8.67,-1.39 c -2.6,-0.01 -7.02,0.36 -9.03,-1.65 z"
       style="fill:#fbbebe"
       inkscape:connector-curvature="0" />
    <path
       id="path284-6"
       d="m 1229.8844,292.86832 c 0,0 -2.16,14.8 -16,13.21 0,0 7.33,2.93 6.56,4.56 -0.77,1.63 17,-3.18 17,-3.18 l 0.92,-7.72 c 0,0 0.59,-4.25 0,-4.37 -0.59,-0.12 -8.48,-2.5 -8.48,-2.5 z"
       style="fill:#454b69"
       inkscape:connector-curvature="0" />
    <path
       id="path286-1"
       d="m 1229.8844,292.86832 c 0,0 -2.16,14.8 -16,13.21 0,0 7.33,2.93 6.56,4.56 -0.77,1.63 17,-3.18 17,-3.18 l 0.92,-7.72 c 0,0 0.59,-4.25 0,-4.37 -0.59,-0.12 -8.48,-2.5 -8.48,-2.5 z"
       style="opacity:0.1"
       inkscape:connector-curvature="0" />
    <path
       id="path290-7"
       d="m 1351.5644,272.02832 a 14.47,14.47 0 0 0 1.17,10.74 q 7.47,-11.57 15.53,-22.73 3.87,-5.34 7.87,-10.61 c 2.15,-2.83 4.36,-5.71 5.44,-9.1 a 13.93,13.93 0 0 0 0.45,-1.8 10,10 0 0 0 -5.6,-4 c -3.63,10.52 -12.83,18.06 -19.4,27.05 a 30.73,30.73 0 0 0 -5.46,10.45 z"
       style="opacity:0.1"
       inkscape:connector-curvature="0" />
    <path
       id="path292-9"
       d="m 1305.2644,325.84832 21.75,0.74 c 1.86,0.06 4.15,0.43 4.73,2.19 0.18,0.56 0.14,1.17 0.32,1.72 0.61,2 3.26,2.22 5.33,2.21 1.8,0 3.6,0.07 5.39,0.21 a 3,3 0 0 0 -0.32,-1.4 c -0.37,-0.7 -1.06,-1.18 -1.44,-1.88 a 5.11,5.11 0 0 1 -0.34,-2.88 q 0.69,-9.37 2.26,-18.65 c 0.1,-0.56 0.2,-1.13 0.33,-1.69 -1.83,-0.93 -3.68,-1.81 -5.67,-1.6 -1.79,0.19 -3.43,1.25 -5.22,1.15 -3.11,-0.15 -5.25,-3.62 -8.35,-3.82 a 5.14,5.14 0 0 1 -2,-0.24 c -1,-0.5 -1.14,-1.8 -1.64,-2.77 -0.75,-1.43 -2.85,-1.78 -4.42,-1.41 a 64.74,64.74 0 0 1 -0.63,9.83 17,17 0 0 1 -1,4.18 19.9,19.9 0 0 1 -2.21,3.85 c -2.3,3.45 -4.54,6.82 -6.87,10.26 z"
       style="opacity:0.1"
       inkscape:connector-curvature="0" />
    <path
       id="path294-2"
       d="m 1377.5644,233.30832 c 3.87,1 6.61,4.6 7.74,8.43 1.13,3.83 0.93,7.9 0.83,11.88 a 236.25,236.25 0 0 0 3,44.21 c 1.14,7 2.6,14 2.17,21.11 -0.24,3.84 -1.11,7.8 -3.58,10.75 -3.88,4.66 -10.64,5.61 -16.7,5.38 -10.88,-0.43 -21.56,-3.61 -32.45,-3.55 -2.07,0 -4.71,-0.23 -5.33,-2.2 -0.18,-0.56 -0.14,-1.16 -0.32,-1.72 -0.57,-1.76 -2.86,-2.13 -4.72,-2.2 l -21.76,-0.73 c 2.33,-3.44 4.57,-6.82 6.9,-10.26 a 20.8,20.8 0 0 0 2.22,-3.85 17.54,17.54 0 0 0 1,-4.19 63.27,63.27 0 0 0 0.62,-9.82 c 1.57,-0.37 3.67,0 4.42,1.41 0.51,1 0.67,2.27 1.65,2.77 a 4.92,4.92 0 0 0 2,0.23 c 3.1,0.2 5.25,3.68 8.35,3.83 1.79,0.1 3.44,-1 5.22,-1.15 2.82,-0.29 5.34,1.57 7.93,2.71 a 16.78,16.78 0 0 0 13.43,0 c 0.64,-0.28 1.34,-1.07 0.82,-1.54 -0.35,-0.31 -0.93,-0.07 -1.35,-0.28 -0.8,-0.39 -0.22,-1.57 0.23,-2.34 1.26,-2.22 0.37,-5 -0.85,-7.28 -1.22,-2.28 -2.78,-4.49 -2.81,-7 a 14.3,14.3 0 0 0 0,-2.45 9.28,9.28 0 0 0 -1.82,-3.17 c -2.23,-3.26 -2.55,-7.57 -1.58,-11.41 a 31.06,31.06 0 0 1 5.31,-10.52 c 6.6,-8.98 15.8,-16.52 19.43,-27.05 z"
       style="fill:#454b69"
       inkscape:connector-curvature="0" />
    <path
       inkscape:connector-curvature="0"
       style="fill:#664447;fill-opacity:1;stroke-width:1.14734876"
       d="m 1304.3213,139.64387 c 0,0 -19.4407,-1.38862 -20.8293,-6.2488 -1.3887,-4.86019 -4.1659,-9.02605 -2.7773,-9.02605 1.3886,0 2.0831,-3.47155 2.0831,-3.47155 0,0 1.3886,-0.69431 2.0828,0 0.6945,0.69431 1.3887,-4.86017 1.3887,-4.86017 0,0 0.6943,-2.08293 1.3886,-0.69431 0.6943,1.38863 0.6943,0.69431 1.3887,-1.38862 0.6942,-2.08293 4.1658,-3.47156 4.1658,-3.47156 0,0 13.192,0.69431 15.2748,-2.08293 2.083,-2.77724 25.6896,-0.69432 30.5497,2.77724 4.8601,3.47156 26.3839,15.96917 22.9124,26.38383 -3.4716,10.41467 -15.9692,33.32694 -15.9692,36.79849 0,3.47156 -4.8601,2.77725 -6.2489,-0.6943 -1.3885,-3.47156 -12.4975,-7.63743 -12.4975,-9.72034 0,-2.08291 -6.2488,-21.52364 -9.7204,-20.13503 -3.4715,1.38861 -7.6374,12.49761 -9.0261,10.41468 -1.3886,-2.08293 -4.1659,-14.58058 -4.1659,-14.58058 z"
       id="path136-2" />
  </g>
</svg>
