<?xml version="1.0" encoding="UTF-8" standalone="no"?>
<svg
   xmlns:dc="http://purl.org/dc/elements/1.1/"
   xmlns:cc="http://creativecommons.org/ns#"
   xmlns:rdf="http://www.w3.org/1999/02/22-rdf-syntax-ns#"
   xmlns:svg="http://www.w3.org/2000/svg"
   xmlns="http://www.w3.org/2000/svg"
   xmlns:sodipodi="http://sodipodi.sourceforge.net/DTD/sodipodi-0.dtd"
   xmlns:inkscape="http://www.inkscape.org/namespaces/inkscape"
   width="972"
   height="737.01"
   data-name="Layer 1"
   version="1.1"
   viewBox="0 0 972 737.01"
   id="svg102"
   sodipodi:docname="undraw_master_plan_95wa.svg"
   inkscape:version="1.0.1 (1.0.1+r74)">
  <defs
     id="defs106" />
  <sodipodi:namedview
     pagecolor="#ffffff"
     bordercolor="#666666"
     borderopacity="1"
     objecttolerance="10"
     gridtolerance="10"
     guidetolerance="10"
     inkscape:pageopacity="0"
     inkscape:pageshadow="2"
     inkscape:window-width="3398"
     inkscape:window-height="1398"
     id="namedview104"
     showgrid="false"
     inkscape:zoom="0.87787139"
     inkscape:cx="486"
     inkscape:cy="368.505"
     inkscape:window-x="42"
     inkscape:window-y="42"
     inkscape:window-maximized="1"
     inkscape:current-layer="g64" />
  <metadata
     id="metadata2">
    <rdf:RDF>
      <cc:Work
         rdf:about="">
        <dc:format>image/svg+xml</dc:format>
        <dc:type
           rdf:resource="http://purl.org/dc/dcmitype/StillImage" />
        <dc:title>master_plan</dc:title>
      </cc:Work>
    </rdf:RDF>
  </metadata>
  <title
     id="title4">master_plan</title>
  <rect
     width="972"
     height="619"
     fill="#3f3d56"
     id="rect6"
     style="fill:#585172;fill-opacity:1" />
  <g
     fill="#f2f2f2"
     id="g14">
    <circle
       cx="88"
       cy="103"
       r="14"
       id="circle8" />
    <circle
       cx="427"
       cy="54"
       r="14"
       id="circle10" />
    <circle
       cx="418"
       cy="276"
       r="25"
       id="circle12" />
  </g>
  <circle
     cx="333"
     cy="62"
     r="6"
     fill="#3a93f2"
     id="circle16" />
  <circle
     cx="63"
     cy="303"
     r="6"
     fill="#f2f2f2"
     id="circle18" />
  <circle
     cx="894"
     cy="316"
     r="6"
     fill="#3a93f2"
     id="circle20" />
  <circle
     cx="240"
     cy="196"
     r="6"
     fill="#f2f2f2"
     id="circle22" />
  <circle
     cx="900"
     cy="62"
     r="6"
     fill="#f2f2f2"
     id="circle24" />
  <circle
     cx="88"
     cy="487"
     r="6"
     fill="#3a93f2"
     id="circle26" />
  <circle
     cx="810"
     cy="429"
     r="6"
     fill="#f2f2f2"
     id="circle28" />
  <circle
     cx="636"
     cy="56"
     r="6"
     fill="#3a93f2"
     id="circle30" />
  <g
     fill="#f2f2f2"
     id="g42">
    <path
       transform="translate(-114 -81.493)"
       d="m843 250.49a15 15 0 1 1 15-15 15.017 15.017 0 0 1-15 15zm0-28a13 13 0 1 0 13 13 13.015 13.015 0 0 0-13-13z"
       id="path32" />
    <path
       transform="translate(-114 -81.493)"
       d="m815 288.49a11 11 0 1 1 11-11 11.012 11.012 0 0 1-11 11zm0-20a9 9 0 1 0 9 9 9.0102 9.0102 0 0 0-9-9z"
       id="path34" />
    <path
       transform="translate(-114 -81.493)"
       d="m877 341.49a11 11 0 1 1 11-11 11.012 11.012 0 0 1-11 11zm0-20a9 9 0 1 0 9 9 9.0102 9.0102 0 0 0-9-9z"
       id="path36" />
    <path
       transform="translate(-114 -81.493)"
       d="m857 356.49a82 82 0 1 1 82-82 82.093 82.093 0 0 1-82 82zm0-162a80 80 0 1 0 80 80 80.09 80.09 0 0 0-80-80z"
       id="path38" />
    <path
       transform="translate(-114 -81.493)"
       d="m857 307.49c-68.411 0-122-14.495-122-33 0-10.783 15.905-20.048 44.786-26.09l0.41016 1.958c-27.452 5.7427-43.196 14.539-43.196 24.132 0 16.804 54.953 31 120 31s120-14.196 120-31c0-9.6118-15.798-18.419-43.343-24.163l0.4082-1.958c28.977 6.043 44.935 15.319 44.935 26.121 0 18.505-53.589 33-122 33z"
       id="path40" />
  </g>
  <path
     transform="translate(-114 -81.493)"
     d="m795.44 624.71c-2.7744 0-5.5772-0.04394-8.3281-0.12988l0.0625-1.998c3.9502 0.12305 7.9814 0.15723 11.95 0.10254l0.02735 2q-1.853 0.0249-3.7119 0.02539zm15.745-0.46387-0.11719-1.9961c3.9561-0.2334 7.9629-0.56152 11.909-0.97461l0.209 1.9883c-3.9766 0.41699-8.0137 0.74807-12.001 0.98242zm-36.096-0.31152c-3.9893-0.30566-8.0205-0.706-11.982-1.1924l0.24414-1.9844c3.9316 0.48145 7.9316 0.87989 11.891 1.1826zm60.039-2.1992-0.29981-1.9766c3.9307-0.59668 7.8916-1.2891 11.77-2.0596l0.38965 1.9609c-3.9082 0.77636-7.8984 1.4746-11.859 2.0752zm-83.935-0.73144c-3.9409-0.668-7.919-1.4356-11.823-2.2832l0.42431-1.9551c3.8745 0.84179 7.8218 1.6035 11.733 2.2656zm107.55-3.9619-0.48047-1.9414c3.8584-0.95411 7.7383-2.0088 11.532-3.1338l0.56836 1.918c-3.8233 1.1338-7.7324 2.1963-11.62 3.1572zm-131.08-1.1465c-3.8657-1.0283-7.7559-2.1592-11.562-3.3633l0.60254-1.9062c3.7778 1.1943 7.6382 2.3164 11.474 3.3359zm154.16-5.7012-0.65625-1.8887c3.7441-1.3018 7.5098-2.709 11.194-4.1836l0.74218 1.8574c-3.7119 1.4854-7.5068 2.9033-11.28 4.2148zm-177.15-1.5664c-3.7544-1.3799-7.5322-2.8691-11.228-4.4258l0.77637-1.8438c3.667 1.5449 7.4155 3.0225 11.142 4.3926zm199.47-7.3682-0.82812-1.8203c3.5957-1.6338 7.21-3.3779 10.742-5.1836l0.91016 1.7812c-3.5596 1.8194-7.2012 3.5762-10.824 5.2227zm-221.71-1.9941c-3.6089-1.7197-7.2314-3.5488-10.766-5.4375l0.94238-1.7637c3.5078 1.874 7.102 3.6895 10.684 5.3965zm243.11-8.9443-0.99023-1.7363c3.4482-1.9678 6.8906-4.0361 10.229-6.1484l1.0684 1.6895c-3.3643 2.1289-6.832 4.2139-10.308 6.1953zm-264.38-2.418c-3.4326-2.042-6.8701-4.1953-10.216-6.3994l1.1006-1.6699c3.3203 2.1875 6.7314 4.3242 10.138 6.3506zm284.7-10.439-1.1445-1.6387c3.2471-2.2686 6.4873-4.6445 9.6309-7.0606l1.2188 1.5859c-3.167 2.4346-6.4326 4.8282-9.7051 7.1133zm-304.83-2.8164c-3.228-2.3447-6.4526-4.8008-9.585-7.3018l1.248-1.5625c3.1084 2.4814 6.3086 4.919 9.5117 7.2451zm323.9-11.846-1.2891-1.5293c3.0264-2.5537 6.0381-5.2148 8.9531-7.9102l1.3574 1.4688c-2.9365 2.7158-5.9717 5.3975-9.0215 7.9707zm-342.73-3.1856c-3.0063-2.6328-5.9932-5.3711-8.877-8.1396l1.3848-1.4434c2.8623 2.748 5.8262 5.4658 8.8096 8.0791zm360.4-13.161-1.4238-1.4043c2.79-2.8272 5.5498-5.7529 8.2012-8.6953l1.4863 1.3379c-2.6719 2.9658-5.4522 5.9131-8.2637 8.7617zm-377.77-3.5117c-2.7583-2.9004-5.4824-5.8984-8.0967-8.9102l1.5108-1.3105c2.5942 2.9892 5.2974 5.9639 8.0352 8.8418zm393.89-14.38-1.5449-1.2695c2.5205-3.0674 5.002-6.2324 7.3779-9.4092l1.6016 1.1973c-2.3936 3.2012-4.8946 6.3916-7.4346 9.4815zm-409.67-3.7969c-2.477-3.1299-4.916-6.3613-7.2495-9.6045l1.623-1.168c2.3159 3.2178 4.7363 6.4248 7.1948 9.5322zm424.1-15.497-1.6543-1.123c2.2305-3.2842 4.415-6.6641 6.4922-10.048l1.7051 1.0469c-2.0948 3.4092-4.2959 6.8154-6.543 10.124zm-438.15-4.0293c-2.1792-3.3408-4.312-6.7783-6.3398-10.22l1.7226-1.0156c2.0127 3.415 4.1294 6.8272 6.292 10.142zm450.77-16.511-1.75-0.96679c1.9199-3.4746 3.7852-7.043 5.5459-10.606l1.793 0.88672c-1.7736 3.5899-3.6544 7.1856-5.5889 10.687zm-462.97-4.2051c-1.8652-3.5254-3.6738-7.1426-5.3755-10.75l1.8086-0.85351c1.689 3.5801 3.4834 7.1699 5.3345 10.668zm473.65-17.416-1.832-0.80274c1.5938-3.6396 3.124-7.3672 4.5488-11.078l1.8672 0.7168c-1.4356 3.7402-2.9786 7.4961-4.584 11.164zm-483.9-4.3154c-1.5332-3.6797-3.0015-7.4443-4.3638-11.19l1.8799-0.68359c1.3516 3.7178 2.8086 7.4531 4.3296 11.104zm492.55-18.216-1.8984-0.62891c1.248-3.7607 2.4258-7.6045 3.5-11.426l1.9258 0.541c-1.083 3.8506-2.2705 7.7246-3.5274 11.514zm-500.77-4.3828c-1.19-3.8115-2.3081-7.7051-3.3232-11.574l1.9346-0.50781c1.0073 3.8398 2.1172 7.7041 3.2979 11.486zm507.29-18.795-1.9482-0.45312c0.89551-3.8545 1.7139-7.791 2.4336-11.698l1.9668 0.36133c-0.72461 3.9385-1.5498 7.9043-2.4522 11.79zm-513.39-4.4941c-0.834-3.9062-1.5889-7.8857-2.2432-11.83l1.9727-0.32813c0.6499 3.915 1.3989 7.8643 2.2266 11.74zm517.75-19.184-1.9824-0.27148c0.53808-3.917 0.99218-7.9111 1.3506-11.872l1.9922 0.17968c-0.36137 3.9922-0.81938 8.0166-1.3604 11.964zm-521.69-4.5664c-0.47168-3.959-0.85889-7.9912-1.1514-11.984l1.9951-0.14649c0.28955 3.9639 0.67432 7.9648 1.1426 11.895zm523.87-19.409-1.998-0.08984c0.17773-3.9629 0.26855-7.9824 0.26855-11.946h2c-7e-5 3.9941-0.0909 8.044-0.27059 12.036zm-525.63-4.6016c-0.06836-2.4522-0.103-4.9541-0.10352-7.4346q0-2.3086 0.03955-4.6084l2 0.03516q-0.03954 2.2822-0.03955 4.5732c4.9e-4 2.4619 0.03516 4.9453 0.10254 7.3799zm523.88-10.225c-0.041-3.9653-0.17383-7.9844-0.39355-11.946l1.9961-0.11132c0.22168 3.9922 0.35547 8.0415 0.39746 12.036zm-521.47-13.723-1.9961-0.125c0.24951-3.9961 0.59424-8.0322 1.0234-11.997l1.9883 0.21533c-0.42627 3.9346-0.76758 7.94-1.0156 11.906zm520.14-10.135c-0.39941-3.9429-0.89648-7.9321-1.4766-11.858l1.9785-0.292c0.584 3.9556 1.085 7.9751 1.4883 11.948zm-517.57-13.618-1.9766-0.30567c0.6128-3.9565 1.3247-7.9443 2.1162-11.854l1.96 0.39648c-0.78519 3.8799-1.4917 7.8374-2.0996 11.763zm514.07-10.016c-0.76269-3.9014-1.623-7.8286-2.5586-11.672l1.9434-0.47266c0.94238 3.873 1.8096 7.8306 2.5781 11.761zm-509.34-13.401-1.9399-0.48633c0.97119-3.8735 2.0469-7.7793 3.1973-11.609l1.915 0.5752c-1.1411 3.8008-2.2084 7.6768-3.1723 11.521zm503.68-9.8135c-1.1152-3.8081-2.334-7.6387-3.6221-11.387l1.8906-0.65039c1.2988 3.7769 2.5273 7.6377 3.6514 11.475zm-496.8-13.1-1.8867-0.66308c1.3291-3.7808 2.7642-7.5796 4.2651-11.291l1.8545 0.75c-1.4898 3.6826-2.9141 7.4526-4.2329 11.204zm489.03-9.4946c-1.459-3.6807-3.0215-7.3745-4.6445-10.979l1.8242-0.82129c1.6357 3.6328 3.21 7.355 4.6797 11.063zm-480.06-12.703-1.8174-0.835c1.6704-3.6377 3.4482-7.2856 5.2842-10.842l1.7773 0.917c-1.8223 3.5298-3.5864 7.1499-5.2441 10.76zm470.27-9.0356c-1.79-3.5308-3.6865-7.0688-5.6367-10.515l1.7402-0.98535c1.9658 3.4727 3.876 7.0376 5.6797 10.596zm-459.29-12.229-1.7334-0.99805c1.9951-3.4644 4.0991-6.9321 6.2539-10.306l1.6855 1.0762c-2.1382 3.3486-4.2266 6.79-6.206 10.228zm447.54-8.5352c-2.1133-3.3642-4.3262-6.7158-6.5772-9.9619l1.6426-1.1396c2.2686 3.271 4.499 6.648 6.6279 10.038zm-434.67-11.624-1.6348-1.1524c2.3057-3.27 4.7163-6.5293 7.1665-9.6875l1.5801 1.2256c-2.4312 3.1348-4.8242 6.3691-7.1118 9.6143zm421.06-7.9922c-2.4102-3.1567-4.9199-6.2949-7.4619-9.3272l1.5332-1.2847c2.5606 3.0557 5.0898 6.2173 7.5186 9.398zm-406.41-10.899-1.5225-1.2969c2.5874-3.0391 5.2842-6.064 8.0151-8.9907l1.4619 1.3642c-2.71 2.9048-5.3863 5.9072-7.9546 8.9233zm391.07-7.4082c-2.6865-2.9243-5.4736-5.8228-8.2822-8.6138l1.4102-1.4189c2.8301 2.813 5.6377 5.7329 8.3447 8.6792zm-374.77-10.064-1.3984-1.4297c2.8599-2.7978 5.8193-5.564 8.7954-8.2212l1.332 1.4922c-2.9537 2.6368-5.8907 5.3819-8.729 8.1587zm357.82-6.7798c-2.9443-2.6704-5.9844-5.3042-9.0352-7.8281l1.2754-1.541c3.0732 2.543 6.1367 5.1968 9.1035 7.8877zm-340-9.1318-1.2627-1.5508c3.0933-2.519 6.29-5.0034 9.502-7.3843l1.1914 1.6064c-3.188 2.3633-6.3608 4.8286-9.4307 7.3286zm321.58-6.1069c-3.1768-2.3921-6.4453-4.7393-9.7148-6.9761l1.1289-1.6504c3.2949 2.2534 6.5879 4.6182 9.7891 7.0288zm-302.4-8.1104-1.1162-1.6592c3.3106-2.2275 6.7188-4.4087 10.13-6.4844l1.0391 1.709c-3.3852 2.0596-6.7676 4.2246-10.053 6.4346zm282.66-5.3911c-3.3799-2.0918-6.8506-4.1309-10.315-6.0615l0.97266-1.7471c3.4922 1.9453 6.9893 4.0005 10.396 6.1074zm-262.27-7.0103-0.96-1.7549c3.5024-1.9165 7.0938-3.7759 10.674-5.5273l0.87891 1.7969c-3.5527 1.7378-7.1167 3.583-10.593 5.4854zm241.37-4.6338c-3.5586-1.7729-7.2041-3.4858-10.835-5.0908l0.8086-1.8291c3.6592 1.6172 7.333 3.3433 10.919 5.1299zm-219.95-5.8442-0.79492-1.835c3.6602-1.5864 7.4043-3.1079 11.128-4.5225l0.71 1.8701c-3.6954 1.4034-7.4107 2.9131-11.043 4.4874zm198.05-3.8345c-3.7031-1.436-7.4932-2.8062-11.266-4.0718l0.63671-1.8965c3.8008 1.2759 7.6201 2.6562 11.352 4.104zm-175.74-4.6367-0.62305-1.9004c3.8008-1.2461 7.6787-2.4194 11.525-3.4863l0.53467 1.9268c-3.8174 1.0591-7.6655 2.2232-11.437 3.46zm153.06-2.9737c-3.8144-1.0874-7.7051-2.1001-11.563-3.0098l0.459-1.9463c3.8887 0.9165 7.8086 1.937 11.653 3.0322zm-130.04-3.4155-0.44531-1.9497c3.8965-0.89014 7.8657-1.7012 11.797-2.4102l0.35547 1.9678c-3.9019 0.70415-7.8403 1.5088-11.707 2.3921zm106.79-2.0669c-3.8945-0.731-7.8613-1.3814-11.791-1.9331l0.27734-1.9805c3.96 0.55615 7.958 1.2114 11.883 1.9478zm-83.275-2.1763-0.26465-1.9824c3.959-0.52832 7.9854-0.97266 11.967-1.3193l0.17383 1.9922c-3.9512 0.34477-7.9463 0.7852-11.876 1.3096zm59.616-1.1475c-3.9395-0.37109-7.9492-0.65723-11.919-0.84912l0.09766-1.998c3.999 0.19385 8.0391 0.48194 12.009 0.856zm-35.814-0.9292-0.084-1.998c3.6758-0.15332 7.4219-0.23144 11.136-0.23242l0.90527 0.00147-0.00585 2-0.89942-0.00147c-3.6855 9.7e-4 -7.4043 0.0786-11.052 0.23046z"
     fill="#3a93f2"
     id="path44" />
  <path
     transform="translate(-114 -81.493)"
     d="m569.91 467.5c9.3661-11.33 19.941-21.981 32.848-29.018s28.455-10.159 42.547-5.9746c10.52 3.1238 19.486 9.9958 27.784 17.176 17.002 14.712 32.679 31.555 52.733 41.721s46.478 12.063 63.511-2.6124c13.481-11.615 19.228-31.732 35.327-39.313 15.869-7.473 34.27 0.55161 50.373 7.5057a421.23 421.23 0 0 0 67.648 22.63c15.66 3.799 31.791 6.7111 47.832 5.1833s32.142-7.9497 42.604-20.205"
     fill="#f2f2f2"
     id="path46" />
  <path
     transform="translate(-114 -81.493)"
     d="m493.45 411.22h40.377a141.22 141.22 0 0 0 0-48.141h-40.377a86.622 86.622 0 0 1 0 48.141z"
     fill="#38bc24"
     id="path48" />
  <path
     transform="translate(-114 -81.493)"
     d="m166.45 433.22h40.377a141.22 141.22 0 0 0 0-48.141h-40.377a86.622 86.622 0 0 1 0 48.141z"
     fill="#38bc24"
     id="path50" />
  <path
     transform="translate(-114 -81.493)"
     d="m869.45 287.22h40.377a141.22 141.22 0 0 0 0-48.141h-40.377a86.622 86.622 0 0 1 0 48.141z"
     fill="#9246f4"
     id="path52" />
  <polygon
     points="206.69 657.43 198.22 684.36 224.38 686.67 222.08 657.43"
     fill="#ffb9b9"
     id="polygon54" />
  <polygon
     points="333.64 678.2 333.64 715.14 363.65 715.14 355.19 678.2"
     fill="#ffb9b9"
     id="polygon56" />
  <g
     fill="#2f2e41"
     id="g64">
    <path
       transform="translate(-114 -81.493)"
       d="m340.69 491.17-12.311 116.95s-15.389 103.1-12.311 119.26-0.76943 18.466-0.76943 18.466h23.083s-0.76942-10.003 3.8471-14.619 2.3083-18.466 2.3083-18.466l58.476-178.51 33.085 100.03s5.386 110.03 6.1554 111.57 3.0777 22.313 3.0777 22.313h28.469s-3.8471-12.311 1.5389-16.158 10.003-0.76942 5.386-7.6943-6.1554-15.389-4.6166-19.236 1.5389-19.236 1.5389-19.236-2.3083-207.75-15.389-214.67-121.57 6e-5 -121.57 6e-5z"
       id="path58" />
    <path
       transform="translate(-114 -81.493)"
       d="m455.78 777.06s-13.157-1.9735-13.157-1.3156-15.788 43.417 0 42.759 75.65-9.2096 71.703-24.997-23.682-11.183-23.682-11.183l-17.761-9.8674z"
       id="path60"
       style="fill:#2f2e41;fill-opacity:1" />
    <path
       transform="translate(-114 -81.493)"
       d="m326.24 763.43s13.157-1.9735 13.157-1.3157 15.788 43.417 0 42.759-75.65-9.2096-71.703-24.997 23.682-11.183 23.682-11.183l17.761-9.8674z"
       id="path62"
       style="fill:#2f2e41;fill-opacity:1" />
  </g>
  <path
     transform="translate(-114 -81.493)"
     d="m389.16 585.03h38.856a135.9 135.9 0 0 0 0-46.328h-38.856a83.36 83.36 0 0 1 0 46.328z"
     fill="#d0cde1"
     id="path66" />
  <path
     transform="translate(-114 -81.493)"
     d="m377.84 586.65h38.856a135.9 135.9 0 0 0 0-46.328h-38.856a83.36 83.36 0 0 1 0 46.328z"
     fill="#38bc24"
     id="path68" />
  <circle
     cx="289.99"
     cy="159.6"
     r="30.279"
     fill="#ffb9b9"
     id="circle70" />
  <path
     transform="translate(-114 -81.493)"
     d="m379.93 237.26s-5.386 53.86-12.311 57.707 53.09 7.6943 53.09 7.6943-14.619-49.243-10.003-53.86-30.777-11.541-30.777-11.541z"
     fill="#ffb9b9"
     id="path72" />
  <path
     transform="translate(-114 -81.493)"
     d="m444.57 293.43s-21.544-20.775-46.166-16.927-42.318 8.4637-42.318 8.4637-37.702 20.005-38.471 36.163 13.85 76.943 13.85 76.943 6.9248 99.256 7.6943 99.256 130.03-1.5388 130.03-1.5388l-23.852-129.26z"
     fill="#9246f4"
     id="path74" />
  <path
     transform="translate(-114 -81.493)"
     d="m439.53 478.57c-4.9859 1.3465-13.58-0.51555-22.552-3.4547-16.004-5.2552-33.201-13.957-33.201-13.957s-55.399-22.313-71.557-33.855-5.386-57.707-5.386-57.707l24.622 7.6943-1.5389 28.469 60.785 39.241a137.13 137.13 0 0 1 28.138 5.6553c10.233 3.3624 20.174 8.6022 23.768 16.65a15.574 15.574 0 0 1 1.185 3.8548c0.73092 4.2472-0.99257 6.517-4.2626 7.4096z"
     fill="#ffb9b9"
     id="path76" />
  <path
     transform="translate(-114 -81.493)"
     d="m442.61 467.31c-1.0694 3.9856-2.1082 7.7789-3.0777 11.264-4.9859 1.3465-13.58-0.51555-22.552-3.4547l1.8621-24.46c10.233 3.3624 20.174 8.6022 23.768 16.65z"
     opacity=".15"
     id="path78" />
  <path
     transform="translate(-114 -81.493)"
     d="m431.49 354.98-4.6166 40.78-7.6558 100.62s-42.357 50.957-18.505 52.496 36.932-50.013 36.932-50.013 23.852-81.559 23.083-98.487 0-45.396 0-45.396z"
     fill="#ffb9b9"
     id="path80" />
  <path
     transform="translate(-114 -81.493)"
     d="m438.19 237.71a7.8987 7.8987 0 0 0 2.1774-1.3117c1.653-1.6042 1.3743-4.3226 0.6565-6.5114s-1.7666-4.4517-1.2526-6.6971c0.23951-1.0463 0.80972-2.0033 0.97261-3.0642 0.38733-2.5228-1.6254-4.8221-3.8531-6.0678s-4.7901-1.8593-6.8954-3.3022c-3.2288-2.2128-5.0116-6.1154-8.2895-8.2547-3.2056-2.0921-7.2787-2.1569-11.107-2.1526l-11.428 0.01273c-5.9722 0.00666-12.535 0.22807-16.98 4.2169-1.3519 1.2132-2.4227 2.7156-3.7918 3.9094-2.7574 2.4044-6.4789 3.3641-9.541 5.3661a16.547 16.547 0 0 0-7.3472 13.935c0.10813 5.0708 2.5797 9.9968 1.9376 15.028-0.43079 3.375-2.2526 6.6179-1.774 9.9865 0.56759 3.9949 4.2321 6.8567 7.9902 8.326s7.8551 1.9969 11.512 3.7033c2.9846 1.3929 6.1026 3.6131 9.2487 2.6385 2.6616-0.82455 4.122-3.6355 5.0756-6.2536a51.037 51.037 0 0 0 2.4464-9.4424c0.38291-2.4074 0.63683-4.9589 2.0506-6.9448a7.9962 7.9962 0 0 1 7.1498-3.0838c6.1706 0.54238 9.6442 11.052 15.319 8.5664 2.8138-1.2324 4.9758-4.9208 7.2296-6.932a36.297 36.297 0 0 1 8.4935-5.6702z"
     fill="#2f2e41"
     id="path82" />
  <path
     transform="translate(-114 -81.493)"
     d="m326.84 314.2s-15.389 5.386-21.544 26.93-3.8471 36.163-3.8471 36.163l32.316 5.386z"
     fill="#9246f4"
     id="path84" />
  <path
     transform="translate(-114 -81.493)"
     d="m429.18 291.89s27.699-6.1554 31.546 20.005a418.74 418.74 0 0 1 3.8471 53.09s-26.16-12.311-37.702 0z"
     fill="#9246f4"
     id="path86" />
  <g
     fill="#f2f2f2"
     id="g100">
    <rect
       x="387"
       y="297"
       width="27"
       height="3"
       id="rect88" />
    <rect
       x="60"
       y="322"
       width="27"
       height="3"
       id="rect90" />
    <rect
       x="387"
       y="304"
       width="27"
       height="3"
       id="rect92" />
    <rect
       x="764"
       y="169"
       width="27"
       height="3"
       id="rect94" />
    <rect
       x="764"
       y="183"
       width="27"
       height="3"
       id="rect96" />
    <rect
       x="764"
       y="176"
       width="27"
       height="3"
       id="rect98" />
  </g>
</svg>
