<?xml version="1.0" encoding="UTF-8" standalone="no"?>
<svg
   xmlns:dc="http://purl.org/dc/elements/1.1/"
   xmlns:cc="http://creativecommons.org/ns#"
   xmlns:rdf="http://www.w3.org/1999/02/22-rdf-syntax-ns#"
   xmlns:svg="http://www.w3.org/2000/svg"
   xmlns="http://www.w3.org/2000/svg"
   xmlns:sodipodi="http://sodipodi.sourceforge.net/DTD/sodipodi-0.dtd"
   xmlns:inkscape="http://www.inkscape.org/namespaces/inkscape"
   width="1081.6"
   height="714.77"
   data-name="Layer 1"
   version="1.1"
   viewBox="0 0 1081.6 714.77"
   id="svg116"
   sodipodi:docname="undraw_to_the_moon_v1mv.svg"
   inkscape:version="1.0.1 (1.0.1+r74)">
  <defs
     id="defs120" />
  <sodipodi:namedview
     pagecolor="#ffffff"
     bordercolor="#666666"
     borderopacity="1"
     objecttolerance="10"
     gridtolerance="10"
     guidetolerance="10"
     inkscape:pageopacity="0"
     inkscape:pageshadow="2"
     inkscape:window-width="3398"
     inkscape:window-height="1398"
     id="namedview118"
     showgrid="false"
     inkscape:snap-page="true"
     inkscape:zoom="256"
     inkscape:cx="475.34765"
     inkscape:cy="49.9931"
     inkscape:window-x="42"
     inkscape:window-y="42"
     inkscape:window-maximized="1"
     inkscape:current-layer="layer1" />
  <metadata
     id="metadata2">
    <rdf:RDF>
      <cc:Work
         rdf:about="">
        <dc:format>image/svg+xml</dc:format>
        <dc:type
           rdf:resource="http://purl.org/dc/dcmitype/StillImage" />
        <dc:title>to_the_moon</dc:title>
      </cc:Work>
    </rdf:RDF>
  </metadata>
  <title
     id="title4">to_the_moon</title>
  <g
     inkscape:groupmode="layer"
     id="layer2"
     inkscape:label="bg"
     style="display:none">
    <rect
       style="display:inline;fill:#27262b;fill-opacity:1;stroke:none;stroke-width:0.4;stroke-linejoin:round"
       id="rect982"
       width="1081.6"
       height="714.77002"
       x="0"
       y="0" />
  </g>
  <g
     inkscape:groupmode="layer"
     id="layer1"
     inkscape:label="Layer 1">
    <path
       id="circle6"
       style="fill:#9246f4;fill-opacity:1;stroke:none"
       d="M 546.30859 3.9609375 A 83.978996 83.978996 0 0 0 472.79102 47.609375 C 504.66551 86.124948 522.28265 138.03012 589.88281 159.81445 A 83.978996 83.978996 0 0 0 630.42969 87.939453 A 83.978996 83.978996 0 0 0 546.44922 3.9609375 A 83.978996 83.978996 0 0 0 546.30859 3.9609375 z " />
    <path
       d="m103.64 688.04c103.55 51.121 276.78 21.56 371.77-26.951s229.29-33.688 368.5-53.901 242.39-136.1 237.48-241.21c-2.5061-53.613-4.4707-153.12-96.316-187.86-88.217-33.373-264.81-2.9334-344.24-8.875-162.14-12.128-126.11-146.88-244.03-165.75-117.92-18.865-378.32 39.078-394.7 165.75-16.378 126.67 68.786 134.75 62.235 229.08-6.5511 94.327-121.93 210.12 39.306 289.72z"
       fill="#3f3d56"
       fill-rule="evenodd"
       id="path8"
       style="fill:#000000;fill-opacity:0.85000002" />
    <g
       transform="matrix(-0.99993,0.011721,0.011721,0.99993,2121.8,-138.15)"
       id="g48">
      <rect
         transform="rotate(25.881)"
         x="1903.4"
         y="-621.29"
         width="2.8744"
         height="58.063"
         fill="#e6e6e6"
         id="rect10" />
      <g
         transform="rotate(52.114 1252 1646.5)"
         fill="#e6e6e6"
         id="g16">
        <path
           d="m585.3 445.98 5.174 8.623-1.725 2.874 12.073 6.324v-3.449l4.599-1.15 28.981-58.371-21.746-27.033z"
           id="path12" />
        <path
           transform="translate(-137,-75.5)"
           d="m728.05 532.41s-19.546 30.469 2.2995 35.068 4.0242-32.194 4.0242-32.194z"
           id="path14" />
      </g>
      <path
         d="m1963 353.51a43.691 43.691 0 1 1-59.485-57.825l0.015-5e-3a43.687 43.687 0 0 1 59.469 57.83z"
         fill="#38bc24"
         id="path18"
         style="fill:#3a93f2;fill-opacity:1" />
      <g
         transform="rotate(25.881 1240.7 3094.8)"
         opacity=".1"
         id="g22">
        <path
           transform="translate(-137,-75.5)"
           d="m824.75 370.57-3.5643 20.414c-26.784-69.527-69.389-26.818-70.124-26.071a43.691 43.691 0 0 1 73.689 5.6569z"
           id="path20" />
      </g>
      <path
         d="m1967.3 332.93-12.118 16.811c6.2512-74.245-50.723-54.417-51.711-54.066a43.691 43.691 0 0 1 63.829 37.255z"
         fill="#fff"
         id="path24" />
      <path
         d="m1965.7 322.56-3.6866 21.319s-27.451 28.099-79.889 4.1015l-4.0235 3.9643-6.4423-1.2087-7.8559 9.607-26.134 72.304s-6.3656 5.2183-0.9424 7.2105c0 0 39.658 5.1832 64.12 29.831 0 0 4.952 5.5974 6.1607-0.84487 0 0 26.963-2.893 31.935-17.094 4.9728-14.201 38.44-75.279 38.44-75.279s11.886-16.597 4.5837-25.252c0-6e-5 -4.3881-25.773-16.266-28.66z"
         fill="#fff"
         id="path26" />
      <g
         fill="#e6e6e6"
         id="g38">
        <g
           transform="rotate(-19.089 1439.3 -3358.8)"
           id="g32">
          <path
             transform="translate(-137,-75.5)"
             d="m807.3 504.92s-36.018 3.6171-26.048 23.591 27.725-16.851 27.725-16.851z"
             id="path28" />
          <path
             transform="translate(-137,-75.5)"
             d="m825.78 415.7s-6.3237 7.4735-4.0242 19.546 10.923 39.092 10.923 39.092l-30.469 28.169 9.1982 12.648 41.392-21.271 9.1982-5.7489a238.51 238.51 0 0 0-16.892-67.64l-1.5045-3.6454s-10.923-4.5991-17.821-1.1498z"
             id="path30" />
        </g>
        <circle
           transform="rotate(25.881)"
           cx="1912.3"
           cy="-542.82"
           r="10.635"
           id="circle34" />
        <circle
           transform="rotate(25.881)"
           cx="1904.9"
           cy="-621.58"
           r="7.761"
           id="circle36" />
      </g>
      <g
         fill="#fff"
         id="g46">
        <path
           d="m1839.8 435.45-18.586 14.312-18.956 21.798-10.202 5.4555-22.216 41.326 2.1918 12.822-23.292 39.86-11.959 16.891-2.0482 21.795-23.016 8.1656c-4.7795 1.6858-5.7644 8.0113-1.7235 11.07 2.4874 1.861 6.3353 3.5105 12.274 4.3398 18.589 2.5961 22.771-4.3047 22.771-4.3047s8.4453 5.9796 13.565-0.25676c5.1201-6.2364 32.71-57.141 32.71-57.141l9.1237-23.829 38.868-54.895 28.8-45.268z"
           id="path40" />
        <path
           d="m1839.3 492.86c7.4588-4.2704 14.329-1.6618 18.126 3.832l28.842-56.067-29.733-3.087z"
           fill-rule="evenodd"
           id="path42" />
        <path
           d="m1898.9 569.29 4.2149 8.1959 40.666 82.841s-23.935 24.971-29.242 19.433c-5.3073-5.5371 4.6845-16.846 4.6845-16.846l-15.942-9.9072-16.48-27.655-1.0622-7.3977-19.393-42.651zm3.5712-61.923-0.093 57.5-4.7825 21.362-31.249-10.926-8.7912-9.0384-4.7038-5.6634-0.8454-45.983 5.4203-17.924 1.4496-14.976 8.7742-23.161c10.154-14.773 23.737-8.8724 37.37-2.6709z"
           id="path44" />
      </g>
    </g>
    <g
       transform="matrix(1.1788,0,0,1.1788,1.2289,-121.42)"
       stroke-width=".84828"
       id="g108">
      <g
         stroke-width=".84828"
         id="g60">
        <g
           fill="#f2f2f2"
           id="g54">
          <circle
             cx="740"
             cy="564"
             r="7"
             id="circle50" />
          <circle
             cx="410"
             cy="339"
             r="7"
             id="circle52" />
        </g>
        <circle
           cx="757"
           cy="297"
           r="4"
           fill="#38bc24"
           id="circle56"
           style="fill:#38bc24;fill-opacity:1" />
        <circle
           cx="154"
           cy="497"
           r="4"
           fill="#38bc24"
           id="circle58"
           style="fill:#38bc24;fill-opacity:1" />
      </g>
      <g
         fill="#f2f2f2"
         id="g98">
        <g
           stroke-width=".84828"
           id="g80">
          <polygon
             points="92.178 583.5 92.178 581.68 94 581.68 94 581.32 92.178 581.32 92.178 579.5 91.822 579.5 91.822 581.32 90 581.32 90 581.68 91.822 581.68 91.822 583.5"
             id="polygon62" />
          <polygon
             points="828.18 405.5 828.18 403.68 830 403.68 830 403.32 828.18 403.32 828.18 401.5 827.82 401.5 827.82 403.32 826 403.32 826 403.68 827.82 403.68 827.82 405.5"
             id="polygon64" />
          <polygon
             points="503.18 485.5 503.18 483.68 505 483.68 505 483.32 503.18 483.32 503.18 481.5 502.82 481.5 502.82 483.32 501 483.32 501 483.68 502.82 483.68 502.82 485.5"
             id="polygon66" />
          <polygon
             points="784.18 495.5 784.18 493.68 786 493.68 786 493.32 784.18 493.32 784.18 491.5 783.82 491.5 783.82 493.32 782 493.32 782 493.68 783.82 493.68 783.82 495.5"
             id="polygon68" />
          <polygon
             points="445.18 538.5 445.18 536.68 447 536.68 447 536.32 445.18 536.32 445.18 534.5 444.82 534.5 444.82 536.32 443 536.32 443 536.68 444.82 536.68 444.82 538.5"
             id="polygon70" />
          <polygon
             points="573.18 540.5 573.18 538.68 575 538.68 575 538.32 573.18 538.32 573.18 536.5 572.82 536.5 572.82 538.32 571 538.32 571 538.68 572.82 538.68 572.82 540.5"
             id="polygon72" />
          <polygon
             points="94.178 370.5 94.178 368.68 96 368.68 96 368.32 94.178 368.32 94.178 366.5 93.822 366.5 93.822 368.32 92 368.32 92 368.68 93.822 368.68 93.822 370.5"
             id="polygon74" />
          <polygon
             points="479.18 354.5 479.18 352.68 481 352.68 481 352.32 479.18 352.32 479.18 350.5 478.82 350.5 478.82 352.32 477 352.32 477 352.68 478.82 352.68 478.82 354.5"
             id="polygon76" />
          <circle
             cx="556"
             cy="267"
             r="4"
             id="circle78" />
        </g>
        <g
           stroke-width=".74837"
           id="g88">
          <polygon
             transform="matrix(-.86012 .42983 .42983 .86012 1066.1 -262.82)"
             points="677.18 435.5 677.18 433.68 679 433.68 679 433.32 677.18 433.32 677.18 431.5 676.82 431.5 676.82 433.32 675 433.32 675 433.68 676.82 433.68 676.82 435.5"
             id="polygon82" />
          <polygon
             transform="matrix(-.86012 .42983 .42983 .86012 662 -516.67)"
             points="677.18 433.32 677.18 431.5 676.82 431.5 676.82 433.32 675 433.32 675 433.68 676.82 433.68 676.82 435.5 677.18 435.5 677.18 433.68 679 433.68 679 433.32"
             id="polygon84" />
          <polygon
             transform="matrix(-.86012 .42983 .42983 .86012 695.53 -23.932)"
             points="677.18 433.32 677.18 431.5 676.82 431.5 676.82 433.32 675 433.32 675 433.68 676.82 433.68 676.82 435.5 677.18 435.5 677.18 433.68 679 433.68 679 433.32"
             id="polygon86" />
        </g>
        <g
           stroke-width=".84828"
           id="g96">
          <circle
             cx="152.98"
             cy="163.56"
             r="4"
             id="circle90" />
          <circle
             cx="376.35"
             cy="635.64"
             r="2.8305"
             id="circle92" />
          <circle
             cx="140.12"
             cy="637.98"
             r="6.7288"
             id="circle94" />
        </g>
      </g>
      <g
         fill="#38bc24"
         stroke-width=".84828"
         id="g106">
        <circle
           cx="340.88"
           cy="216.58"
           r="4"
           id="circle100"
           style="fill:#38bc24;fill-opacity:1" />
        <circle
           cx="667.55"
           cy="487.11"
           r="7.1186"
           id="circle102" />
        <circle
           cx="395.46"
           cy="450.47"
           r="2.4407"
           id="circle104" />
      </g>
    </g>
    <g
       transform="matrix(1.1328,0,0,1.1328,-1452,-56.741)"
       stroke-width=".88273"
       id="g114">
      <path
         d="m1933.2 390.74a41.51 41.51 0 0 1-38.88 41.43c-0.87 0.06-1.75 0.09-2.63 0.09a41.51 41.51 0 1 1 20.76-77.47 41.9 41.9 0 0 1 12.37 10.95 41.3 41.3 0 0 1 8.38 25z"
         fill="#f2f2f2"
         id="path110" />
      <path
         d="m1925.6 414.65a41.41 41.41 0 0 1-31.31 17.52c-0.05-0.57-0.08-1.15-0.08-1.73a19.67 19.67 0 0 1 31.39-15.79zm-0.8-48.92a10.93 10.93 0 1 1-12.37-11 41.9 41.9 0 0 1 12.37 11zm-5.83 27.56a8.01 8.01 0 0 1-8.01 8.01 8.01 8.01 0 0 1-8.01-8.01 8.01 8.01 0 0 1 8.01-8.01 8.01 8.01 0 0 1 8.01 8.01zm-50.26 13.84a2.18 2.18 0 0 1-2.18 2.18 2.18 2.18 0 0 1-2.18-2.18 2.18 2.18 0 0 1 2.18-2.18 2.18 2.18 0 0 1 2.18 2.18zm12.73-42.72a45.19 45.19 0 0 0-6.19 3.26 9.8 9.8 0 0 0-3.31 3 3.9 3.9 0 0 0-0.08 4.23c1 1.38 3 1.6 4.67 1.69a8.86 8.86 0 0 0 8.48-2.8l3.57-3.24c1.24-1.12 2.6-2.67 2.06-4.25-0.41-1.21-1.77-1.8-3-2a12.59 12.59 0 0 0-8.93 1.57"
         fill="#c5c5c5"
         id="path112" />
    </g>
  </g>
</svg>
