<?xml version="1.0" encoding="UTF-8"?>
<svg width="1124.7" height="770.77" data-name="Layer 1" version="1.1" viewBox="0 0 1124.7 770.77" xmlns="http://www.w3.org/2000/svg" xmlns:cc="http://creativecommons.org/ns#" xmlns:dc="http://purl.org/dc/elements/1.1/" xmlns:rdf="http://www.w3.org/1999/02/22-rdf-syntax-ns#" xmlns:xlink="http://www.w3.org/1999/xlink">
 <metadata>
  <rdf:RDF>
   <cc:Work rdf:about="">
    <dc:format>image/svg+xml</dc:format>
    <dc:type rdf:resource="http://purl.org/dc/dcmitype/StillImage"/>
    <dc:title>firmware</dc:title>
   </cc:Work>
  </rdf:RDF>
 </metadata>
 <defs>
  <linearGradient id="e61bd437-9da2-4863-9545-c2af53c0a537" x1="806.25" x2="806.25" y1="308.92" y2="281.72" gradientUnits="userSpaceOnUse">
   <stop stop-color="gray" stop-opacity=".25" offset="0"/>
   <stop stop-color="gray" stop-opacity=".12" offset=".54"/>
   <stop stop-color="gray" stop-opacity=".1" offset="1"/>
  </linearGradient>
  <linearGradient id="10ef4d3d-1e97-4021-86f6-ed4174e2acc5" x1="843.91" x2="843.91" y1="397.31" y2="115.79" xlink:href="#e61bd437-9da2-4863-9545-c2af53c0a537"/>
  <linearGradient id="7562a594-e7f2-488a-b294-03a8761f4adc" x1="779.04" x2="779.04" y1="396.82" y2="308.93" xlink:href="#e61bd437-9da2-4863-9545-c2af53c0a537"/>
  <linearGradient id="02021a5a-8b4c-4a8f-a82b-baff5e596802" x1="830.31" x2="830.31" y1="396.82" y2="308.93" xlink:href="#e61bd437-9da2-4863-9545-c2af53c0a537"/>
  <linearGradient id="dd623d78-3bb6-4132-be49-2e425533c027" x1="969.14" x2="969.14" y1="556.31" y2="137.12" xlink:href="#e61bd437-9da2-4863-9545-c2af53c0a537"/>
  <linearGradient id="55adf8d3-7ffb-491e-9308-2cd46ab42596" x1="355.66" x2="355.66" y1="691.67" y2="298.98" xlink:href="#e61bd437-9da2-4863-9545-c2af53c0a537"/>
 </defs>
 <title>firmware</title>
 <path transform="translate(-37.66 -65.37)" d="m1098.5 502.77c-37.66 47.88-23 117.84 0.9 173.86 8 18.76 17.08 38.6 13.7 58.72-4.13 24.6-26.09 42.58-49.14 52.12-42 17.38-92.3 13.24-130.91-10.78-33.36-20.76-57.26-54.51-91.19-74.32-56.83-33.17-129.07-20.65-190.73 2.19-43.63 16.16-91.32 37.17-134.67 20.28-30.5-11.88-51.59-40.8-63.08-71.45-5.55-14.8-9.57-30.82-20.16-42.55-6.3-7-14.51-11.92-22.93-16.1-76.87-38.11-174-17.7-248.63-60-50.43-28.55-82.71-82.41-97-138.56s-12.63-115-9-172.88c2.58-41.1 7.21-85 33.47-116.7 27.78-33.56 75.46-46 118.55-39.66s82.16 29.11 116.52 55.88c42.95 33.46 82.78 75.13 135.51 88.69 35.91 9.23 73.69 4.18 110.72 2.43 61.92-2.92 123.86 3.58 185.43 10.7 58.95 6.81 118.32 14.31 174.48 33.49 39.74 13.57 71.6 38.2 109.13 55.41 24.46 11.22 51.13 14.31 74.29 28.6 28.53 17.6 54.68 48.21 47.37 84-6.95 34.13-42.64 51.21-62.63 76.63z" fill="#d6d6e3" opacity=".306"/>
 <ellipse cx="817.36" cy="390.84" rx="155.03" ry="26.04" fill="#dee3f3" opacity=".5"/>
 <polygon points="841.82 290.09 853.33 290.09 853.33 282.96 853.33 281.72 759.16 281.72 759.16 282.96 759.16 290.09 770.67 290.09 770.67 298.46 751.83 298.46 751.83 308.92 860.66 308.92 860.66 298.46 841.82 298.46" fill="url(#e61bd437-9da2-4863-9545-c2af53c0a537)"/>
 <path transform="translate(-37.66 -65.37)" d="m956.58 363.12a142 142 0 0 0-0.6-29.31 79.66 79.66 0 0 0-6.72-23.81c-6.06-12.7-14.69-19.6-22.26-23.34a41.89 41.89 0 0 0-16.29-4.44 7.32 7.32 0 0 0-14.48 0v-18.85h-39.77v-10.46h53.54a6.06 6.06 0 0 0 6.06-6.06v-54.85a6.06 6.06 0 0 0-6.06-6.06h-20.3v-54.06a8.16 8.16 0 0 0 4.8-7.44v-0.24s0-0.16 0-0.24a8.17 8.17 0 0 0-16.33 0v0.24s0 0.16 0 0.24a8.16 8.16 0 0 0 4.32 7.21v54.29h-75.42v-54.29a8.16 8.16 0 0 0 4.32-7.21v-0.24s0-0.16 0-0.24a8.17 8.17 0 0 0-16.33 0v0.24s0 0.16 0 0.24a8.16 8.16 0 0 0 4.8 7.44v54.06h-22.09a6.06 6.06 0 0 0-6.06 6.06v54.84a6.06 6.06 0 0 0 6.06 6.06h53.58v10.46h-39.76v15.42a7.31 7.31 0 0 0-1.58-2.63l-0.17-0.18a7.32 7.32 0 0 0-12.5 5.18v1a41.12 41.12 0 0 0-16.52 4.45c-7.58 3.75-16.2 10.65-22.26 23.36a79.66 79.66 0 0 0-6.72 23.79 142 142 0 0 0-0.6 29.31c-16.79 13.94 4.24 34.19 4.24 34.19 17.23 0 16.84-28.6 16.65-33.48h0.09s0-0.24-0.12-0.69a107.13 107.13 0 0 1-1-24.16 61.7 61.7 0 0 1 4.08-18.54 32.91 32.91 0 0 1 8.28-12.15 28.31 28.31 0 0 1 13.91-6.71v4.71a7.32 7.32 0 0 0 14.25 2.37v38.44h104.61v-37.6a7.31 7.31 0 0 0 1.86 3.9l0.2 0.21a7.32 7.32 0 0 0 12.5-5.18v-6.74a28.24 28.24 0 0 1 13.6 6.64 32.91 32.91 0 0 1 8.28 12.15 61.7 61.7 0 0 1 4.09 18.58 107.13 107.13 0 0 1-1 24.16c-0.07 0.45-0.12 0.69-0.12 0.69h0.09c-0.19 4.88-0.57 33.48 16.65 33.48-0.04-0.02 20.99-20.27 4.2-34.21z" fill="url(#10ef4d3d-1e97-4021-86f6-ed4174e2acc5)"/>
 <polygon points="757.07 309.89 757.07 319.39 769.62 319.39 769.62 334.04 769.62 334.04 769.62 346.59 769.62 365.43 769.62 375.89 769.62 382.17 754.97 382.17 754.97 396.82 794.74 396.82 794.74 382.17 788.46 382.17 788.46 375.89 788.46 375.89 788.46 365.43 788.46 365.43 788.46 346.59 788.46 346.59 788.46 334.04 788.46 334.04 788.46 319.39 803.11 319.39 803.11 309.89 803.11 308.93 757.07 308.93" fill="url(#7562a594-e7f2-488a-b294-03a8761f4adc)"/>
 <polygon points="807.29 309.89 807.29 319.39 826.13 319.39 826.13 334.04 826.13 334.04 826.13 346.59 826.13 365.43 826.13 375.89 826.13 382.17 811.48 382.17 811.48 396.82 851.24 396.82 851.24 382.17 844.96 382.17 844.96 375.89 844.96 365.43 844.96 346.59 844.96 334.04 844.96 334.04 844.96 319.39 853.33 319.39 853.33 309.89 853.33 308.93 807.29 308.93" fill="url(#02021a5a-8b4c-4a8f-a82b-baff5e596802)"/>
 <rect x="735.99" y="123.35" width="140.51" height="65.16" rx="12.97" ry="12.97" fill="#38bc24"/>
 <rect x="747.19" y="178.51" width="118.11" height="1.22" opacity=".1"/>
 <rect x="747.19" y="133.53" width="118.11" height="44.8" opacity=".3"/>
 <circle cx="774.68" cy="156.87" r="16.29" opacity=".1"/>
 <circle cx="774.68" cy="155.93" r="16.29" fill="#dee3f3"/>
 <circle cx="837.81" cy="156.87" r="16.29" opacity=".1"/>
 <circle cx="837.81" cy="155.93" r="16.29" fill="#dee3f3"/>
 <g fill="#38bc24">
  <rect x="794.03" y="188.51" width="24.43" height="14.26"/>
  <rect x="755.34" y="198.7" width="101.82" height="81.45"/>
  <polygon points="852.06 280.15 852.06 288.29 840.86 288.29 840.86 296.44 771.63 296.44 771.63 288.29 760.43 288.29 760.43 280.15"/>
 </g>
 <polygon points="852.06 280.15 852.06 288.29 840.86 288.29 840.86 296.44 771.63 296.44 771.63 288.29 760.43 288.29 760.43 280.15" opacity=".3"/>
 <g fill="#38bc24">
  <rect x="753.3" y="296.44" width="105.89" height="10.18"/>
  <rect x="758.39" y="306.62" width="44.8" height="10.18"/>
  <rect x="807.27" y="306.62" width="44.8" height="10.18"/>
  <rect x="756.36" y="377.89" width="38.69" height="14.25"/>
  <polygon points="770.61 331.06 770.61 343.27 770.61 361.6 770.61 371.78 770.61 377.89 788.94 377.89 788.94 371.78 788.94 361.6 788.94 343.27 788.94 331.06 788.94 316.8 770.61 316.8"/>
  <polygon points="825.59 316.8 825.59 331.06 825.59 343.27 825.59 361.6 825.59 371.78 825.59 377.89 843.92 377.89 843.92 371.78 843.92 361.6 843.92 343.27 843.92 331.06 843.92 316.8"/>
  <rect x="811.34" y="377.89" width="38.69" height="14.25"/>
  <path transform="translate(-37.66 -65.37)" d="m793.39 281.37v24.43 0.55a7.13 7.13 0 0 1-14.23-0.55v-24.43a7.12 7.12 0 0 1 12.16-5l0.17 0.17a7.1 7.1 0 0 1 1.9 4.32c-0.01 0.14 0 0.33 0 0.51z"/>
  <path transform="translate(-37.66 -65.37)" d="M909,283.4v24.44a7.12,7.12,0,0,1-12.16,5l-.2-.21a7.11,7.11,0,0,1-1.89-4.83V283.4a7.13,7.13,0,0,1,14.25,0Z"/>
  <path transform="translate(-37.66 -65.37)" d="m779.13 282.39v18.83a27.55 27.55 0 0 0-13.54 6.53 32 32 0 0 0-8.06 11.82 60 60 0 0 0-4 18 103.14 103.14 0 0 0 1.13 24.2h-20.33a139 139 0 0 1 0.53-29.21 77.51 77.51 0 0 1 6.54-23.15c5.9-12.37 14.29-19.09 21.66-22.73a40 40 0 0 1 16.07-4.29z"/>
  <path transform="translate(-37.66 -65.37)" d="m738.4 394.39s-20.46-19.7-4.12-33.27h20.29s2.16 33.27-16.17 33.27z"/>
 </g>
 <path transform="translate(-37.66 -65.37)" d="m738.4 394.39s-20.46-19.7-4.12-33.27h20.29s2.16 33.27-16.17 33.27z" opacity=".3"/>
 <rect x="771.63" y="210.91" width="69.23" height="52.94" opacity=".3"/>
 <rect x="770.61" y="316.8" width="18.33" height="14.25" opacity=".3"/>
 <rect x="770.61" y="343.27" width="18.33" height="18.33" opacity=".3"/>
 <rect x="770.61" y="371.78" width="18.33" height="6.11" opacity=".3"/>
 <rect x="825.59" y="316.8" width="18.33" height="14.25" opacity=".3"/>
 <rect x="825.59" y="343.27" width="18.33" height="18.33" opacity=".3"/>
 <rect x="825.59" y="371.78" width="18.33" height="6.11" opacity=".3"/>
 <path transform="translate(-37.66 -65.37)" d="m779.13 282.39v18.83a27.55 27.55 0 0 0-13.54 6.53l-2.53-21a40 40 0 0 1 16.07-4.36z" opacity=".3"/>
 <path transform="translate(-37.66 -65.37)" d="m757.54 319.57a60 60 0 0 0-4 18l-18.7-5a77.51 77.51 0 0 1 6.54-23.15z" opacity=".3"/>
 <path transform="translate(-37.66 -65.37)" d="m908.68 282.39v18.83a27.55 27.55 0 0 1 13.54 6.53 32 32 0 0 1 8.06 11.82 60 60 0 0 1 4 18 103.14 103.14 0 0 1-1.13 24.2h20.36a139 139 0 0 0-0.51-29.17 77.51 77.51 0 0 0-6.54-23.15c-5.9-12.37-14.29-19.09-21.66-22.73a40 40 0 0 0-16.12-4.33z" fill="#38bc24"/>
 <path transform="translate(-37.66 -65.37)" d="m949.41 394.39s20.46-19.7 4.12-33.27h-20.29s-2.16 33.27 16.17 33.27z" fill="#38bc24"/>
 <path transform="translate(-37.66 -65.37)" d="m949.41 394.39s20.46-19.7 4.12-33.27h-20.29s-2.16 33.27 16.17 33.27z" opacity=".3"/>
 <path transform="translate(-37.66 -65.37)" d="m908.68 282.39v18.83a27.55 27.55 0 0 1 13.54 6.53l2.53-21a40 40 0 0 0-16.07-4.36z" opacity=".3"/>
 <path transform="translate(-37.66 -65.37)" d="m930.28 319.57a60 60 0 0 1 4 18l18.7-5a77.51 77.51 0 0 0-6.54-23.15z" opacity=".3"/>
 <rect x="794.03" y="188.51" width="24.43" height="1.69" opacity=".1"/>
 <path transform="translate(-37.66 -65.37)" d="m896.62 278.58v34.1a7.11 7.11 0 0 1-1.89-4.83v-24.45a7.09 7.09 0 0 1 1.89-4.82z" opacity=".1"/>
 <path transform="translate(-37.66 -65.37)" d="m793.36 280.82v25.53a7.1 7.1 0 0 1-1.9 4.32v-34.17a7.1 7.1 0 0 1 1.9 4.32z" opacity=".1"/>
 <rect x="760.43" y="280.15" width="91.63" height="1.21" opacity=".1"/>
 <rect x="758.39" y="306.62" width="44.8" height=".93" opacity=".1"/>
 <rect x="807.27" y="306.62" width="44.8" height=".93" opacity=".1"/>
 <rect x="763.39" y="63.05" width="7.01" height="60.3" fill="#38bc24"/>
 <rect x="843.79" y="63.05" width="7.01" height="60.3" fill="#38bc24"/>
 <circle cx="766.66" cy="63.52" r="7.95" opacity=".1"/>
 <circle cx="766.66" cy="63.05" r="7.95" fill="#38bc24"/>
 <circle cx="847.53" cy="63.52" r="7.95" opacity=".1"/>
 <circle cx="847.53" cy="63.05" r="7.95" fill="#38bc24"/>
 <path transform="translate(-37.66 -65.37)" d="m636.56 313.15s23.26 45.65 4.31 70.63 1.72 93 1.72 93" fill="none" stroke="#f23c2b" stroke-miterlimit="10" stroke-width="2"/>
 <path transform="translate(-37.66 -65.37)" d="m643.45 298.94c0 8.8-6.46 15.93-6.46 15.93s-6.46-7.13-6.46-15.93 6.47-15.94 6.47-15.94 6.45 7.14 6.45 15.94z" fill="#f23c2b"/>
 <path transform="translate(-37.66 -65.37)" d="m648.62 313.15s-23.26 45.65-4.31 70.63-1.72 93-1.72 93" fill="none" stroke="#f18f01" stroke-miterlimit="10" stroke-width="2"/>
 <path transform="translate(-37.66 -65.37)" d="m641.73 298.94c0 8.8 6.46 15.93 6.46 15.93s6.46-7.13 6.46-15.93-6.46-15.94-6.46-15.94-6.46 7.14-6.46 15.94z" fill="#f18f01"/>
 <path transform="translate(-37.66 -65.37)" d="m658.09 313.15s23.26 45.65 4.31 70.63 1.72 93 1.72 93" fill="none" stroke="#f23c2b" stroke-miterlimit="10" stroke-width="2"/>
 <g fill="#f23c2b">
  <path transform="translate(-37.66 -65.37)" d="m665 298.94c0 8.8-6.46 15.93-6.46 15.93s-6.46-7.13-6.46-15.93 6.44-15.94 6.44-15.94 6.48 7.14 6.48 15.94z"/>
  <path transform="translate(-37.66 -65.37)" d="m661.36 335.52c-6.1 6.34-15.7 7-15.7 7s0.29-9.62 6.39-16 15.7-7 15.7-7-0.29 9.65-6.39 16z"/>
  <path transform="translate(-37.66 -65.37)" d="m662 367c-6.1 6.34-15.7 7-15.7 7s0.29-9.62 6.39-16 15.7-7 15.7-7-0.32 9.67-6.39 16z"/>
  <path transform="translate(-37.66 -65.37)" d="m628.88 384.34c5.77 6.65 5.57 16.27 5.57 16.27s-9.55-1.15-15.32-7.8-5.57-16.27-5.57-16.27 9.55 1.15 15.32 7.8z"/>
  <path transform="translate(-37.66 -65.37)" d="m634.23 317.18c7.34 4.86 9.71 14.19 9.71 14.19s-9.52 1.44-16.85-3.42-9.71-14.19-9.71-14.19 9.52-1.45 16.85 3.42z"/>
 </g>
 <path transform="translate(-37.66 -65.37)" d="m670.15 313.15s-23.26 45.65-4.31 70.63-1.72 93-1.72 93" fill="none" stroke="#f18f01" stroke-miterlimit="10" stroke-width="2"/>
 <g fill="#f18f01">
  <path transform="translate(-37.66 -65.37)" d="m663.26 298.94c0 8.8 6.46 15.93 6.46 15.93s6.46-7.13 6.46-15.93-6.46-15.94-6.46-15.94-6.46 7.14-6.46 15.94z"/>
  <path transform="translate(-37.66 -65.37)" d="m665.12 336.19c-6.18 6.27-6.58 15.88-6.58 15.88s9.61-0.55 15.79-6.82 6.58-15.88 6.58-15.88-9.62 0.56-15.79 6.82z"/>
  <path transform="translate(-37.66 -65.37)" d="m677.23 379.8c-6.18 6.27-6.58 15.88-6.58 15.88s9.61-0.55 15.79-6.82 6.56-15.86 6.56-15.86-9.59 0.53-15.77 6.8z"/>
 </g>
 <g fill="none" stroke-miterlimit="10" stroke-width="2">
  <path transform="translate(-37.66 -65.37)" d="m659.41 370.21s14-22.07 33.65-22.54" stroke="#f18f01"/>
  <path transform="translate(-37.66 -65.37)" d="m648.51 356.89s-14-22.07-33.65-22.54" stroke="#f23c2b"/>
  <path transform="translate(-37.66 -65.37)" d="m646.69 388.38s14-22.07 33.65-22.54" stroke="#f18f01"/>
 </g>
 <circle cx="654.75" cy="282.14" r="3.63" fill="#f18f01"/>
 <circle cx="577.54" cy="269.12" r="3.63" fill="#f23c2b"/>
 <path transform="translate(-37.66 -65.37)" d="m657 395.65s-14-22.07-33.65-22.54" fill="none" stroke="#f23c2b" stroke-miterlimit="10" stroke-width="2"/>
 <circle cx="586.02" cy="307.88" r="3.63" fill="#f23c2b"/>
 <circle cx="642.94" cy="300.61" r="3.63" fill="#f18f01"/>
 <path transform="translate(-37.66 -65.37)" d="m734.36 450.29s-33.73-6.75-42.73-15.74-49.48-24.74-54-13.49-60.72 49.48-22.49 56.22 90 9 101.2 4.5 18.02-31.49 18.02-31.49z" fill="#a8a8a8"/>
 <path transform="translate(-37.66 -65.37)" d="m615.17 473.1c38.23 6.75 90 9 101.2 4.5 8.56-3.43 14.51-19.88 16.87-27.54l1.12 0.23s-6.75 27-18 31.48-63 2.25-101.2-4.5c-11-1.95-14.19-6.52-13-12.31 0.95 3.79 4.84 6.69 13.01 8.14z" opacity=".2"/>
 <path transform="translate(-37.66 -65.37)" d="m1098.7 321.21s8.08 10.57-3.73 26.53-21.55 29.43-17.62 39.38c0 0 17.82-29.64 32.33-30.05s4.98-18.07-10.98-35.86z" fill="#38bc24"/>
 <path transform="translate(-37.66 -65.37)" d="m1098.7 321.21a13.09 13.09 0 0 1 1.65 3.31c14.15 16.63 21.7 32.15 8.09 32.54-12.67 0.36-27.88 23-31.52 28.75a12.28 12.28 0 0 0 0.43 1.3s17.82-29.64 32.33-30.05 4.98-18.06-10.98-35.85z" opacity=".1"/>
 <path transform="translate(-37.66 -65.37)" d="m1113.7 334.68c0 3.72-0.42 6.74-0.93 6.74s-0.93-3-0.93-6.74 0.52-2 1-2 0.86-1.68 0.86 2z" fill="#f18f01"/>
 <path transform="translate(-37.66 -65.37)" d="m1118.9 339.12c-3.27 1.78-6.11 2.86-6.36 2.4s2.2-2.26 5.47-4 2-0.48 2.22 0 1.94-0.18-1.33 1.6z" fill="#f18f01"/>
 <path transform="translate(-37.66 -65.37)" d="m1056 321.21s-8.08 10.57 3.73 26.53 21.55 29.43 17.62 39.38c0 0-17.82-29.64-32.33-30.05s-4.96-18.07 10.98-35.86z" fill="#38bc24"/>
 <path transform="translate(-37.66 -65.37)" d="M1056,321.21a13.09,13.09,0,0,0-1.65,3.31c-14.15,16.63-21.7,32.15-8.09,32.54,12.67.36,27.88,23,31.52,28.75a12.28,12.28,0,0,1-.43,1.3s-17.82-29.64-32.33-30.05S1040.06,339,1056,321.21Z" opacity=".1"/>
 <path transform="translate(-37.66 -65.37)" d="M1041,334.68c0,3.72.42,6.74.93,6.74s.93-3,.93-6.74-.52-2-1-2S1041,331,1041,334.68Z" fill="#ffd037"/>
 <path transform="translate(-37.66 -65.37)" d="m1035.8 339.12c3.27 1.78 6.11 2.86 6.36 2.4s-2.2-2.26-5.47-4-2-0.48-2.22 0-1.93-0.18 1.33 1.6z" fill="#ffd037"/>
 <path transform="translate(-37.66 -65.37)" d="m1043.6 385.74s22.6-0.7 29.41-5.55 34.76-10.64 36.45-2.86 34 38.68 8.45 38.89-59.28-4-66.08-8.11-8.23-22.37-8.23-22.37z" fill="#a8a8a8"/>
 <path transform="translate(-37.66 -65.37)" d="m1118.3 413.51c-25.51 0.21-59.28-4-66.08-8.11-5.18-3.15-7.24-14.47-7.93-19.69h-0.75s1.43 18.23 8.23 22.37 40.57 8.32 66.08 8.11c7.36-0.06 9.91-2.68 9.77-6.56-1.03 2.37-3.84 3.84-9.32 3.88z" opacity=".2"/>
 <rect transform="translate(-48.59 213.6) rotate(-17.35)" x="871.67" y="170.79" width="74" height="9" fill="#38bc24"/>
 <path transform="translate(-37.66 -65.37)" d="m974.09 494.31s-38.72-7.74-49.05-18.07-56.79-28.4-62-15.49-69.7 56.79-25.82 64.54 103.26 10.33 116.17 5.16 20.7-36.14 20.7-36.14z" fill="#a8a8a8"/>
 <path transform="translate(-37.66 -65.37)" d="m837.26 520.49c43.89 7.74 103.26 10.33 116.17 5.16 9.83-3.93 16.66-22.82 19.36-31.62l1.29 0.27s-7.74 31-20.65 36.14-72.28 2.58-116.17-5.16c-12.67-2.24-16.29-7.49-14.93-14.13 1.09 4.34 5.5 7.68 14.93 9.34z" opacity=".2"/>
 <path transform="translate(-37.66 -65.37)" d="M1060.08,156.7a11.38,11.38,0,0,0-3.2-4.44c-10.39-9.47-27.2-6.6-40.1-12.38-3-1.33-6-3.18-9.25-2.67-4.51.71-8.7,5.84-12.63,3.56l.28.86-.28-.15,2.89,8.8c1.11,3.38,2.28,6.86,4.44,9.67a25.32,25.32,0,0,0,6.12,42.11l.4.89.37.16a29.56,29.56,0,0,1,1.91,6.13c-3.34.46-9.17,4.16-14.91,9.62l-11.47-.39a37.5,37.5,0,0,1-20.6-7l-34.29-24.65a11.48,11.48,0,0,0-6.57,2.9c-4.26-4.44-7.87-9.07-7.56-11.79,0,0-15.95-29.84-21.74-14.92s10.87,30.56,10.87,30.56l10.58,13.7a57.63,57.63,0,0,0-.79,7.26c13,14.92,58.71,28.42,58.71,28.42l7.12.34,0,.35a24.24,24.24,0,0,0-.64,5.7c0,.28,0,.56,0,.85s0,.38,0,.57c.36,23.8,3.62,96.64,3.62,96.64.63-.28,1.29-.54,2-.79l-.51,6.47s-30.44,4.26-52.91,12.79-23.19,18.48-23.19,18.48v87.78c-6.42,3.29-16.55,7.62-21.74,5.31-5.64-2.51-8.74-.4-9.3,1.8h0a2.8,2.8,0,0,0,0,1.33v0a2.38,2.38,0,0,0,.22.56l0,0a2.26,2.26,0,0,0,.38.5c2.17,2.13,49.29,20.61,60.16,17.76a7.51,7.51,0,0,0,1-.33l.3-.15c.2-.09.4-.19.59-.3s.21-.15.32-.22.33-.21.48-.34.2-.18.3-.27.28-.25.41-.38.18-.21.27-.31.25-.28.36-.43.16-.23.23-.34.22-.32.32-.49.13-.24.2-.36.2-.36.28-.54.11-.25.16-.37.17-.4.25-.6l.13-.37c.08-.22.15-.44.22-.66l.1-.35c.07-.24.13-.48.19-.73l.07-.33c.06-.26.11-.53.16-.79l0-.3c0-.29.09-.57.13-.86l0-.25c0-.31.07-.62.09-.94l0-.2q0-.51.06-1v-.14q0-.54,0-1.09v-.07a59.5,59.5,0,0,0-1.4-12.6h0l2.63-74.78A407.79,407.79,0,0,0,989.1,397l1.56,35.68s0,23.45,8,34.11c6.82,9.12,14.71,49.46,16.84,60.91-2.93,5.59-8.53,12.49-18.29,12.28,0,0-18.36-1.59-17.32,3.46h0a2.6,2.6,0,0,0,.12.39v0a3.59,3.59,0,0,0,.2.42l0,0c.07.13.16.26.25.4l.06.08c.11.15.22.3.36.46l0,0,.4.44.12.12c.16.16.34.33.53.51,9.42,8.53,64.51,9.95,64.51,9.95v-.19c0-.05,0-.12,0-.2v0c0-2.47-.36-15.42-3.66-25.16h.76s-8-71.77-14.5-80.3c0,0-1.73-37.84,2.18-61.56l.72-.26c18.27-6.82,19.57-23.63,17.69-36,3.46,1.11,5.51,1.87,5.51,1.87s-.06-.54-.18-1.49l.18.07s-.35-2.26-.92-5.78c-1.31-9.68-3.84-26.6-6.54-34.59-.44-1.76-.85-3.26-1.24-4.4a75.12,75.12,0,0,1-3.19-14.76,174.94,174.94,0,0,1-1.12-19.57,187.88,187.88,0,0,1,2-26.11c1.11-7.55,2.1-16.14,2-22.14a29.52,29.52,0,0,0-.44-6.24c-1-4.43-5.24-7.31-9.68-9.14-.29-.12-.58-.21-.87-.32.11-1.68.25-3.58.43-5.59a4.77,4.77,0,0,0,3.69.75c1.91-.42,3.28-2,4.5-3.51,6.42-7.89,13-16.11,15.49-25.91a56,56,0,0,0,1.36-13.34q0-.37,0-.74A14.51,14.51,0,0,0,1060.08,156.7Z" fill="url(#dd623d78-3bb6-4132-be49-2e425533c027)"/>
 <path transform="translate(-37.66 -65.37)" d="m1001.6 195.16s9.73 14.6 7.65 21.55 22.94 2.78 22.94 2.78 0.7-27.11 5.56-33.37-36.15 9.04-36.15 9.04z" fill="#f7c4a7"/>
 <path transform="translate(-37.66 -65.37)" d="m937.29 204.55s-20.16-16.68-19.47-22.94c0 0-15.29-29.2-20.86-14.6s10.44 29.89 10.44 29.89l19.47 25.72z" fill="#f7c4a7"/>
 <path transform="translate(-37.66 -65.37)" d="m916.78 466.28s-18.78 11.82-26.41 8.35-10.43 2.09-8.34 4.17 47.27 20.16 57.7 17.38 5.12-25.55 5.12-25.55z" fill="#535461"/>
 <path transform="translate(-37.66 -65.37)" d="m1016.2 517s-4.52 19.12-20.16 18.77c0 0-23.64-2.09-14.6 6.26s61.87 9.73 61.87 9.73 0-28.5-9.73-34.76-17.38 0-17.38 0z" fill="#535461"/>
 <path transform="translate(-37.66 -65.37)" d="m987.69 382.17 2.09 48.66s0 22.94 7.65 33.37 16.68 62.57 16.68 62.57h26.42s-7.65-70.21-13.9-78.56c0 0-2.78-61.87 7-75.77z" fill="#575988"/>
 <path transform="translate(-37.66 -65.37)" d="m987.69 382.17 2.09 48.66s0 22.94 7.65 33.37 16.68 62.57 16.68 62.57h26.42s-7.65-70.21-13.9-78.56c0 0-2.78-61.87 7-75.77z" opacity=".1"/>
 <path transform="translate(-37.66 -65.37)" d="M1042.61,338.37s16,38.23-13.21,49.36-82,9.73-82,9.73l-2.78,80.64s-32.67,4.17-33.37-6.26V383.56s.7-9.73,22.25-18.07S984.21,353,984.21,353l1.39-18.07Z" fill="#575988"/>
 <path transform="translate(-37.66 -65.37)" d="m1017 212.42a33.27 33.27 0 0 1 16.33 2.31c4.26 1.79 8.36 4.61 9.29 8.94 1.1 5.13-0.12 16.64-1.52 26.37a181.63 181.63 0 0 0-0.85 46.09c0.72 6.39 1.71 12 3.06 14.44 4.17 7.65 8.34 43.8 8.34 43.8s-45.88-17.38-68.82-7c0 0-3.13-71.26-3.48-94.54-0.27-18 22.59-38.58 30.24-39.28 4.48-0.37 2.95-0.67 7.41-1.13z" opacity=".1"/>
 <path transform="translate(-37.66 -65.37)" d="m1017 211a33.27 33.27 0 0 1 16.33 2.31c4.26 1.79 8.36 4.61 9.29 8.94 1.1 5.13-0.12 16.64-1.52 26.37a181.63 181.63 0 0 0-0.85 46.09 74.75 74.75 0 0 0 3.06 14.44c3.13 9.38 8.34 43.8 8.34 43.8s-45.88-17.38-68.82-7c0 0-3.13-71.26-3.48-94.54-0.27-18 22.59-38.58 30.24-39.28 4.48-0.34 2.95-0.64 7.41-1.13z" fill="#f23c2b"/>
 <path transform="translate(-37.66 -65.37)" d="m1029.4 249.39-49.4-2.78s-3.14-24.2 4-23.95l48.85 1.7s10.46 12.51-3.45 25.03z" opacity=".1"/>
 <path transform="translate(-37.66 -65.37)" d="m1029.4 248-56.31-2.78s-43.79-13.22-56.31-27.81c0 0 0.7-25.72 14.6-27.11l32.89 24.12a35.51 35.51 0 0 0 19.73 6.85l48.85 1.7s10.46 12.51-3.45 25.03z" fill="#f23c2b"/>
 <path transform="translate(-37.66 -65.37)" d="m1031.8 198.29c0.83-6.59 3.82-8.78 5.91-11.47 4.87-6.26-36.15 9-36.15 9a73.74 73.74 0 0 1 5.54 10.23 24.92 24.92 0 0 0 10.44 2.28c6.06 0.04 9.94-6.47 14.26-10.04z" opacity=".1"/>
 <circle cx="979.92" cy="117.28" r="25.03" fill="#f7c4a7"/>
 <path transform="translate(-37.66 -65.37)" d="m1001.8 165.11c-2.67-2.91-3.95-6.79-5.16-10.55l-2.77-8.61c3.77 2.23 7.79-2.79 12.11-3.48 3.1-0.5 6 1.31 8.87 2.62 12.37 5.66 28.49 2.85 38.46 12.12a11.12 11.12 0 0 1 3.07 4.34 14.54 14.54 0 0 1 0.56 4.9 55.83 55.83 0 0 1-1.3 13.05c-2.37 9.59-8.69 17.63-14.85 25.35-1.17 1.47-2.48 3-4.32 3.43-3.58 0.8-6.35-3.07-7.73-6.46a68.75 68.75 0 0 1-4-14 18.28 18.28 0 0 0-1.72-5.82c-2.15-3.82-7.46-7.43-10.69-10.39s-7.57-3.26-10.53-6.5z" opacity=".1"/>
 <path transform="translate(-37.66 -65.37)" d="m1001.8 164.41c-2.67-2.91-3.95-6.79-5.16-10.55l-2.77-8.61c3.77 2.23 7.79-2.79 12.11-3.48 3.1-0.5 6 1.31 8.87 2.62 12.37 5.66 28.49 2.85 38.46 12.12a11.12 11.12 0 0 1 3.07 4.34 14.54 14.54 0 0 1 0.56 4.9 55.83 55.83 0 0 1-1.3 13.05c-2.37 9.59-8.69 17.63-14.85 25.35-1.17 1.47-2.48 3-4.32 3.43-3.58 0.8-6.35-3.07-7.73-6.46a68.75 68.75 0 0 1-4-14 18.28 18.28 0 0 0-1.65-5.9c-2.15-3.82-7.46-7.43-10.69-10.39s-7.64-3.18-10.6-6.42z" fill="#664447"/>
 <ellipse cx="986.53" cy="120.07" rx="2.09" ry="4.52" fill="#f7c4a7"/>
 <path transform="translate(-37.66 -65.37)" d="m1036.7 306s-1.39 4.17-8.34 3.48-27.11-2.09-27.11 0" opacity=".1"/>
 <path transform="translate(-37.66 -65.37)" d="m981.43 541.36a5.89 5.89 0 0 1-2-2.9c-0.18 0.9 0.38 2.08 2 3.6 9 8.34 61.87 9.73 61.87 9.73s0-0.25 0-0.7c-0.3 0-52.86-1.41-61.87-9.73z" fill="#fff" opacity=".5"/>
 <path transform="translate(-37.66 -65.37)" d="m939.72 494.79c-10.43 2.78-55.61-15.29-57.7-17.38a2.26 2.26 0 0 1-0.58-1 2.5 2.5 0 0 0 0.58 2.41c2.09 2.09 47.27 20.16 57.7 17.38 5.37-1.43 6.56-8.16 6.46-14.35-0.09 5.75-1.49 11.61-6.46 12.94z" fill="#fff" opacity=".5"/>
 <path transform="translate(-37.66 -65.37)" d="m772.71 212.22s-60.54-17.93-64.54 33.07 16 135 0 162-73.09 66-43 69.5 45 8.5 36 26.5-56 35-46 48 15 29 5 45-45 26-39 37 28 17 17 29-42.89 39.3-30.44 39.15" fill="none" stroke="#535461" stroke-miterlimit="10" stroke-width="3"/>
 <path transform="translate(-37.66 -65.37)" d="M543.16,548.07a298.41,298.41,0,0,1-4.48-41h0A55,55,0,0,0,500,456.8c-3.95-1.21-8.3-2.35-13.11-3.37-42.13-8.95-54.93-1.14-56.38-.11a54,54,0,0,1-3.19-7c-.07-.24-.14-.49-.21-.74a53.93,53.93,0,0,0,14.41-32.49c7-7.13,11.13-15.72,11.13-25,0-8-3-15.43-8.36-21.9V353.68A54.71,54.71,0,0,0,389.58,299h-4.44a54.71,54.71,0,0,0-54.71,54.71v13.56a34,34,0,0,0-7.56,20.9c0,9.06,3.94,17.49,10.7,24.53a53.94,53.94,0,0,0,15,33.55c.3,2.05.6,4.27.9,6.6l-75.37,15.94s-29.06,1.19-47.77,39.81C210.51,541.25,179,625.29,169.68,650.3h0c-1.69,4.53-2.64,7.13-2.64,7.13s.31-.31.9-.84L167,659s.46-.46,1.33-1.22c-1.32,10.47-1.51,28.44,12.21,30.68,11.5,1.88,41.11,2.65,63.49,3v0h1.55c14.83.2,26.11.2,26.11.2v-.2H512.36V689a16.59,16.59,0,0,0-1.33-6.52l.34-.4a13.21,13.21,0,0,1,2.5,5.79,5.79,5.79,0,0,1-.11.61l.14-.37a6.2,6.2,0,0,1-.14,2s30.87-79.55,30.54-127A80.47,80.47,0,0,0,543.16,548.07ZM350.72,463.55a55.19,55.19,0,0,1-.76-6.86v-.06C350.22,458.86,350.48,461.18,350.72,463.55ZM257.19,634.42v19l-11.88,2.54Z" fill="url(#55adf8d3-7ffb-491e-9308-2cd46ab42596)"/>
 <path d="m348.47 241.26a54.71 54.71 0 0 1 54.7 54.74v23.3h-109.41v-23.3a54.71 54.71 0 0 1 54.71-54.71z" fill="#f23c2b"/>
 <ellipse cx="348.85" cy="326.96" rx="62.36" ry="42.85" fill="#f23c2b"/>
 <g fill="#f7c4a7">
  <path transform="translate(-37.66 -65.37)" d="M346.53,433.83s13,68.09,0,86.46,39.79,25.63,39.79,25.63L441,526l7.65-49s-33.28-18.75-26.4-56.62Z"/>
  <path transform="translate(-37.66 -65.37)" d="M508,663.36s3.44,14.92-15.3,17.6a106,106,0,0,1-33.36-.4l-4.13-37.48h43.61Z"/>
  <path transform="translate(-37.66 -65.37)" d="m176.92 644.26s-8.28 33.64 10.47 36.74 87.61 3 87.61 3v-39.77l-31.17 6.66-29.27-28.08z"/>
 </g>
 <path transform="translate(-37.66 -65.37)" d="m350.55 455.83-73.26 15.49s-27.93 1.15-45.91 38.26-57 143.08-57 143.08 33.28-33.66 72.3 2.3l26-47.05-5.68 74.58h201.57v-35.2s42.08 22.57 39 35.2c0 0 36-92.78 28.26-134.95a286.78 286.78 0 0 1-4.3-39.45 52.85 52.85 0 0 0-37.19-48.26c-3.8-1.17-8-2.26-12.6-3.24-43.23-9.18-54.32 0-54.32 0s-8.37 27.25-8.22 39.59c0.19 15.88-22.57 26.4-22.57 26.4s-33.66-8-35.2-14.54-13.56-44.56-10.88-52.21z" opacity=".1"/>
 <path transform="translate(-37.66 -65.37)" d="m350.55 454.3-73.26 15.49s-27.93 1.15-45.91 38.26-57 143.08-57 143.08 33.28-33.66 72.3 2.3l26-47.05-5.68 74.62h201.57v-35.2s42.08 22.57 39 35.2c0 0 36-92.78 28.26-134.95a286.78 286.78 0 0 1-4.3-39.45 52.85 52.85 0 0 0-37.19-48.26c-3.8-1.17-8-2.26-12.6-3.24-43.23-9.18-54.32 0-54.32 0s-8.37 27.25-8.22 39.59c0.19 15.88-22.57 26.4-22.57 26.4s-33.66-8-35.2-14.54-13.56-44.6-10.88-52.25z" fill="#3a93f2"/>
 <path transform="translate(-37.66 -65.37)" d="M425.42,451a51.78,51.78,0,0,1-2-27.16l-75.75,13.39s1.09,5.72,2.33,14.3a52,52,0,0,0,75.41-.53Z" opacity=".1"/>
 <path transform="translate(-37.66 -65.37)" d="m438.35 412a52 52 0 0 1-104 1.26v-1.26a52 52 0 0 1 29.17-46.75q2.34-1.14 4.81-2.06a52.4 52.4 0 0 1 26.8-2.49 52 52 0 0 1 43.15 47.85q0.07 1.74 0.07 3.45z" fill="#f7c4a7"/>
 <g opacity=".1">
  <path transform="translate(-37.66 -65.37)" d="m368.19 364.43h0.07q-2.47 0.91-4.81 2.06a52 52 0 0 0-29.17 46.75v1.26a11.56 11.56 0 0 0 4.67-1.12c12.69-5.92 20.29-24 23.28-36.66 1.1-4.57 2.12-9.66 5.96-12.29z"/>
  <path transform="translate(-37.66 -65.37)" d="M408,365.9a51.6,51.6,0,0,0-12.93-4,16.69,16.69,0,0,1,9.29,5.83,23.79,23.79,0,0,1,2.84,5.07,52.17,52.17,0,0,0-43.76.91c3.27,7.16,13.39,11.06,20.15,13.68q11.1,4.29,22.47,7.84l-6.69-5.43,15.11,2.4a26.17,26.17,0,0,0-1.05-8.91c2.88,2.33,6.73,3.11,9.87,5.1,5.89,3.71,8.34,10.87,11.55,17a11,11,0,0,0,3.37,4.32A52,52,0,0,0,408,365.9Z"/>
 </g>
 <path transform="translate(-37.66 -65.37)" d="m368.19 363.26h0.07q-2.47 0.91-4.81 2.06a52 52 0 0 0-29.16 46.68v1.26a11.56 11.56 0 0 0 4.67-1.12c12.69-5.92 20.29-24 23.28-36.66 1.09-4.48 2.11-9.6 5.95-12.22z" fill="#664447"/>
 <path transform="translate(-37.66 -65.37)" d="M408,364.72a51.6,51.6,0,0,0-12.93-4,16.69,16.69,0,0,1,9.29,5.83,23.79,23.79,0,0,1,2.84,5.07,52.17,52.17,0,0,0-43.76.91c3.27,7.16,13.39,11.06,20.15,13.68q11.1,4.29,22.47,7.84l-6.69-5.43,15.11,2.4a26.17,26.17,0,0,0-1.05-8.91c2.88,2.33,6.73,3.11,9.87,5.1,5.89,3.71,8.34,10.87,11.55,17a11,11,0,0,0,3.37,4.32A52,52,0,0,0,408,364.72Z" fill="#664447"/>
 <path transform="translate(-37.66 -65.37)" d="m328.36 403.44s53.56-66.56 115.53 0l-5.36-14.92s-29.07-42.46-49.73-33.28-40.93 15.68-40.93 15.68z" opacity=".1"/>
 <path transform="translate(-37.66 -65.37)" d="m328.36 402.27s53.56-66.56 115.53 0l-5.36-14.92s-29.07-42.46-49.73-33.28-40.93 15.68-40.93 15.68z" fill="#f23c2b"/>
 <path transform="translate(-37.66 -65.37)" d="m284.37 545.73s-11.48 30.6 4.59 58.15-14.15 39-14.15 39" opacity=".1"/>
 <path transform="translate(-37.66 -65.37)" d="m470.29 518.18s19.89 25.25 6.89 47.82-12.24 76.89-12.24 76.89" opacity=".1"/>
 <path d="m229.11 600.1h221.12a18.36 18.36 0 0 1 18.36 18.36h-257.84a18.36 18.36 0 0 1 18.36-18.36z" fill="#535461"/>
 <path d="m262.37 473.86h154.63a39 39 0 0 1 39 39v91.45h-232.63v-91.45a39 39 0 0 1 39-39z" fill="#535461"/>
 <circle cx="339.48" cy="544.82" r="13.77" fill="#fff"/>
 <path transform="translate(-37.66 -65.37)" d="m331.42 372.23s52.64-52.61 109.41-1" fill="none" opacity=".1" stroke="#000" stroke-miterlimit="10"/>
 <rect x="37.61" y="618.7" width="560.78" height="150.56" fill="#d6d6e3"/>
 <rect x="37.61" y="628.84" width="560.78" height="19.54" opacity=".1"/>
 <rect y="616.53" width="636" height="19.54" fill="#d6d6e3"/>
 <path transform="translate(-37.66 -65.37)" d="m473.17 633.29s24 44 84 32 31 111 31 111-9.82 58.68-2.91 58.34" fill="none" stroke="#535461" stroke-miterlimit="10" stroke-width="3"/>
</svg>
