<?xml version="1.0" encoding="UTF-8"?>
<svg id="a97f4f18-b594-445c-bff7-5523e3bdff5d" width="1046" height="638.58" data-name="Layer 1" version="1.1" viewBox="0 0 1046 638.58" xmlns="http://www.w3.org/2000/svg" xmlns:cc="http://creativecommons.org/ns#" xmlns:dc="http://purl.org/dc/elements/1.1/" xmlns:rdf="http://www.w3.org/1999/02/22-rdf-syntax-ns#">
 <metadata>
  <rdf:RDF>
   <cc:Work rdf:about="">
    <dc:format>image/svg+xml</dc:format>
    <dc:type rdf:resource="http://purl.org/dc/dcmitype/StillImage"/>
    <dc:title>ready_to_print</dc:title>
   </cc:Work>
  </rdf:RDF>
 </metadata>
 <title>ready_to_print</title>
 <path transform="translate(-77 -130.71)" d="m238.23 685.35c8.5651 31.662 37.903 51.271 37.903 51.271s15.451-31.725 6.8855-63.387-37.903-51.271-37.903-51.271-15.451 31.725-6.8856 63.387z" fill="#3f3d56"/>
 <path transform="translate(-77 -130.71)" d="m250.82 678.55c23.503 22.879 26.374 58.049 26.374 58.049s-35.235-1.9238-58.738-24.803-26.374-58.049-26.374-58.049 35.235 1.9239 58.738 24.803z" fill="#38bc24"/>
 <rect x="113.47" y="636.03" width="827.6" height="2.5543" fill="#2f2e41"/>
 <path transform="translate(-77 -130.71)" d="m287.73 768.01h-33.206v-33.206h33.206zm-30.652-2.5543h28.098v-28.098h-28.098z" fill="#3f3d56"/>
 <rect y="25.322" width="281.42" height="281.42" fill="#3f3d56"/>
 <g fill="#3a93f2">
  <path transform="translate(-77 -130.71)" d="m358.42 226.05v6.4591a29.205 29.205 0 0 1-10.036-11.376c-3.7466-7.6627-3.628-16.495-3.5093-25.04 0.13566-10.155 0.27121-19.733-6.1709-25.972-7.0863-6.8491-18.428-5.8828-29.396-4.9502-1.2884 0.10172-2.5769 0.22029-3.8484 0.322-11.002 0.83078-23.26-1.9495-29.21-9.4597h7.4254c5.442 3.6618 13.766 4.9502 21.412 4.3738 1.2376-0.08475 2.5091-0.20343 3.7806-0.30514 11.545-0.9832 24.633-2.1022 33.363 6.3574 8.0357 7.7645 7.8831 18.92 7.7306 29.702-0.11868 7.951-0.22039 16.156 3.0007 22.734a23.25 23.25 0 0 0 5.4588 7.1542z"/>
  <path transform="translate(-77 -130.71)" d="m358.42 270.72v7.5611a32.155 32.155 0 0 0-4.1365-4.4586c-8.7477-7.7136-21.31-9.4089-33.448-11.07-1.5766-0.20354-3.1194-0.42383-4.6621-0.64423-19.683-2.8312-31.889-9.5954-37.297-20.632-3.7466-7.6627-3.628-16.495-3.5093-25.04 0.13565-10.155 0.2712-19.733-6.1709-25.972-7.0863-6.8491-18.428-5.8828-29.396-4.9502-1.2884 0.10171-2.5769 0.22029-3.8484 0.322-14.139 1.068-30.363-3.8313-32.584-17.072-0.7628-4.5435 0.373-8.7139 2.0514-12.732h5.5606c-1.8649 4.0348-3.255 7.934-2.5939 11.884 1.6783 10.104 15.275 13.732 27.193 12.833 1.2376-0.08475 2.5091-0.20343 3.7806-0.30514 11.545-0.9832 24.633-2.1022 33.363 6.3574 8.0357 7.7645 7.8831 18.92 7.7306 29.702-0.11868 7.951-0.2204 16.156 3.0007 22.734 4.6112 9.426 15.546 15.258 33.448 17.835 1.5257 0.2204 3.0685 0.44079 4.6112 0.64422 12.884 1.7462 26.226 3.5601 36.144 12.291q0.3815 0.33061 0.7629 0.712z"/>
  <path transform="translate(-77 -130.71)" d="m358.42 398.17v10.443c-6.12-6.51-11.24-15.444-15.156-26.616-0.83068-2.3734-1.6275-4.7977-2.4243-7.222-4.3909-13.274-8.9343-26.989-19.75-35.754-11.562-9.3581-28.125-11.426-44.146-13.427-2.0514-0.25423-4.1026-0.50857-6.137-0.77977-25.972-3.4415-42.06-11.63-49.198-25.023-4.9502-9.3072-4.7977-20.021-4.6451-30.38 0.18646-12.308 0.373-23.938-8.1374-31.499-9.3411-8.307-24.311-7.1372-38.772-6.0013-1.7123 0.13555-3.4076 0.2712-5.0689 0.38988-18.665 1.2884-40.077-4.6451-42.993-20.7-1.441-7.8661 2.2378-14.834 5.781-21.581 2.0344-3.8653 3.9669-7.5441 4.9502-11.325 2.0683-7.7815-0.4916-16.546-6.1709-22.666h8.307a29.869 29.869 0 0 1 4.3908 24.124c-1.1697 4.4247-3.3397 8.5612-5.4418 12.562-3.2381 6.137-6.2726 11.935-5.2046 17.868 2.2378 12.24 20.157 16.648 35.872 15.563 1.6445-0.11869 3.3228-0.25434 5.0012-0.37292 15.224-1.2037 32.482-2.543 44.01 7.7136 10.596 9.4089 10.392 22.937 10.189 36.008-0.13566 9.6463-0.28828 19.598 3.95 27.583 6.0862 11.409 20.53 18.496 44.146 21.632 2.0004 0.2713 4.0348 0.52554 6.0691 0.77987 17.021 2.1191 34.601 4.306 47.672 14.902 12.257 9.9345 17.089 24.497 21.734 38.585 0.79685 2.4074 1.5936 4.7808 2.4074 7.1372a80.351 80.351 0 0 0 8.7647 18.055z"/>
  <path transform="translate(-77 -130.71)" d="m77 269.67c7.7306 9.358 24.124 12.816 38.822 11.799 1.6614-0.11868 3.3567-0.2543 5.0689-0.38992 14.461-1.1358 29.43-2.3056 38.772 6.0014 8.5104 7.561 8.3239 19.191 8.1374 31.499-0.15258 10.358-0.30515 21.073 4.6451 30.38 7.1372 13.393 23.226 21.581 49.198 25.023 2.0344 0.27125 4.0857 0.52554 6.137 0.77984 16.021 2.0004 32.584 4.0687 44.146 13.427 10.816 8.7647 15.359 22.48 19.75 35.754 0.79679 2.4243 1.5936 4.8486 2.4243 7.222 0.76288 2.1869 1.5766 4.2722 2.4243 6.2896h7.2559c-1.2715-2.7633-2.3565-5.5267-3.2889-8.1713-0.81375-2.3565-1.6105-4.7299-2.4073-7.1372-4.6451-14.088-9.4767-28.651-21.734-38.585-13.071-10.596-30.651-12.783-47.672-14.902-2.0344-0.2543-4.0687-0.50859-6.0692-0.77984-23.616-3.1363-38.059-10.223-44.146-21.632-4.2382-7.9849-4.0857-17.936-3.95-27.583 0.20343-13.071 0.40687-26.599-10.189-36.008-11.528-10.257-28.786-8.9173-44.01-7.7136-1.6784 0.11867-3.3567 0.2543-5.0011 0.373-15.715 1.085-33.635-3.3228-35.873-15.563-1.068-5.9336 1.9666-11.731 5.2046-17.868 2.1022-4.0009 4.2722-8.1374 5.4419-12.562 3.1872-12.104-2.1869-25.514-13.088-32.838v8.307c5.9505 6.137 8.663 15.105 6.5608 23.073-0.98327 3.7805-2.9159 7.4593-4.9503 11.325-0.54249 1.0341-1.085 2.0513-1.6105 3.1024z"/>
  <path transform="translate(-77 -130.71)" d="m201.49 437.45h-7.0354c-0.373-1.102-0.72907-2.2208-1.102-3.3398-4.3909-13.274-8.9343-26.989-19.75-35.754-11.562-9.3581-28.125-11.426-44.146-13.427-2.0514-0.25423-4.1026-0.50857-6.137-0.77977-22.92-3.0346-38.161-9.7819-46.316-20.53v-16.868a31.994 31.994 0 0 0 3.1363 9.6632c6.0862 11.409 20.53 18.496 44.146 21.632 2.0004 0.27131 4.0348 0.52554 6.0691 0.77988 17.021 2.1191 34.601 4.306 47.672 14.902 12.257 9.9345 17.089 24.497 21.734 38.585 0.57644 1.7292 1.1359 3.4415 1.7292 5.1368z"/>
 </g>
 <rect x="381.44" y="25.322" width="281.42" height="281.42" fill="#3f3d56"/>
 <g fill="#38bc24">
  <path transform="translate(-77 -130.71)" d="m594.07 176.37a89.858 89.858 0 0 1-135.62 77.323v-97.666h133.3a89.308 89.308 0 0 1 2.3226 20.344z"/>
  <circle cx="589.96" cy="101.61" r="54.25"/>
  <circle cx="467.9" cy="216.89" r="38.992"/>
  <path transform="translate(-77 -130.71)" d="m739.86 391.34v46.112h-55.792a38.995 38.995 0 0 1 55.792-46.112z"/>
  <circle cx="566.23" cy="215.2" r="10.172"/>
 </g>
 <rect x="764.58" y="25.322" width="281.42" height="281.42" fill="#3f3d56"/>
 <g fill="#f18f01">
  <path transform="translate(-77 -130.71)" d="m978.9 156.03v115.28h-137.32v6.7812h144.1v-122.06z"/>
  <path transform="translate(-77 -130.71)" d="m1111.4 437.45 11.647-16.563v-11.782l-19.937 28.345zm-47.299-121.35-62.404 88.749 46.367 32.601h11.782l-48.706-34.245 54.606-77.662 57.301 40.297v-8.29z"/>
  <path transform="translate(-77 -130.71)" d="m960.25 304.86-35.957 35.957 35.957 35.957 35.957-35.957zm-26.379 35.957 26.379-26.379 26.379 26.379-26.379 26.379z"/>
 </g>
 <g fill="#f2f2f2">
  <circle cx="137.93" cy="25.543" r="25.543"/>
  <circle cx="532.58" cy="25.543" r="25.543"/>
  <circle cx="909.34" cy="25.543" r="25.543"/>
 </g>
 <g fill="#ffb8b8">
  <circle cx="506.4" cy="150.07" r="24.266"/>
  <path transform="translate(-77 -130.71)" d="m570.63 292.27s6.3858 33.206 3.8315 39.592 35.761-2.5543 35.761-2.5543-7.663-33.206-6.3858-40.869-33.206 3.8315-33.206 3.8315z"/>
  <polygon points="451.48 276.51 454.03 310.99 466.71 365.15 470.64 379.96 477.02 356.97 470.64 304.6 468.47 281.03"/>
  <path transform="translate(-77 -130.71)" d="m662.58 402.11v35.761s-3.8315 45.978-11.495 57.473-10.217-45.978-10.217-45.978l6.0047-42.147z"/>
 </g>
 <g fill="#2f2e41">
  <path transform="translate(-77 -130.71)" d="m548.91 513.22s-6.3858 7.663-1.2772 85.57-2.5543 134.1 14.049 134.1c0 0-5.1087 16.603 8.9402 17.88s20.435 2.5543 21.712-1.2772 3.8315-21.712 0-21.712c0 0 0 5.1087 2.5543-15.326s2.5543-117.5 8.9402-130.27l20.435 47.255s0 21.712 3.8315 31.929 10.217 68.967 10.217 68.967l-1.2772 8.9402s30.652 5.1087 31.929 0 1.2772-12.772 0-15.326-1.2772-2.5543 1.2772-7.663 2.5543-8.9402 1.2772-12.772-1.2772-86.847-1.2772-86.847-2.5543-100.9-17.88-106-103.45 2.5544-103.45 2.5544z"/>
  <path transform="translate(-77 -130.71)" d="m565.52 740.56-10.217 17.88s-15.965-5.7473-12.772 8.9402c27.459 1.9158 46.617-0.63859 46.617-0.63859s6.3858 2.5543 7.663-1.2772-3.1929-17.242-7.0244-17.242-24.266-7.663-24.266-7.663z"/>
  <path transform="translate(-77 -130.71)" d="m639.59 735.45s-10.217 22.989-6.3858 24.266 38.315 6.3858 40.869 7.663 15.326 2.5543 16.603-5.1087-6.3858-10.217-6.3858-10.217-14.049-2.5543-17.88-15.326-26.821-1.2772-26.821-1.2772z"/>
 </g>
 <g fill="#9246f4">
  <path transform="translate(-77 -130.71)" d="m612.77 325.48s-34.484-6.3858-42.147 0-39.592 19.158-39.592 25.543 16.603 68.967 16.603 68.967-8.9402 94.51 0 97.065 24.266-5.1087 42.147 3.8315 68.967-7.663 68.967-7.663-19.158-81.739-14.049-97.065 8.9402-67.69 8.9402-67.69-21.712-22.989-40.869-22.989z"/>
  <path transform="translate(-77 -130.71)" d="m539.97 347.19-8.9402 2.5543s-19.158 60.027-11.495 62.581 29.375 7.663 31.929 7.663-11.494-72.799-11.494-72.799z"/>
  <path transform="translate(-77 -130.71)" d="m633.21 340.8 20.435 7.663s26.821 49.81 20.435 56.195-34.484 12.772-34.484 12.772z"/>
 </g>
 <path transform="translate(-77 -130.71)" d="m582.66 250.8a13.716 13.716 0 0 0-6.0702 0.268 15.828 15.828 0 0 0-4.3139 2.8298 50.492 50.492 0 0 1-7.3758 4.8867c-2.0696 1.1235-4.2942 2.1634-5.739 4.0229a12.211 12.211 0 0 0-1.6198 3.0661 36.74 36.74 0 0 0-1.9317 19.996 9.191 9.191 0 0 0 0.85074 2.7457c1.3274 2.4456 4.2592 3.4095 6.7289 4.6915 4.689 2.4341 8.2434 6.5327 12.089 10.155a23.634 23.634 0 0 0 4.7765 3.6811c5.4867 2.9915 12.193 2.0156 18.352 0.95775a3.3073 3.3073 0 0 0 3.3008-3.3389l4.8615-21.866a35.673 35.673 0 0 0 1.246-9.9445c-0.33919-5.3079-3.2128-12.661-7.1083-16.431-4.539-4.3932-12.114-5.0922-18.047-5.7204z" fill="#2f2e41"/>
 <circle cx="341.31" cy="607.97" r="10.079" fill="#3a93f2"/>
 <path transform="translate(-77 -130.71)" d="m418.31 767.79a29.116 29.116 0 1 1 29.116-29.116 29.149 29.149 0 0 1-29.116 29.116zm0-55.992a26.876 26.876 0 1 0 26.876 26.876 26.907 26.907 0 0 0-26.876-26.876z" fill="#2f2e41"/>
 <circle cx="831.74" cy="609.25" r="10.079" fill="#f18f01"/>
 <path transform="translate(-77 -130.71)" d="m908.74 769.07a29.116 29.116 0 1 1 29.116-29.116 29.149 29.149 0 0 1-29.116 29.116zm0-55.992a26.876 26.876 0 1 0 26.876 26.876 26.907 26.907 0 0 0-26.876-26.876z" fill="#2f2e41"/>
 <circle cx="831.74" cy="553.05" r="10.079" fill="#f18f01"/>
 <path transform="translate(-77 -130.71)" d="m908.74 712.87a29.116 29.116 0 1 1 29.116-29.116 29.149 29.149 0 0 1-29.116 29.116zm0-55.992a26.876 26.876 0 1 0 26.876 26.876 26.907 26.907 0 0 0-26.876-26.876z" fill="#2f2e41"/>
</svg>
