<?xml version="1.0" encoding="UTF-8"?>
<svg width="1076.4" height="733.47" data-name="Layer 1" version="1.1" viewBox="0 0 1076.4 733.47" xmlns="http://www.w3.org/2000/svg" xmlns:cc="http://creativecommons.org/ns#" xmlns:dc="http://purl.org/dc/elements/1.1/" xmlns:rdf="http://www.w3.org/1999/02/22-rdf-syntax-ns#" xmlns:xlink="http://www.w3.org/1999/xlink">
 <metadata>
  <rdf:RDF>
   <cc:Work rdf:about="">
    <dc:format>image/svg+xml</dc:format>
    <dc:type rdf:resource="http://purl.org/dc/dcmitype/StillImage"/>
    <dc:title>robotics</dc:title>
   </cc:Work>
  </rdf:RDF>
 </metadata>
 <title>robotics</title>
 <g fill="#707070">
  <path transform="translate(-61.56 -83.02)" d="M1130.38,364.35h-91.94V475.79h85.22c.22,1.15.44,2.3.68,3.45h-85.9v89.85l.43-.14c2.43-.85,4.84-1.75,7.23-2.72l1.55-.62q3.66-1.53,7.23-3.23c.84-.39,1.68-.8,2.51-1.22a150,150,0,0,0,36.17-25c.31-.26.6-.55.89-.82,1.46-1.41,2.9-2.85,4.3-4.32.52-.54,1-1.08,1.54-1.64,1.65-1.79,3.24-3.64,4.79-5.5.23-.28.45-.56.68-.82A115.92,115.92,0,0,0,1121.34,498c.13-.26.24-.55.36-.82,1.26-2.82,2.39-5.68,3.37-8.59.41-1.22.81-2.45,1.16-3.68.13-.37.23-.74.34-1.1,5.09-17.84,5.68-36.4,5.68-54.85q0-3.23,0-6.45c0-7.45-.11-14.95-.24-22.44,0-1.94-.1-3.88-.14-5.83-.13-4.94-.3-9.9-.54-14.84-.06-1.37-.13-2.75-.21-4.11,0-.79-.08-1.58-.14-2.37Q1130.71,368.61,1130.38,364.35Z" opacity=".1"/>
  <path transform="translate(-61.56 -83.02)" d="m1038.4 240.27h50.44a343.41 343.41 0 0 0-26.83-32.84c-7.49-8.18-15.37-16.16-23.61-23.84z" opacity=".1"/>
  <path transform="translate(-61.56 -83.02)" d="M1038.44,243.72V360.9h91.65c0-.34,0-.69-.09-1-.08-.93-.16-1.85-.25-2.77-.09-1.08-.21-2.17-.32-3.25s-.25-2.35-.39-3.52-.26-2.35-.41-3.52-.29-2.34-.45-3.5-.31-2.33-.48-3.49c-.14-1-.28-1.93-.43-2.89-.21-1.37-.43-2.73-.66-4.09,0-.2-.07-.41-.1-.6a253.15,253.15,0,0,0-6.75-29.42A201.46,201.46,0,0,0,1108.39,273a215,215,0,0,0-17.1-29.29Z" opacity=".1"/>
  <path transform="translate(-61.56 -83.02)" d="M820.1,364.35V475.79h196.38V364.35Zm0,114.88V554.7c22.86-7.31,49-4.35,72.7,1.65,18.35,4.65,36.23,11,54.55,15.55a198.26,198.26,0,0,0,24.87,4.7l2.06.23,3,.27,3,.22a1.67,1.67,0,0,1,.31,0c.44,0,.89,0,1.34.06l.46,0c.54,0,1.08.06,1.62.06h0c.77,0,1.55,0,2.33.07h1c.77,0,1.55,0,2.33,0l1.71,0,1.38,0c.59,0,1.17,0,1.75-.06.94,0,1.88-.08,2.83-.14h0l1.75-.12c.72,0,1.45-.1,2.16-.17,1.53-.12,3-.27,4.55-.46.6-.07,1.21-.14,1.81-.23l.89-.11c1.51-.2,3-.43,4.51-.69,1.11-.17,2.22-.37,3.34-.58V479.23Zm146.06-239v3.44H820.1V360.9h196.38V243.71h-9.85v-3.44h9.85V164.54c-38.2-30.78-82.85-54.88-132.58-66a282.59,282.59,0,0,0-63.8-6.66V240.27Zm-449-.66.69.66H798.13V92.91c-49.9,4.15-98.56,20.91-137.79,48.68-18.85,13.33-35.78,29.14-56.93,39.36a89.15,89.15,0,0,1-35.6,9.2Zm-1.93-60.44v33.35l27.08-26.43C532.24,182.57,524.3,180.2,515.19,179.17Zm-.9,419.56.9,0V671.8q15.33-1.15,30.54-3.14A547.36,547.36,0,0,0,678,634.4h0q6.84-2.76,13.58-5.67,4.49-2,8.93-4,6.66-3.06,13.22-6.29A463.75,463.75,0,0,0,769.62,586c1.11-.76,2.23-1.52,3.33-2.29q3.31-2.3,6.59-4.64c1.09-.79,2.18-1.57,3.26-2.37l2.25-1.66c2.24-1.67,4.47-3.34,6.73-5h0c2.09-1.5,4.2-3,6.34-4.4v-86.4H572.94c.16-.5.31-1,.48-1.53-.18.51-.34,1-.49,1.53H515.19V598.67Zm.9-355V360.9H798.13V243.71Zm0,120.64V475.79H798.13V364.35ZM458.67,182.56l34.56,33.73V179Q475.86,180.08,458.67,182.56ZM218,364.35V475.79H493.23V364.35Zm66.52,275.24a511.15,511.15,0,0,0,129.73,30.78l.19,0q12.58,1.33,25.25,2.06l.31,0h0c17.69,1,35.45,1.23,53.18.57V479.23H218l1,128.32M141.79,475.79h54.28V364.35H174.6c-2.23,3.91-4.39,7.86-6.44,11.85-1.1,2.13-2.17,4.29-3.21,6.45C150.82,412,141.84,444.22,141.79,475.79Zm0,3.44c.44,22.64,5.54,44.87,16.73,65.4,9.3,17,22.22,32,37.51,45V479.23ZM176.61,360.9h19.46v-29A310.66,310.66,0,0,0,176.61,360.9ZM298.5,240.27H486.74l.68-.66-1-1h0L433.49,187A427.49,427.49,0,0,0,387,199.43c-1.44.47-2.88,1-4.31,1.45A422,422,0,0,0,298.5,240.27ZM218,305.64V360.9H459.38l0,0,0,0h33.83v-114l-3.86-3.14H293A378.08,378.08,0,0,0,218,305.64Z" opacity=".1"/>
  <path transform="translate(-61.56 -83.02)" d="M1038.44,302.83V360.9h91.65c0-.34,0-.69-.09-1-.08-.93-.16-1.85-.25-2.77-.09-1.08-.21-2.17-.32-3.25s-.25-2.35-.39-3.52-.26-2.35-.41-3.52-.29-2.34-.45-3.5-.31-2.33-.48-3.49c-.14-1-.28-1.93-.43-2.89-.21-1.37-.43-2.73-.66-4.09,0-.2-.07-.41-.1-.6a253.15,253.15,0,0,0-6.75-29.42Z" opacity=".1"/>
  <path transform="translate(-61.56 -83.02)" d="M1130.38,364.35h-91.94V475.79h85.22c.22,1.15.44,2.3.68,3.45h-85.9v89.85l.43-.14c2.43-.85,4.84-1.75,7.23-2.72l1.55-.62q3.66-1.53,7.23-3.23c.84-.39,1.68-.8,2.51-1.22a150,150,0,0,0,36.17-25c.31-.26.6-.55.89-.82,1.46-1.41,2.9-2.85,4.3-4.32.52-.54,1-1.08,1.54-1.64,1.65-1.79,3.24-3.64,4.79-5.5.23-.28.45-.56.68-.82A115.92,115.92,0,0,0,1121.34,498c.13-.26.24-.55.36-.82,1.26-2.82,2.39-5.68,3.37-8.59.41-1.22.81-2.45,1.16-3.68.13-.37.23-.74.34-1.1,5.09-17.84,5.68-36.4,5.68-54.85q0-3.23,0-6.45c0-7.45-.11-14.95-.24-22.44,0-1.94-.1-3.88-.14-5.83-.13-4.94-.3-9.9-.54-14.84-.06-1.37-.13-2.75-.21-4.11,0-.79-.08-1.58-.14-2.37Q1130.71,368.61,1130.38,364.35Z" opacity=".1"/>
  <polygon points="885.8 177.48 885.8 277.89 954.93 277.89 954.93 177.48 945.08 177.48 945.08 143.48 904.61 143.48 904.61 177.48" opacity=".1"/>
  <rect x="885.8" y="281.33" width="69.13" height="111.44" opacity=".1"/>
  <path transform="translate(-61.56 -83.02)" d="m1016.5 479.24h-69.13v92.66a199.92 199.92 0 0 0 24.86 4.7l2.07 0.23 3 0.27c1 0.08 2 0.16 3 0.22h0.31c0.44 0 0.89 0 1.34 0.06h0.46c0.54 0 1.09 0.05 1.63 0.06 0.78 0 1.55 0 2.33 0.06h1 2.33 1.7 1.39l1.75-0.06c0.93 0 1.88-0.08 2.82-0.14l1.74-0.12 2.17-0.17c1.52-0.12 3-0.28 4.54-0.46l1.81-0.23 0.89-0.11c1.51-0.2 3-0.43 4.51-0.69 1.12-0.17 2.23-0.38 3.35-0.58z" opacity=".1"/>
  <polygon points="453.64 281.33 453.64 392.77 736.58 392.77 736.58 344.71 585.87 344.71 585.87 373.06 510.64 373.06 510.64 281.33" opacity=".1"/>
  <path transform="translate(-61.56 -83.02)" d="M514.29,598.73l.9,0V671.8q15.33-1.15,30.54-3.14a547,547,0,0,0,132.33-34.27q18.23-7.3,35.73-15.94A466.71,466.71,0,0,0,769.63,586q6.68-4.53,13.17-9.29c3-2.2,6-4.46,9-6.64,2.09-1.51,4.2-3,6.35-4.41V479.24H573c.16-.52.31-1,.47-1.54-.17.51-.33,1-.48,1.54H515.19V598.68Z" opacity=".1"/>
  <path transform="translate(-61.56 -83.02)" d="M366.52,240.27h37.14V230H387V199.43c-1.44.48-2.89,1-4.32,1.45V230H366.52Z" opacity=".1"/>
  <path transform="translate(-61.56 -83.02)" d="M277,360.9H459.39l-.06,0,.08,0h33.82V248.64h-9.58v83h-43.8V282.51H403.66V243.72H366.52v38.79H330.35v49.11H277Z" opacity=".1"/>
  <path transform="translate(-61.56 -83.02)" d="M277,364.35V475.79H493.23V364.35Zm7.55,275.24a511.15,511.15,0,0,0,129.73,30.78l.19,0q12.58,1.33,25.25,2.06l.31,0h0c17.69,1,35.45,1.23,53.18.57V479.23H277v39.51H218l.31,88.22" opacity=".1"/>
  <path transform="translate(-61.56 -83.02)" d="M192.26,479.24H141.83c.44,22.63,5.55,44.85,16.74,65.38,9.29,17.06,22.22,32,37.5,45V518.74h-3.81Z" opacity=".1"/>
  <path transform="translate(-61.56 -83.02)" d="M141.8,475.79h50.46V382.65H165C150.83,412,141.84,444.23,141.8,475.79Z" opacity=".1"/>
  <path transform="translate(-61.56 -83.02)" d="m515.19 644.61v27.19q15.33-1.15 30.54-3.14v-24z" opacity=".1"/>
  <rect x="605.7" y="390.19" width="130.88" height="2.58" opacity=".1"/>
  <rect x="605.7" y="396.22" width="130.88" height="9.91" opacity=".1"/>
  <rect x="605.7" y="438.61" width="130.88" height="15.94" opacity=".1"/>
  <path transform="translate(-61.56 -83.02)" d="m667.25 570v16h102.38q6.68-4.53 13.17-9.29c3-2.2 6-4.45 9-6.64z" opacity=".1"/>
  <path transform="translate(-61.56 -83.02)" d="m667.25 618.45v15.94h10.81q18.24-7.3 35.73-15.94z" opacity=".1"/>
  <rect transform="translate(1908.5 476.68) rotate(180)" x="972.16" y="268.39" width="25.76" height="22.91" opacity=".1"/>
  <rect transform="translate(1908.5 583.12) rotate(180)" x="972.16" y="321.61" width="25.76" height="22.91" opacity=".1"/>
  <rect transform="translate(1908.5 689.55) rotate(180)" x="972.16" y="374.83" width="25.76" height="22.91" opacity=".1"/>
  <rect transform="translate(1908.5 795.99) rotate(180)" x="972.16" y="428.05" width="25.76" height="22.91" opacity=".1"/>
  <rect transform="translate(1908.5 902.43) rotate(180)" x="972.16" y="481.27" width="25.76" height="22.91" opacity=".1"/>
  <rect transform="translate(1908.5 1008.9) rotate(180)" x="972.16" y="534.49" width="25.76" height="22.91" opacity=".1"/>
  <rect transform="translate(596.06 690.19) rotate(180)" x="315.93" y="375.15" width="25.76" height="22.91" opacity=".1"/>
  <rect transform="translate(596.06 803.21) rotate(180)" x="315.93" y="431.66" width="25.76" height="22.91" opacity=".1"/>
  <rect transform="translate(792.78 916.23) rotate(180)" x="414.29" y="488.17" width="25.76" height="22.91" opacity=".1"/>
  <rect transform="translate(596.06 916.23) rotate(180)" x="315.93" y="488.17" width="25.76" height="22.91" opacity=".1"/>
  <rect transform="translate(792.78 1029.3) rotate(180)" x="414.29" y="544.68" width="25.76" height="22.91" opacity=".1"/>
  <rect transform="translate(596.06 1029.3) rotate(180)" x="315.93" y="544.68" width="25.76" height="22.91" opacity=".1"/>
  <rect transform="translate(596.06 1142.3) rotate(180)" x="315.93" y="601.19" width="25.76" height="22.91" opacity=".1"/>
  <path transform="translate(-61.56 -83.02)" d="M1038.44,332.24v13.11h88.17V332.24Zm79.39.83h7.23v11.46h-7.23Zm-8.78,0h7.23v11.46h-7.23Zm-8.76,0h7.23v11.46h-7.23Zm-8.78,0h7.23v11.46h-7.23Zm-8.77,0H1090v11.46h-7.23Zm-8.78,0h7.23v11.46H1074Zm-8.78,0h7.23v11.46h-7.23Zm-8.77,0h7.23v11.46h-7.23Zm-8.77,0h7.23v11.46h-7.23Zm-8.77,0h7.23v11.46h-7.23Z" opacity=".1"/>
  <path transform="translate(-61.56 -83.02)" d="M1038.44,370.4v13.11h88.17V370.4Zm79.39.83h7.23v11.45h-7.23Zm-8.78,0h7.23v11.45h-7.23Zm-8.76,0h7.23v11.45h-7.23Zm-8.78,0h7.23v11.45h-7.23Zm-8.77,0H1090v11.45h-7.23Zm-8.78,0h7.23v11.45H1074Zm-8.78,0h7.23v11.45h-7.23Zm-8.77,0h7.23v11.45h-7.23Zm-8.77,0h7.23v11.45h-7.23Zm-8.77,0h7.23v11.45h-7.23Z" opacity=".1"/>
  <path transform="translate(-61.56 -83.02)" d="M1038.44,408.56v13.1h88.17v-13.1Zm79.39.82h7.23v11.45h-7.23Zm-8.78,0h7.23v11.45h-7.23Zm-8.76,0h7.23v11.45h-7.23Zm-8.78,0h7.23v11.45h-7.23Zm-8.77,0H1090v11.45h-7.23Zm-8.78,0h7.23v11.45H1074Zm-8.78,0h7.23v11.45h-7.23Zm-8.77,0h7.23v11.45h-7.23Zm-8.77,0h7.23v11.45h-7.23Zm-8.77,0h7.23v11.45h-7.23Z" opacity=".1"/>
  <path transform="translate(-61.56 -83.02)" d="M1038.44,446.71V459.8h88.17V446.71Zm79.39.81h7.23V459h-7.23Zm-8.78,0h7.23V459h-7.23Zm-8.76,0h7.23V459h-7.23Zm-8.78,0h7.23V459h-7.23Zm-8.77,0H1090V459h-7.23Zm-8.78,0h7.23V459H1074Zm-8.78,0h7.23V459h-7.23Zm-8.77,0h7.23V459h-7.23Zm-8.77,0h7.23V459h-7.23Zm-8.77,0h7.23V459h-7.23Z" opacity=".1"/>
  <path transform="translate(-61.56 -83.02)" d="M1038.44,484.85V498h82.9c.12-.26.24-.55.35-.82h-3.86V485.68h7.23v2.86c.42-1.22.82-2.45,1.17-3.69Zm70.61.83h7.23v11.45h-7.23Zm-8.76,0h7.23v11.45h-7.23Zm-8.78,0h7.23v11.45h-7.23Zm-8.77,0H1090v11.45h-7.23Zm-8.78,0h7.23v11.45H1074Zm-8.78,0h7.23v11.45h-7.23Zm-8.77,0h7.23v11.45h-7.23Zm-8.77,0h7.23v11.45h-7.23Zm-8.77,0h7.23v11.45h-7.23Z" opacity=".1"/>
  <path transform="translate(-61.56 -83.02)" d="M1038.44,523v13.1h55.11c.32-.27.6-.55.89-.82h-2.93V523.83h7.23V531l1.55-1.65v-5.5h4.79c.23-.28.45-.56.68-.82Zm44.3.82H1090v11.46h-7.23Zm-8.78,0h7.23v11.46H1074Zm-8.78,0h7.23v11.46h-7.23Zm-8.77,0h7.23v11.46h-7.23Zm-8.77,0h7.23v11.46h-7.23Zm-8.77,0h7.23v11.46h-7.23Z" opacity=".1"/>
  <path transform="translate(-61.56 -83.02)" d="M1038.44,561.16v7.93l.43-.14v-7h7.23v4.26l1.54-.64V562h7.23v.4c.85-.39,1.69-.8,2.52-1.22Z" opacity=".1"/>
  <path transform="translate(-61.56 -83.02)" d="m459.35 360.92zm54.94 237.81h0.9zm58.64-119.5c0.16-0.5 0.31-1 0.48-1.53-0.17 0.51-0.33 1.03-0.48 1.53zm-113.58-118.31zm506.81-120.65v3.44h40.47v-3.44zm-451.87 358.46h0.9zm58.64-119.5c0.16-0.5 0.31-1 0.48-1.53-0.17 0.51-0.33 1.03-0.48 1.53zm-113.58-118.31zm54.94 237.81h0.9zm58.64-119.5c0.16-0.5 0.31-1 0.48-1.53-0.17 0.51-0.33 1.03-0.48 1.53z" opacity=".1"/>
  <rect x="74.53" y="698.04" width="1001.9" height="35.42" opacity=".1"/>
 </g>
 <rect x="104.76" y="472.85" width="5.07" height="114.02" fill="#535461"/>
 <path transform="translate(-61.56 -83.02)" d="M203.21,669.54l-.32,5.14-.44,7.25-.19,3-.45,7.25-.19,3-.45,7.24-5.11,82.45A14,14,0,0,1,182.13,798H155.58a14,14,0,0,1-13.93-13.1l-5.12-82.45-.44-7.24-.19-3-.46-7.25-.18-3-.45-7.25-.32-5.14a7.23,7.23,0,0,1,7.22-7.67H196A7.21,7.21,0,0,1,203.21,669.54Z" fill="#3f3d56"/>
 <g fill="#9d9cb5">
  <polygon points="141.34 591.66 140.89 598.91 73.7 598.91 73.26 591.66"/>
  <polygon points="140.71 601.93 140.26 609.19 74.34 609.19 73.89 601.93"/>
  <polygon points="140.06 612.21 139.62 619.46 74.98 619.46 74.53 612.21"/>
 </g>
 <path transform="translate(-61.56 -83.02)" d="m127.08 598.61c29.49 21.33 41.77 54.71 41.77 54.71s-35.54-1.22-65-22.56-41.85-54.71-41.85-54.71 35.58 1.22 65.08 22.56z" fill="#38bc24"/>
 <path transform="translate(-61.56 -83.02)" d="m62 576.05s36.89 20.48 48.72 37.43 58.09 39.84 58.09 39.84" fill="none" stroke="#535461" stroke-miterlimit="10" stroke-width="2"/>
 <path transform="translate(-61.56 -83.02)" d="m146.11 555.62c16.06 11.61 22.74 29.78 22.74 29.78s-19.34-0.67-35.4-12.28-22.73-29.78-22.73-29.78 19.34 0.66 35.39 12.28z" fill="#38bc24"/>
 <path transform="translate(-61.56 -83.02)" d="m110.72 543.34s20.07 11.15 26.52 20.37 31.61 21.69 31.61 21.69" fill="none" stroke="#535461" stroke-miterlimit="10" stroke-width="2"/>
 <path transform="translate(-61.56 -83.02)" d="m192.18 584.47c-18.44 20.27-22.34 46.75-22.34 46.75s26-6.38 44.44-26.65 22.34-46.74 22.34-46.74-26 6.37-44.44 26.64z" fill="#38bc24"/>
 <path transform="translate(-61.56 -83.02)" d="m236.62 557.83s-24 20.77-30.13 35.09-36.65 38.3-36.65 38.3" fill="none" stroke="#535461" stroke-miterlimit="10" stroke-width="2"/>
 <rect x="453.64" y="165.62" width="57.01" height="112.26" fill="#707070" opacity=".1"/>
 <g fill="#38bc24">
  <rect x="453.64" y="196.83" width="30.54" height="35.2" opacity=".1"/>
  <rect x="453.64" y="269.78" width="30.54" height="8.1" opacity=".1"/>
  <rect x="453.64" y="281.33" width="30.54" height="23.65" opacity=".1"/>
  <rect x="453.64" y="342.74" width="30.54" height="35.2" opacity=".1"/>
  <rect x="453.64" y="415.7" width="30.54" height="35.2" opacity=".1"/>
  <path d="m453.63 515.66-0.9 0.05h0.9v8.17h30.54v-35.23h-30.54z" opacity=".1"/>
  <rect transform="scale(-1)" x="-378.49" y="-315.04" width="25.76" height="22.91" opacity=".1"/>
  <rect transform="scale(-1)" x="-378.49" y="-371.55" width="25.76" height="22.91" opacity=".1"/>
  <rect transform="scale(-1)" x="-378.49" y="-541.09" width="25.76" height="22.91" opacity=".1"/>
  <polygon points="378.5 589.46 378.5 574.68 352.74 574.68 352.74 587.36" opacity=".1"/>
 </g>
 <g fill="none" stroke="#3a93f2" stroke-miterlimit="10">
  <circle cx="406.3" cy="56.89" r="19.79"/>
  <circle cx="406.3" cy="56.89" r="35.77"/>
  <circle cx="406.3" cy="56.89" r="56.39"/>
 </g>
 <path d="m408.59 59.18v30.33a2.3 2.3 0 0 1-4.6 0v-30.33a2.3 2.3 0 0 1 2.3-2.3 2.32 2.32 0 0 1 2.3 2.3z" fill="#6f758d"/>
 <path d="m454.13 140.26v47.13a14.25 14.25 0 0 1-14.21 14.21h-20.36a14.25 14.25 0 0 1-14.22-14.21v-47.13a14.26 14.26 0 0 1 14.22-14.21h20.36a14.25 14.25 0 0 1 14.21 14.21z" fill="#6f758d"/>
 <g fill="#3f3d56">
  <path d="m374.07 316.87-3.89 48s-5.84-5.29-13.4-12.19c-14-12.77-33.9-31.06-33.67-31.54 0.37-0.74 3.52-44.29 3.89-55.22a66.29 66.29 0 0 1 5-22.61c0.7-1.41 2.7-10.46 3.61-14.69 0.29-1.32 0.46-2.17 0.46-2.17l6.49-2.6s27.24 30.39 27.24 30.95-1.85 23.9-1.85 23.9l-1.94 1.69-0.84 0.72s-1.3 10.2-2.23 13.25c-0.87 2.9 0.08 8.37 0.18 8.94v0.05a26.39 26.39 0 0 1-0.68 4.74 9.68 9.68 0 0 1-0.62 1.75 4.3 4.3 0 0 0 0.19 3.14 19.06 19.06 0 0 0 2 3.9z"/>
  <path d="m539.16 321.13c0.29 0.58-28.77 27.1-41.36 38.55l-5.71 5.18-3.89-48h10s3.34-4.82 2.23-7-1.3-6.49-1.3-6.49 1.11-5.93 0.19-9-2.23-13.25-2.23-13.25l-1.27-1.14-1.51-1.32s-1.87-23.31-1.87-23.87 27.24-30.95 27.24-30.95l6.48 2.6s0.15 0.7 0.38 1.81c0.88 4 3 13.6 3.7 15.05a66.12 66.12 0 0 1 5 22.61c0.4 10.93 3.55 54.48 3.92 55.22z"/>
  <path d="m539.28 728.49c-1.73 3.46-14 1.24-16.48 1s-20.33-9.15-20.58-11.24-6.43-6.43-8.15-6.43-10.13-6.67-10.88-7.66a4.19 4.19 0 0 1-0.25-1.54c-0.26-4.06 0.25-14.52 0.25-14.52l35.83 2 17.42 26.16s2.62 5 3.14 9a5.79 5.79 0 0 1-0.3 3.23z"/>
 </g>
 <path d="m539.28 728.49c-1.73 3.46-14 1.24-16.48 1s-20.33-9.15-20.58-11.24-6.43-6.43-8.15-6.43-10.13-6.67-10.88-7.66a4.19 4.19 0 0 1-0.25-1.54c-0.26-4.06 0.25-14.52 0.25-14.52l35.83 2 17.42 26.16s2.62 5 3.14 9a5.79 5.79 0 0 1-0.3 3.23z" opacity=".1"/>
 <path d="m539.28 728.49c-1.73 3.46-14 1.24-16.48 1s-20.33-9.15-20.58-11.24-6.43-6.43-8.15-6.43-10.13-6.67-10.88-7.66a4.19 4.19 0 0 1-0.25-1.54l11.62 7.36s7.41 4.7 9.39 7.54 17.56 8.65 18.85 8.76c1 0.1 11.2-1.86 16.78-1a5.79 5.79 0 0 1-0.3 3.21z" opacity=".1"/>
 <path d="m369.91 706.87s-5.07 6.3-11.86 6.79a7 7 0 0 0-6.92 6.67s1.24 3.84-15.19 9.15c-9.89 3.2-16.11 2.19-19.74 0a8.77 8.77 0 0 1-4.1-5c-1.11-3.95 20.75-34 20.75-34l19.89-1.24 14.21 6.43 2.17 8.13z" fill="#3f3d56"/>
 <path d="m369.91 706.87s-5.07 6.3-11.86 6.79a7 7 0 0 0-6.92 6.67s1.24 3.84-15.19 9.15c-9.89 3.2-16.11 2.19-19.74 0a8.77 8.77 0 0 1-4.1-5c-1.11-3.95 20.75-34 20.75-34l19.89-1.24 14.21 6.43 2.17 8.13z" opacity=".1"/>
 <path d="m369.91 706.87s-5.07 6.3-11.86 6.79a7 7 0 0 0-6.92 6.67s1.24 3.84-15.19 9.15c-9.89 3.2-16.11 2.19-19.74 0 9.33-1 29.93-6.86 32-8.9 2.47-2.48 5.56-9.27 7.66-9.39 1.45-0.09 8.85-4.55 13.29-7.31z" fill="none"/>
 <path d="m369.91 706.87s-5.07 6.3-11.86 6.79a7 7 0 0 0-6.92 6.67s1.24 3.84-15.19 9.15c-9.89 3.2-16.11 2.19-19.74 0 9.33-1 29.93-6.86 32-8.9 2.47-2.48 5.56-9.27 7.66-9.39 1.45-0.09 8.85-4.55 13.29-7.31z" opacity=".1"/>
 <path d="m522.44 679.32c-2.22 5.19 0 15.81 0 15.81s-33.11 1.74-41.26-3.7-13.84-36.57-13.84-36.57 1.23-36.56 0-38.3-5.68-9.88-4.2-11.6-1.24-10.88-3.21-14.83-1.24-15.32-1.24-15.32l-4.94-30.14-7.66-35.83-6.42-24s-6.67-19.52-8.94-27.68-4.65-0.74-4.65-0.74c-0.24 7.91-18.53 43.49-18.53 43.49s-2.72 21.49-5.69 29.15-6.17 34.35-6.17 34.35-4.69 54.35-8.65 63.49-6.6 22.77-6.6 22.77 1 18.78-1.48 20.26-2 12.85-2 12.85 1.48 10.87-4.21 12.61-4.69 5.43-4.69 5.43-31.62 5.16-36.82-8.65 2-17.54 2.34-18.53 4.34-2.71 0.87-6.67 4.45-14.83 4.45-14.83 1.24-15.31 3.46-15.81 1.48-22.73 1.48-22.73l2.47-23.22s3.22-51.89 2.48-53.87-0.25-11.86 2.22-16.55 4.43-47.93 4.43-47.93-0.5-21.25 1.48-25.2c1.12-2.24 1.68-10.85 2-17.88 0.2-5.35 0.26-9.79 0.26-9.79l27.66-10.38 35.6-11.36 29.9 14.32 43.73 8.4 0.55 7.55 8.31 115.29 4.7 43.49s2 20.5 2.23 24.2 2.71 27.93 2.71 27.93 5.19 11.61 2 15.56-2 7.17-2 7.17 10.13 12.8 7.87 17.99z" fill="#3f3d56"/>
 <polygon points="397.34 181.1 406.46 182.27 422.55 184.32 438.48 185.31 455.74 183.38 470.6 181.72 459.24 384.2 397.46 371.23 385.23 290.06" opacity=".1"/>
 <polygon points="397.34 182.59 406.46 183.75 422.55 185.8 438.48 186.79 455.74 184.86 470.6 183.21 459.24 385.68 397.46 372.71 385.23 291.54" fill="#fff"/>
 <path d="m419.82 188.64 22.24 0.74-6.25 8.75s0.44 17.68 3.41 22.75 2.1 83.39 2.1 83.39l-5.88 11.24-10.13-12.6 0.12-103.4z" fill="#3a93f2"/>
 <polygon points="454.66 165.66 433.91 188.64 445.77 200.99 465.41 181.85" opacity=".1"/>
 <path d="m453.29 165.69-19.39 21.46 11.86 12.36 19.68-19.15-9.61-14.48a1.58 1.58 0 0 0-2.54-0.19z" fill="#fff"/>
 <polygon points="425.14 187.53 404.14 166.53 402.16 177.52 411.8 201.61" opacity=".1"/>
 <polygon points="425.88 186.05 404.88 165.04 402.9 176.04 412.54 200.13" fill="#fff"/>
 <path d="m496.59 427.69a102.37 102.37 0 0 1-31.93 9.29c-20.38 2.6-33.72-23.34-33.72-23.34l-7.78 10.13c-2.47 10.75-40.16 13.46-55.47 9.38a24.27 24.27 0 0 1-8.78-4.16c0.2-5.35 0.26-9.79 0.26-9.79l27.67-10.42 35.6-11.36 29.9 14.32 43.73 8.4z" opacity=".1"/>
 <path d="m470.59 183.2-11.36 202.47-61.77-13-12.23-81.16 12.11-109 9.12 1.16a110.57 110.57 0 0 1-1.34 11.81c-1.48 6.92 7.66 56.09 7.66 56.09s17.37 55.13 25.2 47.19 18.9-49.91 18.9-49.91c7.54-15.57 0.13-59.17-0.43-60.1a17.65 17.65 0 0 1-0.71-4z" opacity=".1"/>
 <path d="m497.28 339.84 0.52 19.84-5.71 5.18-3.89-48h8.52z" opacity=".1"/>
 <path d="m363.13 303.29v0.05a26.39 26.39 0 0 1-0.68 4.74c0-0.44 0-0.69-0.08-0.72-0.36-0.16 0.07-1.97 0.76-4.07z" opacity=".1"/>
 <path d="m374.07 316.87-3.89 48s-5.84-5.29-13.4-12.19l0.9-8.5s3.19-20.9 4.35-31.2a19.06 19.06 0 0 0 2 3.9z" opacity=".1"/>
 <g fill="#3f3d56">
  <path d="m407.58 165.78s-3.7-5.43-8.76 5.07c0 0-13.22 7.66-17.79 8.52s-20.75 6.55-20.75 6.55a14.3 14.3 0 0 1-8.41 2.72c-5.06 0-9.26 11.11-8.64 17.17s-0.37 10.5-5.07 10.75-2.1 10-2.1 10l31.26 35.83s2 33 1 34-4.58 10.62-3.71 11-4.7 36.82-4.7 36.82l-7.54 70.77s0 11.85 15.32 15.93 53 1.36 55.47-9.39l7.78-10.13s13.34 26 33.72 23.35 33.36-10 33.36-10l-2.23-84.87-1.48-61.15 31.87-52.25s-8.52-16.31-7.78-23.72 2.23-13-15.93-15.57c0 0-15.32-2.28-24.34-8.52a69.38 69.38 0 0 0-17.42-8.77s-4.1-7.4-7.64-4.2c0 0 2.58 11.36 2.27 13.4s0.55 11.06 1.11 12 8 44.53 0.43 60.1c0 0-11.07 42-18.9 49.9s-25.2-47.19-25.2-47.19-9.14-49.16-7.66-56.08 2.46-32.04 2.46-32.04z"/>
  <circle cx="434.03" cy="322.31" r="5.44"/>
  <circle cx="434.03" cy="347.94" r="5.44"/>
 </g>
 <circle cx="434.03" cy="322.31" r="5.44" opacity=".1"/>
 <circle cx="434.03" cy="347.94" r="5.44" opacity=".1"/>
 <path d="m482.87 671.91s22.31 1.73 24.54 3.46-24.54-3.46-24.54-3.46z" opacity=".1"/>
 <path d="m350.02 654.37s4.7 5.93 2.72 8.65-2.72-8.65-2.72-8.65z" opacity=".1"/>
 <path d="m355.7 675.72s8.65-5.68 12.11-1.9-12.11 1.9-12.11 1.9z" opacity=".1"/>
 <path d="m454.13 140.26v14.27a14.1 14.1 0 0 1-5.66 1.19h-37.45a14 14 0 0 1-5.68-1.2v-14.26a14.26 14.26 0 0 1 14.22-14.21h20.36a14.26 14.26 0 0 1 14.21 14.21z" opacity=".1"/>
 <path d="m408.59 78.98v10.54a2.3 2.3 0 0 1-4.6 0v-8.87a13.57 13.57 0 0 1 4.6-1.67z" opacity=".1"/>
 <rect x="396.8" y="79.94" width="65.88" height="73.41" rx="12" fill="#dcdfed"/>
 <path d="m448.44 128.98v29.93h-37.42v-29.99a14.12 14.12 0 0 1 8.54-2.87h20.36a14.18 14.18 0 0 1 8.52 2.93z" opacity=".1"/>
 <rect x="410.27" y="79.94" width="38.61" height="76.55" opacity=".1"/>
 <rect x="411.02" y="79.94" width="37.45" height="76.55" fill="#6f758d"/>
 <g fill="#dcdfed">
  <rect x="413.77" y="106.35" width="12.11" height="2.24"/>
  <rect x="433.91" y="106.35" width="12.11" height="2.24"/>
  <rect x="419.52" y="131.09" width="20.44" height="1.34"/>
 </g>
 <g transform="translate(-498.92 28.086)">
  <polygon transform="matrix(1.1199 0 0 1.1199 229.77 -152.79)" points="927.44 694.44 908.75 695.22 908.75 717.81 920.43 731.83 930.56 727.16" fill="#ffb9b9"/>
  <path d="m1252.7 649.34s-3.4896-12.213-9.5963-3.4896c-6.1067 8.7239-12.214 27.917-15.703 28.789-3.4895 0.87239-27.916 27.917-3.4896 27.917s32.279-11.341 32.279-11.341 24.427-9.5963 24.427-11.341c0-1.7448-3.4896-34.023-5.2344-34.023-1.7447 0-2.6172 6.1068-6.9791 6.1068s-15.703-2.6171-15.703-2.6171z" fill="#2f2e41" stroke-width="1.1199"/>
  <polygon transform="matrix(1.1199 0 0 1.1199 229.77 -152.79)" points="978.86 697.56 960.94 699.12 960.16 720.15 978.86 727.94" fill="#ffb9b9"/>
  <g stroke-width="1.1199">
   <path d="m1328.6 653.7s-11.341-12.213-17.448-9.5963a60.264 60.264 0 0 0-8.7239 4.362s-3.4895 11.341-5.2343 20.937c-1.7448 9.5963-2.6172 13.958-4.3619 17.448-1.7448 3.4896-3.4896 16.575 13.958 18.32 17.448 1.7448 22.682-7.8515 22.682-7.8515l4.362-22.682s-1.7448-20.937-5.2344-20.937z" fill="#2f2e41"/>
   <path d="m1258.8 378.9s-25.299 56.705-21.81 108.18c0 0-8.7239 20.065-3.4895 51.471 5.2343 31.406 12.213 94.218 12.213 94.218s23.555 2.6172 25.299-1.7448c0 0 1.7448-43.62 3.4896-45.364 1.7447-1.7448-0.8724-41.875-3.4896-49.726-2.6171-7.8515 24.427-85.494 24.427-85.494l-6.9791-96.835z" fill="#2f2e41"/>
   <path d="m1258.8 378.9s-25.299 56.705-21.81 108.18c0 0-8.7239 20.065-3.4895 51.471 5.2343 31.406 12.213 94.218 12.213 94.218s23.555 2.6172 25.299-1.7448c0 0 1.7448-43.62 3.4896-45.364 1.7447-1.7448-0.8724-41.875-3.4896-49.726-2.6171-7.8515 24.427-85.494 24.427-85.494l-6.9791-96.835z" opacity=".1"/>
   <path d="m1251.8 375.41 16.575 35.768s7.8515 81.132 12.214 91.601c0 0 1.7449 29.661 9.5964 39.258 7.8515 9.5963 13.958 94.218 13.958 94.218s21.81 6.1067 23.555 0c1.7448-6.1067 6.9792-47.982 6.9792-47.982s1.7448-35.768-7.8516-59.323c-9.5964-23.555 11.341-108.18 11.341-108.18s21.81-41.002-9.5963-74.153z" fill="#2f2e41"/>
  </g>
  <path d="m1255 212.56a101.23 101.23 0 0 0-3.41 16.76c-2 13.71-4 27.5-3.62 41.34a77.82 77.82 0 0 1 0 9.29 57.86 57.86 0 0 1-1.64 8.35 1.77 1.77 0 0 1-0.74 1.26c-0.47 0.23-1 0-1.55-0.06-1.78-0.22-3.09 1.5-4.47 2.66a8.48 8.48 0 0 1-9.63 0.71 10.74 10.74 0 0 1-4.11 11 14.48 14.48 0 0 1-11.88 2.23c2.05-0.32 4 1.12 5.16 2.87 0.4 0.63 0.72 1.38 1.4 1.69s1.87-0.08 2.67 0.34a3.39 3.39 0 0 1 1 1c2.48 3.33 7.09 4.15 11.24 4.26s8.54-0.17 12.2 1.8a30.83 30.83 0 0 0 2.69 1.51c2.88 1.19 6.32 0 8.56-2.13s3.48-5.14 4.4-8.11c3.7-12 3-24.91 2.22-37.47-1.22-19.98-3.76-40.43-10.49-59.3z" fill="#38bc24"/>
  <path d="m1255 212.56a101.23 101.23 0 0 0-3.41 16.76c-2 13.71-4 27.5-3.62 41.34a77.82 77.82 0 0 1 0 9.29 57.86 57.86 0 0 1-1.64 8.35 1.77 1.77 0 0 1-0.74 1.26c-0.47 0.23-1 0-1.55-0.06-1.78-0.22-3.09 1.5-4.47 2.66a8.48 8.48 0 0 1-9.63 0.71 10.74 10.74 0 0 1-4.11 11 14.48 14.48 0 0 1-11.88 2.23c2.05-0.32 4 1.12 5.16 2.87 0.4 0.63 0.72 1.38 1.4 1.69s1.87-0.08 2.67 0.34a3.39 3.39 0 0 1 1 1c2.48 3.33 7.09 4.15 11.24 4.26s8.54-0.17 12.2 1.8a30.83 30.83 0 0 0 2.69 1.51c2.88 1.19 6.32 0 8.56-2.13s3.48-5.14 4.4-8.11c3.7-12 3-24.91 2.22-37.47-1.22-19.98-3.76-40.43-10.49-59.3z" opacity=".1"/>
  <path d="m1279.7 246.36a28.65 28.65 0 0 0 1.39 7 9.87 9.87 0 0 0 2.85 4.22c2.14-2.89 6-3.88 8.84-6 2.51-1.85 4.28-4.5 6.15-7 3.68-4.92 8-9.38 12-14.08 0.6-0.71 1.19-1.42 1.77-2.15a63 63 0 0 0 5.51-7.86c3.32-5.71 5.59-12.28 10.58-16.61 2.72-2.35 6.13-3.91 8.55-6.58-1.64-2.41-2.25-5.33-2.83-8.19a83.83 83.83 0 0 1-1.42-8.36c-0.09-0.74-0.14-1.49-0.17-2.24 0-0.32 0-0.64-0.05-1 0-2.29 1.48-6.23-0.86-7.52-2.16-1.19-5.69-1.2-8.21-1.17h-0.41a30.15 30.15 0 0 0-16.51 5.12 10.34 10.34 0 0 0-2.86 2.61c-1.31 2-1.38 4.4-1.28 6.79 0 0.55 0.05 1.09 0.09 1.62v0.8c0.09 2.66-0.17 5.51-2 7.35-2 2-5.18 2.09-7.89 2.94-0.45 0.14-0.88 0.3-1.3 0.47a17.48 17.48 0 0 0-7.35 6.23 30.22 30.22 0 0 0-4.26 10.25 58 58 0 0 0-1.42 10c-0.52 7.73 0.28 15.61 1.09 23.36z" fill="#fbbebe"/>
  <path d="m1302.8 184.96v0.8c3.32 1.21 11.4-2.19 15.14-2.19 7.42 0 9.71 1.47 15.08-2.86-0.12-1.06-0.19-2.13-0.22-3.2 0-2.29 1.48-6.23-0.86-7.52s-6.09-1.2-8.62-1.17a30.15 30.15 0 0 0-16.51 5.12 10.34 10.34 0 0 0-2.86 2.61c-1.57 2.4-1.32 5.55-1.15 8.41z" opacity=".1"/>
  <path d="m1282.2 154.03a31.21 31.21 0 0 0 31.23 31.22 31.24 31.24 0 0 0 31.22-31.22 31.23 31.23 0 0 0-62.45 0z" fill="#fbbebe"/>
  <path d="m1334.7 190.93a6.52 6.52 0 0 1 3.46-1.48c1.84 0 3.35 1.51 4.11 3.18s1 3.53 1.65 5.25a11.48 11.48 0 0 0 4.62 5.62c1.47 0.92 3.22 1.56 4.23 3 1.59 2.25 0.62 5.39-0.72 7.8-5 9-14 14.86-22.71 20.38l-9.8 6.22a131.5 131.5 0 0 1-12.18 7.15c-6.8 3.35-14.15 5.5-20.91 8.92-3.11 1.57-6.16 3.44-9.6 4a31.67 31.67 0 0 1-1.36-7.12c-1.67-14.91-3.32-30.14 0-44.77 0.62-2.79 1.49-5.64 3.45-7.71a16.94 16.94 0 0 1 4.35-3 123.56 123.56 0 0 1 12.22-5.73 13.86 13.86 0 0 1 6.28-1.39 13.19 13.19 0 0 1-1.43 4.67l-15.75 35.06c-1 2.2-2 4.5-1.92 6.92 0.12 3.44 2.44 6.79 1.49 10.1a235.1 235.1 0 0 1 31.32-36.9 5 5 0 0 0 1.25-1.55 6.24 6.24 0 0 0 0.18-2.89c-0.11-1.84 0.27-4.3 1.81-5.53 1.07-0.86 2.65-1.11 3.83-1.86 4.14-2.61 8.1-5.56 12.13-8.34z" fill="#9d9cb5"/>
  <path d="m1251.3 378.16c7.77 4.14 16.53 6.16 25.3 7s17.59 0.49 26.39 0.15c6.68-0.24 13.35-0.51 20-0.75 9.08-0.36 18-1.09 26.68-3.83-0.75-1.81-1.61-3.59-2.5-5.33a263.17 263.17 0 0 0-76.3-6.53 42.23 42.23 0 0 0-12 2 17.69 17.69 0 0 0-7 4.54c-0.14 0.93-0.36 1.85-0.57 2.75z" opacity=".1"/>
  <path d="m1252.7 280.57c3.46 11.69 1.09 24.48-1.07 36.47-1.29 0.65-1.69 2.38-1.41 3.8a24 24 0 0 0 1.66 4 4.76 4.76 0 0 1 0.1 4.19c-0.31 0.55-0.8 1-1.12 1.5a6.16 6.16 0 0 0-0.62 2.79c-0.29 4.53-0.56 9.14 0.66 13.5 0.71 2.54 1.92 5.18 1.12 7.68-0.47 1.51-1.64 2.79-1.81 4.37s0.82 3.22 1.4 4.81c1.37 3.74 0.63 8.24-0.32 12.11 7.77 4.14 16.53 6.16 25.3 7s17.59 0.49 26.39 0.16l20-0.76c9.15-0.36 18.15-1.1 26.88-3.89 0.84-6 1.55-12.65-1.82-17.68a10 10 0 0 1-1.57-2.67c-0.6-2.06 0.7-4.15 1.12-6.26 0.85-4.31-2-8.36-4.52-12a5.67 5.67 0 0 1-0.86-1.61c-0.46-1.66 0.54-3.49 0.56-5.16a3 3 0 0 0-0.32-1.4c-0.37-0.7-1.06-1.18-1.44-1.88a5.11 5.11 0 0 1-0.34-2.88q0.69-9.37 2.26-18.65c0.1-0.56 0.2-1.13 0.33-1.69a9.29 9.29 0 0 1 0.92-2.45c0.58-1 1.43-1.81 2-2.82a4.07 4.07 0 0 0 0-3.63c-0.57-1.05 1-1.95 1.45-3a6.66 6.66 0 0 0 0.14-2.57 8.31 8.31 0 0 1 1.61-4c1.09-1.73 2.19-3.44 3.31-5.15q7.47-11.57 15.53-22.73 3.93-5.37 7.93-10.64c2.15-2.83 4.36-5.71 5.44-9.1a13.93 13.93 0 0 0 0.45-1.8 15.37 15.37 0 0 0-1.34-9.58c-1.28-2.56-3.23-4.69-4.94-7-1.9-2.56-3.53-5.36-5.71-7.68s-5.12-4.18-8.31-4.18c-1.85 0-4 0.52-5.29-0.8-0.47-0.48-0.72-1.12-1.2-1.57-1.36-1.29-3.58-0.41-5.21 0.51l-31.27 17.67-5.07 2.88c-0.92 0.55-1.86 1.09-2.78 1.65a108.14 108.14 0 0 0-12.53 8.5c-5.8 4.64-12.21 8.92-17.26 14.36-0.47 0.5-0.94 1-1.39 1.55q-1.37-9.54-2.73-19.11a24.09 24.09 0 0 1-0.36-5.56 24.47 24.47 0 0 1 1.34-5.36c0.2-0.61 0.42-1.24 0.62-1.86l3.37-10.11c1.65-4.95 3.41-10.1 7.14-13.75a19.26 19.26 0 0 0 2.48-2.55v-0.05a3.74 3.74 0 0 0 0.61-3.29l-26.34 8.22c-1.24 0.39-2.49 0.78-3.68 1.29a17.43 17.43 0 0 0-4 2.43 14.66 14.66 0 0 0-5.41 13.41c0.26 1.64 0.84 3.22 1.18 4.84 0.6 2.94 1.55 6.34 0.27 9.06s-2.43 5.15-3.63 7.72a38.52 38.52 0 0 0-2.46 6.1 30.13 30.13 0 0 0-0.85 8.78 66.14 66.14 0 0 0 3.38 19.38c0.63 2.06 1.41 4.08 2.03 6.14z" fill="#38bc24"/>
  <polygon transform="translate(472.69 -2.8817)" points="770.41 294.7 833.75 298.26 771.29 292.38 760.38 291.15" fill="#3f3d56"/>
  <polygon transform="translate(472.69 -2.8817)" points="765.72 296.08 835.15 301.28 835.15 296.58 768.94 293.31" fill="#3f3d56"/>
  <path d="m1307.6 289.44c-1.39-0.37-2.88-0.3-4.29-0.63-1.82-0.44-3.46-1.56-5.32-1.79a12 12 0 0 0-3.43 0.25l-8.57 1.5c-0.66 0.11-1.44 0.32-1.67 0.95a1.64 1.64 0 0 0 0.53 1.58c1.53 1.63 4 1.86 6.22 2l6 0.36a7 7 0 0 1 3.35 0.76 2.44 2.44 0 0 1 1.13 3 3.15 3.15 0 0 1-1.37 1.23 12.81 12.81 0 0 1-7.82 1.48 36.93 36.93 0 0 1-6.37-1.82 40.4 40.4 0 0 0-16.31-1.72c-1.42 0.14-3.09 0.55-3.6 1.89a3 3 0 0 0 0.58 2.75c2.13 3 6.38 3.08 10 3.88a20.5 20.5 0 0 1 9.12 4.73c-0.79 1.63-0.13 3.56 0.66 5.19a33.78 33.78 0 0 0 3.21 5.31 6.79 6.79 0 0 0 2.69 2.42 6.88 6.88 0 0 0 2.26 0.39 95.9 95.9 0 0 0 22.19-1.21 3.59 3.59 0 0 0 2.13-0.89 3.66 3.66 0 0 0 0.69-1.74q1.14-5.6 2-11.26c0.36-2.38 0.51-4.88-0.66-7.07-0.91-1.72-2.35-2.28-3.82-3.44-3.28-2.58-5.32-6.98-9.53-8.1z" fill="#fbbebe"/>
  <path d="m1227 211.78 15.51 76.92a3.77 3.77 0 0 1-4.07 4.49l-58.46-5.77a3.75 3.75 0 0 1-3.32-3l-14.33-71.16a3.77 3.77 0 0 1 3.69-4.51h57.29a3.78 3.78 0 0 1 3.69 3.03z" fill="#3f3d56"/>
  <path d="m1197.9 303.3c-3.68-2.36-4.78-7.09-6.49-11.11a69.05 69.05 0 0 0-4.69-8.56c-1.49-2.46-3-5.45-1.8-8.07a7.53 7.53 0 0 1 4.3-3.5 8.52 8.52 0 0 1 5.31-0.65c2 0.55 3.49 2.21 4.85 3.79l4.82 5.59c2.2 2.56 4.46 5.16 7.36 6.89a27.69 27.69 0 0 0 5.55 2.35q5.19 1.72 10.5 3a28.21 28.21 0 0 1 5.92 1.83 3.05 3.05 0 0 1 1.74 1.62 3.48 3.48 0 0 1-0.61 2.65c-1.22 2.28-2.61 6.91-5.17 7.72a41.74 41.74 0 0 1-7.33 1.15c-2.44 0.26-4.36-0.74-6.56-1.66a21.47 21.47 0 0 0-8.67-1.39c-2.6-0.01-7.02 0.36-9.03-1.65z" fill="#fbbebe"/>
  <path d="m1229.9 292.87s-2.16 14.8-16 13.21c0 0 7.33 2.93 6.56 4.56s17-3.18 17-3.18l0.92-7.72s0.59-4.25 0-4.37-8.48-2.5-8.48-2.5z" fill="#38bc24"/>
  <path d="m1229.9 292.87s-2.16 14.8-16 13.21c0 0 7.33 2.93 6.56 4.56s17-3.18 17-3.18l0.92-7.72s0.59-4.25 0-4.37-8.48-2.5-8.48-2.5z" opacity=".1"/>
  <path d="m1351.6 272.03a14.47 14.47 0 0 0 1.17 10.74q7.47-11.57 15.53-22.73 3.87-5.34 7.87-10.61c2.15-2.83 4.36-5.71 5.44-9.1a13.93 13.93 0 0 0 0.45-1.8 10 10 0 0 0-5.6-4c-3.63 10.52-12.83 18.06-19.4 27.05a30.73 30.73 0 0 0-5.46 10.45z" opacity=".1"/>
  <path d="m1305.3 325.85 21.75 0.74c1.86 0.06 4.15 0.43 4.73 2.19 0.18 0.56 0.14 1.17 0.32 1.72 0.61 2 3.26 2.22 5.33 2.21 1.8 0 3.6 0.07 5.39 0.21a3 3 0 0 0-0.32-1.4c-0.37-0.7-1.06-1.18-1.44-1.88a5.11 5.11 0 0 1-0.34-2.88q0.69-9.37 2.26-18.65c0.1-0.56 0.2-1.13 0.33-1.69-1.83-0.93-3.68-1.81-5.67-1.6-1.79 0.19-3.43 1.25-5.22 1.15-3.11-0.15-5.25-3.62-8.35-3.82a5.14 5.14 0 0 1-2-0.24c-1-0.5-1.14-1.8-1.64-2.77-0.75-1.43-2.85-1.78-4.42-1.41a64.74 64.74 0 0 1-0.63 9.83 17 17 0 0 1-1 4.18 19.9 19.9 0 0 1-2.21 3.85c-2.3 3.45-4.54 6.82-6.87 10.26z" opacity=".1"/>
  <path d="m1377.6 233.31c3.87 1 6.61 4.6 7.74 8.43s0.93 7.9 0.83 11.88a236.25 236.25 0 0 0 3 44.21c1.14 7 2.6 14 2.17 21.11-0.24 3.84-1.11 7.8-3.58 10.75-3.88 4.66-10.64 5.61-16.7 5.38-10.88-0.43-21.56-3.61-32.45-3.55-2.07 0-4.71-0.23-5.33-2.2-0.18-0.56-0.14-1.16-0.32-1.72-0.57-1.76-2.86-2.13-4.72-2.2l-21.76-0.73c2.33-3.44 4.57-6.82 6.9-10.26a20.8 20.8 0 0 0 2.22-3.85 17.54 17.54 0 0 0 1-4.19 63.27 63.27 0 0 0 0.62-9.82c1.57-0.37 3.67 0 4.42 1.41 0.51 1 0.67 2.27 1.65 2.77a4.92 4.92 0 0 0 2 0.23c3.1 0.2 5.25 3.68 8.35 3.83 1.79 0.1 3.44-1 5.22-1.15 2.82-0.29 5.34 1.57 7.93 2.71a16.78 16.78 0 0 0 13.43 0c0.64-0.28 1.34-1.07 0.82-1.54-0.35-0.31-0.93-0.07-1.35-0.28-0.8-0.39-0.22-1.57 0.23-2.34 1.26-2.22 0.37-5-0.85-7.28s-2.78-4.49-2.81-7a14.3 14.3 0 0 0 0-2.45 9.28 9.28 0 0 0-1.82-3.17c-2.23-3.26-2.55-7.57-1.58-11.41a31.06 31.06 0 0 1 5.31-10.52c6.6-8.98 15.8-16.52 19.43-27.05z" fill="#38bc24"/>
  <path d="m1304.3 139.64s-19.441-1.3886-20.829-6.2488c-1.3887-4.8602-4.1659-9.026-2.7773-9.026s2.0831-3.4716 2.0831-3.4716 1.3886-0.69431 2.0828 0c0.6945 0.69431 1.3887-4.8602 1.3887-4.8602s0.6943-2.0829 1.3886-0.69431c0.6943 1.3886 0.6943 0.69431 1.3887-1.3886 0.6942-2.0829 4.1658-3.4716 4.1658-3.4716s13.192 0.69431 15.275-2.0829c2.083-2.7772 25.69-0.69432 30.55 2.7772s26.384 15.969 22.912 26.384c-3.4716 10.415-15.969 33.327-15.969 36.798 0 3.4716-4.8601 2.7772-6.2489-0.6943-1.3885-3.4716-12.498-7.6374-12.498-9.7203s-6.2488-21.524-9.7204-20.135c-3.4715 1.3886-7.6374 12.498-9.0261 10.415-1.3886-2.0829-4.1659-14.581-4.1659-14.581z" fill="#664447" stroke-width="1.1473"/>
 </g>
</svg>
